SplineFontDB: 3.0
FontName: SpaceCodePro-BoldIt
FullName: Space Code Pro Bold Italic
FamilyName: Space Code Pro
Weight: Bold
Copyright: Based on Source Code Pro, distributed under an SIL OPEN FONT LICENSE. Copyright 2010, 2012 Adobe Systems Incorporated (http://www.adobe.com/), with Reserved Font Name 'Source'. All Rights Reserved. Source is a trademark of Adobe Systems Incorporated in the United States and/or other countries.
Version: 1.0
ItalicAngle: -11
UnderlinePosition: -100
UnderlineWidth: 50
Ascent: 750
Descent: 250
InvalidEm: 0
sfntRevision: 0x000107ae
LayerCount: 2
Layer: 0 0 "Back" 1
Layer: 1 0 "Fore" 0
XUID: [1021 71 2027841715 12912136]
BaseHoriz: 2 'ideo' 'romn'
BaseScript: 'DFLT' 1  -170 0
BaseScript: 'cyrl' 1  -170 0
BaseScript: 'grek' 1  -170 0
BaseScript: 'latn' 1  -170 0
StyleMap: 0x0021
FSType: 0
OS2Version: 4
OS2_WeightWidthSlopeOnly: 0
OS2_UseTypoMetrics: 0
CreationTime: 1436292836
ModificationTime: 1468279007
PfmFamily: 17
TTFWeight: 700
TTFWidth: 5
LineGap: 0
VLineGap: 0
Panose: 2 11 5 9 3 4 3 9 2 4
OS2TypoAscent: 750
OS2TypoAOffset: 0
OS2TypoDescent: -250
OS2TypoDOffset: 0
OS2TypoLinegap: 0
OS2WinAscent: 984
OS2WinAOffset: 0
OS2WinDescent: 273
OS2WinDOffset: 0
HheadAscent: 984
HheadAOffset: 0
HheadDescent: -273
HheadDOffset: 0
OS2SubXSize: 650
OS2SubYSize: 600
OS2SubXOff: -15
OS2SubYOff: 75
OS2SupXSize: 650
OS2SupYSize: 600
OS2SupXOff: 68
OS2SupYOff: 350
OS2StrikeYSize: 50
OS2StrikeYPos: 288
OS2CapHeight: 660
OS2XHeight: 480
OS2Vendor: 'VIMU'
OS2CodePages: 60000193.00000000
OS2UnicodeRanges: 20000077.02003803.00000000.00000000
Lookup: 1 0 0 "'ss02' Style Set 2 lookup 0" { "'ss02' Style Set 2 lookup 0 subtable"  } ['cv01' ('DFLT' <'dflt' > 'cyrl' <'SRB ' 'dflt' > 'grek' <'dflt' > 'latn' <'NSM ' 'SKS ' 'dflt' > ) 'salt' ('DFLT' <'dflt' > 'cyrl' <'SRB ' 'dflt' > 'grek' <'dflt' > 'latn' <'NSM ' 'SKS ' 'dflt' > ) 'ss02' ('DFLT' <'dflt' > 'cyrl' <'SRB ' 'dflt' > 'grek' <'dflt' > 'latn' <'NSM ' 'SKS ' 'dflt' > ) ]

StartChar: .notdef
Encoding: 1114112 -1 0
Width: 600
Flags: MW
HStem: 0 55<165 432 165 535> 603 57<177 421 177 177>
VStem: 65 62<105 105 105 577> 472 63<105 577 577 577>
LayerCount: 2
Fore
SplineSet
65 0 m 1
 65 660 l 1
 535 660 l 1
 535 0 l 1
 65 0 l 1
165 55 m 1
 432 55 l 1
 356 193 l 1
 302 295 l 1
 298 295 l 1
 243 193 l 1
 165 55 l 1
127 105 m 1
 257 340 l 1
 127 577 l 1
 127 105 l 1
298 385 m 1
 302 385 l 1
 351 478 l 1
 421 603 l 1
 177 603 l 1
 247 478 l 1
 298 385 l 1
343 340 m 1
 472 105 l 1
 472 577 l 1
 343 340 l 1
EndSplineSet
EndChar

StartChar: A
Encoding: 65 65 2
Width: 600
GlyphClass: 2
Flags: MW
HStem: 0 21G<-23 -23 -23 62 423 423 423 503> 205 60<198 397 198 403 167 397> 591 65<362 366 362 362>
VStem: -23 526<0 0>
AnchorPoint: "Anchor-6" 448 0 basechar 0
AnchorPoint: "Anchor-3" 250 -20 basechar 0
AnchorPoint: "Anchor-2" 465 0 basechar 0
AnchorPoint: "Anchor-0" 373 676 basechar 0
LayerCount: 2
Fore
SplineSet
256 379 m 2
 198 265 l 1
 397 265 l 1
 386 377 l 2
 379 447 373 521 366 591 c 1
 362 591 l 1
 325 519 292 452 256 379 c 2
-23 0 m 1
 333 656 l 1
 422 656 l 1
 503 0 l 1
 423 0 l 1
 403 205 l 1
 167 205 l 1
 62 0 l 1
 -23 0 l 1
EndSplineSet
EndChar

StartChar: B
Encoding: 66 66 3
Width: 600
GlyphClass: 2
Flags: MW
HStem: 0 66<132 242 242 248> 312 66<194 284 284 294 182 284> 590 66<238 324 238 238>
VStem: 444 76<155 239> 467 80<466.5 530>
AnchorPoint: "Anchor-3" 250 -20 basechar 0
AnchorPoint: "Anchor-0" 374 676 basechar 0
LayerCount: 2
Fore
SplineSet
41 0 m 1xf0
 173 656 l 1
 343 656 l 2
 474 656 547 606 547 511 c 0xe8
 547 422 473 363 400 347 c 1
 400 343 l 1
 467 327 520 285 520 210 c 0
 520 64 403 0 248 0 c 2
 41 0 l 1xf0
194 378 m 1
 284 378 l 2
 408 378 467 426 467 500 c 0
 467 560 428 590 324 590 c 2
 238 590 l 1
 194 378 l 1
132 66 m 1
 242 66 l 2
 366 66 444 104 444 206 c 0xf0
 444 272 391 312 294 312 c 2
 182 312 l 1
 132 66 l 1
EndSplineSet
EndChar

StartChar: C
Encoding: 67 67 4
Width: 600
GlyphClass: 2
Flags: MW
HStem: -12 67<265.5 349.5 265.5 349.5> 601 67<334 437>
VStem: 77 80<200.5 339.5 200.5 356>
AnchorPoint: "Anchor-3" 291 -20 basechar 0
AnchorPoint: "Anchor-2" 293 0 basechar 0
AnchorPoint: "Anchor-0" 407 676 basechar 0
LayerCount: 2
Fore
SplineSet
310 -12 m 0
 160 -12 77 96 77 253 c 0
 77 459 213 668 416 668 c 0
 491 668 545 628 578 571 c 1
 523 530 l 1
 497 574 462 601 412 601 c 0
 256 601 157 419 157 260 c 0
 157 141 207 55 324 55 c 0
 375 55 420 78 463 114 c 1
 499 64 l 1
 450 22 389 -12 310 -12 c 0
EndSplineSet
EndChar

StartChar: D
Encoding: 68 68 5
Width: 600
GlyphClass: 2
Flags: MW
HStem: 0 64<112 199 112 199> 593 63<218 281 218 218>
VStem: 477 80<294 458>
AnchorPoint: "Anchor-3" 230 -20 basechar 0
AnchorPoint: "Anchor-2" 224 0 basechar 0
AnchorPoint: "Anchor-0" 364 676 basechar 0
LayerCount: 2
Fore
SplineSet
22 0 m 1
 153 656 l 1
 284 656 l 2
 462 656 557 563 557 400 c 0
 557 162 424 0 199 0 c 2
 22 0 l 1
112 64 m 1
 199 64 l 2
 372 64 477 193 477 395 c 0
 477 521 409 593 281 593 c 2
 218 593 l 1
 112 64 l 1
EndSplineSet
EndChar

StartChar: E
Encoding: 69 69 6
Width: 600
GlyphClass: 2
Flags: MW
HStem: 0 66<150 473> 312 66<213 473 201 486> 591 65<255 582 255 255>
VStem: 60 535
AnchorPoint: "Anchor-6" 395 0 basechar 0
AnchorPoint: "Anchor-3" 279 -20 basechar 0
AnchorPoint: "Anchor-2" 289 0 basechar 0
AnchorPoint: "Anchor-0" 406 676 basechar 0
LayerCount: 2
Fore
SplineSet
60 0 m 1
 192 656 l 1
 595 656 l 1
 582 591 l 1
 255 591 l 1
 213 378 l 1
 486 378 l 1
 473 312 l 1
 201 312 l 1
 150 66 l 1
 486 66 l 1
 473 0 l 1
 60 0 l 1
EndSplineSet
EndChar

StartChar: F
Encoding: 70 70 7
Width: 600
GlyphClass: 2
Flags: MW
HStem: 0 21G<79 79 79 157> 297 66<229 483 217 497> 591 65<274 595 274 274>
VStem: 79 530
AnchorPoint: "Anchor-3" 124 -20 basechar 0
AnchorPoint: "Anchor-2" 120 0 basechar 0
AnchorPoint: "Anchor-0" 417 676 basechar 0
LayerCount: 2
Fore
SplineSet
79 0 m 1
 210 656 l 1
 609 656 l 1
 595 591 l 1
 274 591 l 1
 229 363 l 1
 497 363 l 1
 483 297 l 1
 217 297 l 1
 157 0 l 1
 79 0 l 1
EndSplineSet
EndChar

StartChar: G
Encoding: 71 71 8
Width: 600
GlyphClass: 2
Flags: MW
HStem: -12 66<249.5 335 249.5 337.5> 275 64<337 459 324 543> 601 67<320 428>
VStem: 61 80<201.5 339.5 201.5 357>
AnchorPoint: "Anchor-3" 298 -20 basechar 0
AnchorPoint: "Anchor-0" 396 676 basechar 0
LayerCount: 2
Fore
SplineSet
300 -12 m 0
 144 -12 61 93 61 253 c 0
 61 461 194 668 406 668 c 0
 484 668 538 627 571 571 c 1
 516 530 l 1
 491 572 455 601 401 601 c 0
 239 601 141 419 141 260 c 0
 141 143 188 54 311 54 c 0
 359 54 397 72 423 94 c 1
 459 275 l 1
 324 275 l 1
 337 339 l 1
 543 339 l 1
 486 55 l 1
 438 15 375 -12 300 -12 c 0
EndSplineSet
EndChar

StartChar: H
Encoding: 72 72 9
Width: 600
GlyphClass: 2
Flags: MW
HStem: 0 21G<18 18 18 96 379 379 379 457> 312 67<171 442 158 455> 636 20G<149 227 227 227 510 588 588 588>
VStem: 18 570
AnchorPoint: "Anchor-3" 234 -20 basechar 0
AnchorPoint: "Anchor-2" 60 0 basechar 0
AnchorPoint: "Anchor-0" 373 676 basechar 0
LayerCount: 2
Fore
SplineSet
18 0 m 1
 149 656 l 1
 227 656 l 1
 171 379 l 1
 455 379 l 1
 510 656 l 1
 588 656 l 1
 457 0 l 1
 379 0 l 1
 442 312 l 1
 158 312 l 1
 96 0 l 1
 18 0 l 1
EndSplineSet
EndChar

StartChar: I
Encoding: 73 73 10
Width: 600
GlyphClass: 2
Flags: MW
HStem: 0 66<35 211 49 211 288 439> 591 65<167 316 152 573 394 394 394 559>
VStem: 35 538
AnchorPoint: "Anchor-6" 238 0 basechar 0
AnchorPoint: "Anchor-3" 234 -20 basechar 0
AnchorPoint: "Anchor-2" 238 0 basechar 0
AnchorPoint: "Anchor-0" 373 676 basechar 0
LayerCount: 2
Fore
SplineSet
35 0 m 1
 49 66 l 1
 211 66 l 1
 316 591 l 1
 152 591 l 1
 167 656 l 1
 573 656 l 1
 559 591 l 1
 394 591 l 1
 288 66 l 1
 454 66 l 1
 439 0 l 1
 35 0 l 1
EndSplineSet
EndChar

StartChar: J
Encoding: 74 74 11
Width: 600
GlyphClass: 2
Flags: MW
HStem: -12 67<180.5 258.5 180.5 279> 591 65<188 450 175 540>
VStem: 23 517
AnchorPoint: "Anchor-3" 229 -20 basechar 0
AnchorPoint: "Anchor-0" 371 676 basechar 0
LayerCount: 2
Fore
SplineSet
209 -12 m 0
 119 -12 57 35 23 90 c 1
 75 136 l 1
 106 87 149 55 212 55 c 0
 305 55 354 111 377 227 c 2
 450 591 l 1
 175 591 l 1
 188 656 l 1
 540 656 l 1
 451 211 l 2
 422 69 349 -12 209 -12 c 0
EndSplineSet
EndChar

StartChar: K
Encoding: 75 75 12
Width: 600
GlyphClass: 2
Flags: MW
HStem: 0 21G<42 119 42 42 432 519 432 432> 636 20G<173 251 251 251 530 618 618 618>
VStem: 42 576
AnchorPoint: "Anchor-3" 287 -20 basechar 0
AnchorPoint: "Anchor-0" 386 676 basechar 0
LayerCount: 2
Fore
SplineSet
618 656 m 1
 346 391 l 1
 519 0 l 1
 432 0 l 1
 288 334 l 1
 162 212 l 1
 119 0 l 1
 42 0 l 1
 173 656 l 1
 251 656 l 1
 182 319 l 1
 186 319 l 1
 530 656 l 1
 618 656 l 1
EndSplineSet
EndChar

StartChar: L
Encoding: 76 76 13
Width: 600
GlyphClass: 2
Flags: MW
HStem: 0 66<190 502> 636 20G<230 308 308 308>
VStem: 99 416<0 66>
AnchorPoint: "Anchor-4" 204 337 basechar 0
AnchorPoint: "Anchor-3" 305 -20 basechar 0
AnchorPoint: "Anchor-2" 315 0 basechar 0
AnchorPoint: "Anchor-0" 275 676 basechar 0
LayerCount: 2
Fore
SplineSet
99 0 m 1
 230 656 l 1
 308 656 l 1
 190 66 l 1
 515 66 l 1
 502 0 l 1
 99 0 l 1
EndSplineSet
EndChar

StartChar: M
Encoding: 77 77 14
Width: 600
GlyphClass: 2
Flags: MW
HStem: 0 21G<15 15 15 86 386 386 386 459> 178 84<284 288 284 304 240 288> 568 88<188 192 188 188 509 513 509 509>
VStem: 15 574
AnchorPoint: "Anchor-3" 234 -20 basechar 0
AnchorPoint: "Anchor-2" 425 0 basechar 0
AnchorPoint: "Anchor-0" 373 676 basechar 0
LayerCount: 2
Fore
SplineSet
15 0 m 1
 146 656 l 1
 240 656 l 1
 278 359 l 1
 284 262 l 1
 288 262 l 1
 332 358 l 1
 496 656 l 1
 589 656 l 1
 459 0 l 1
 386 0 l 1
 464 386 l 2
 474 436 498 516 513 568 c 1
 509 568 l 1
 498 546 464 478 444 441 c 2
 304 178 l 1
 240 178 l 1
 206 436 l 2
 203 457 196 545 192 568 c 1
 188 568 l 1
 182 510 174 432 166 394 c 2
 86 0 l 1
 15 0 l 1
EndSplineSet
EndChar

StartChar: N
Encoding: 78 78 15
Width: 600
GlyphClass: 2
Flags: MW
HStem: 0 21G<25 25 25 99 375 375 375 453> 0 99<375 410 406 410 406 453> 558 98<199 203 199 199> 636 20G<156 235 235 235 510 584 584 584>
VStem: 25 559
AnchorPoint: "Anchor-3" 249 -20 basechar 0
AnchorPoint: "Anchor-2" 417 0 basechar 0
AnchorPoint: "Anchor-0" 373 676 basechar 0
LayerCount: 2
Fore
SplineSet
25 0 m 1x98
 156 656 l 1
 235 656 l 1
 369 234 l 1
 406 99 l 1
 410 99 l 1x58
 418 164 429 246 440 301 c 2
 510 656 l 1
 584 656 l 1
 453 0 l 1
 375 0 l 1
 240 422 l 1
 203 558 l 1
 199 558 l 1xa8
 190 492 180 414 168 351 c 2
 99 0 l 1
 25 0 l 1x98
EndSplineSet
EndChar

StartChar: O
Encoding: 79 79 16
Width: 600
GlyphClass: 2
Flags: MW
HStem: -12 67<213.5 332.5 213.5 351> 601 67<276.5 395.5>
VStem: 41 79<186 329 186 351.5> 488 79<327.5 470.5>
AnchorPoint: "Anchor-6" 238 0 basechar 0
AnchorPoint: "Anchor-5" 366 646 basechar 0
AnchorPoint: "Anchor-3" 233 -20 basechar 0
AnchorPoint: "Anchor-2" 238 0 basechar 0
AnchorPoint: "Anchor-0" 373 676 basechar 0
LayerCount: 2
Fore
SplineSet
254 -12 m 0
 120 -12 41 92 41 247 c 0
 41 456 161 668 355 668 c 0
 489 668 567 565 567 409 c 0
 567 201 448 -12 254 -12 c 0
261 55 m 0
 404 55 488 242 488 413 c 0
 488 528 443 601 348 601 c 0
 205 601 120 414 120 244 c 0
 120 128 166 55 261 55 c 0
EndSplineSet
EndChar

StartChar: P
Encoding: 80 80 17
Width: 600
GlyphClass: 2
Flags: MW
HStem: 0 21G<52 52 52 129> 264 63<195 287 195 287 182 287> 594 62<247 346 247 247>
VStem: 495 78<433.5 524>
AnchorPoint: "Anchor-3" 97 -20 basechar 0
AnchorPoint: "Anchor-0" 384 676 basechar 0
LayerCount: 2
Fore
SplineSet
52 0 m 1
 183 656 l 1
 366 656 l 2
 490 656 573 610 573 496 c 0
 573 335 454 264 287 264 c 2
 182 264 l 1
 129 0 l 1
 52 0 l 1
195 327 m 1
 287 327 l 2
 423 327 495 381 495 486 c 0
 495 562 444 594 346 594 c 2
 247 594 l 1
 195 327 l 1
EndSplineSet
EndChar

StartChar: Q
Encoding: 81 81 18
Width: 600
GlyphClass: 2
Flags: MW
HStem: -164 65<376 418.5> -10 62 601 67<276.5 395.5>
VStem: 41 79<184.5 329 184.5 351.5> 488 79<326 470.5>
AnchorPoint: "Anchor-0" 373 676 basechar 0
LayerCount: 2
Fore
SplineSet
262 52 m 0
 404 52 488 239 488 413 c 0
 488 528 443 601 348 601 c 0
 205 601 120 414 120 244 c 0
 120 125 166 52 262 52 c 0
398 -164 m 0
 306 -164 233 -115 206 -7 c 1
 101 15 41 112 41 247 c 0
 41 456 161 668 355 668 c 0
 489 668 567 565 567 409 c 0
 567 212 460 10 283 -10 c 1
 300 -69 346 -99 406 -99 c 0
 440 -99 465 -94 486 -86 c 1
 500 -147 l 1
 476 -157 439 -164 398 -164 c 0
EndSplineSet
EndChar

StartChar: R
Encoding: 82 82 19
Width: 600
GlyphClass: 2
Flags: MW
HStem: 0 21G<35 35 35 112 387 387 387 473> 278 63<181 276 276 279 168 276> 594 62<230 325 230 230>
VStem: 471 79<446.5 529>
AnchorPoint: "Anchor-3" 260 -20 basechar 0
AnchorPoint: "Anchor-2" 76 0 basechar 0
AnchorPoint: "Anchor-0" 370 676 basechar 0
LayerCount: 2
Fore
SplineSet
35 0 m 1
 166 656 l 1
 343 656 l 2
 466 656 550 613 550 501 c 0
 550 381 466 307 356 285 c 1
 473 0 l 1
 387 0 l 1
 279 278 l 1
 168 278 l 1
 112 0 l 1
 35 0 l 1
181 341 m 1
 276 341 l 2
 401 341 471 400 471 493 c 0
 471 565 422 594 325 594 c 2
 230 594 l 1
 181 341 l 1
EndSplineSet
EndChar

StartChar: S
Encoding: 83 83 20
Width: 600
GlyphClass: 2
Flags: MW
HStem: -12 67<223.5 302 223.5 323.5> 602 66<304 371.5>
VStem: 142 79<473 525.5 473 542> 405 79<139.5 202>
AnchorPoint: "Anchor-3" 260 -20 basechar 0
AnchorPoint: "Anchor-2" 260 0 basechar 0
AnchorPoint: "Anchor-0" 358 676 basechar 0
LayerCount: 2
Fore
SplineSet
261 -12 m 0
 156 -12 82 34 37 106 c 1
 90 149 l 1
 130 89 186 55 261 55 c 0
 343 55 405 102 405 177 c 0
 405 227 373 258 324 287 c 2
 248 332 l 2
 192 366 142 415 142 492 c 0
 142 592 226 668 343 668 c 0
 428 668 498 625 537 571 c 1
 485 528 l 1
 453 568 404 602 339 602 c 0
 269 602 221 553 221 498 c 0
 221 448 256 418 298 394 c 2
 377 347 l 2
 439 308 484 263 484 184 c 0
 484 61 386 -12 261 -12 c 0
EndSplineSet
EndChar

StartChar: T
Encoding: 84 84 21
Width: 600
GlyphClass: 2
Flags: MW
HStem: 0 21G<198 198 198 276> 589 67<111 316 98 625 393 393 393 611>
VStem: 98 527<589 656>
AnchorPoint: "Anchor-3" 235 -20 basechar 0
AnchorPoint: "Anchor-2" 239 0 basechar 0
AnchorPoint: "Anchor-0" 373 676 basechar 0
LayerCount: 2
Fore
SplineSet
198 0 m 1
 316 589 l 1
 98 589 l 1
 111 656 l 1
 625 656 l 1
 611 589 l 1
 393 589 l 1
 276 0 l 1
 198 0 l 1
EndSplineSet
EndChar

StartChar: U
Encoding: 85 85 22
Width: 600
GlyphClass: 2
Flags: MW
HStem: -12 67<224 302.5 224 315> 636 20G<149 227 227 227 512 588 588 588>
VStem: 64 77<150.5 201.5>
AnchorPoint: "Anchor-6" 238 0 basechar 0
AnchorPoint: "Anchor-5" 455 666 basechar 0
AnchorPoint: "Anchor-3" 233 -20 basechar 0
AnchorPoint: "Anchor-2" 238 0 basechar 0
AnchorPoint: "Anchor-0" 373 676 basechar 0
LayerCount: 2
Fore
SplineSet
255 -12 m 0
 132 -12 64 64 64 186 c 0
 64 217 67 245 74 279 c 2
 149 656 l 1
 227 656 l 1
 152 277 l 2
 145 246 141 220 141 195 c 0
 141 106 183 55 265 55 c 0
 340 55 403 105 432 252 c 2
 512 656 l 1
 588 656 l 1
 506 244 l 2
 468 53 375 -12 255 -12 c 0
EndSplineSet
EndChar

StartChar: V
Encoding: 86 86 23
Width: 600
GlyphClass: 2
Flags: MW
HStem: 0 76<188 254 250 254 250 281> 636 20G<122 202 202 202 547 632 632 632>
VStem: 122 510<656 656>
AnchorPoint: "Anchor-3" 233 -20 basechar 0
AnchorPoint: "Anchor-0" 369 676 basechar 0
LayerCount: 2
Fore
SplineSet
188 0 m 1
 122 656 l 1
 202 656 l 1
 233 292 l 2
 239 221 244 148 250 76 c 1
 254 76 l 1
 287 145 329 230 361 292 c 2
 547 656 l 1
 632 656 l 1
 281 0 l 1
 188 0 l 1
EndSplineSet
EndChar

StartChar: W
Encoding: 87 87 24
Width: 600
GlyphClass: 2
Flags: MW
HStem: 0 67<54 123 119 123 119 154> 0 71<342 401 395 401 395 438> 391 83<313 318 313 313> 637 20G<94 168 168 168 568 642 642 642>
VStem: 333 62
AnchorPoint: "Anchor-3" 233 -20 basechar 0
AnchorPoint: "Anchor-0" 369 676 basechar 0
LayerCount: 2
Fore
SplineSet
54 0 m 1x78
 94 657 l 1
 168 657 l 1
 134 204 l 2
 129 144 122 86 119 67 c 1
 123 67 l 1xb8
 130 87 170 187 179 206 c 2
 298 474 l 1
 364 474 l 1
 383 250 l 2
 387 204 394 116 395 71 c 1
 401 71 l 1
 405 90 428 189 434 209 c 2
 568 657 l 1
 642 657 l 1
 438 0 l 1
 342 0 l 1
 324 266 l 2
 321 305 318 360 318 391 c 1
 313 391 l 1
 303 359 285 305 268 266 c 2
 154 0 l 1
 54 0 l 1x78
EndSplineSet
EndChar

StartChar: X
Encoding: 88 88 25
Width: 600
GlyphClass: 2
Flags: MW
HStem: 0 21G<-4 -4 -4 82 403 403 403 487> 637 20G<130 214 214 214 516 602 602 602>
VStem: -4 606
AnchorPoint: "Anchor-3" 240 -20 basechar 0
AnchorPoint: "Anchor-2" 448 0 basechar 0
AnchorPoint: "Anchor-0" 369 676 basechar 0
LayerCount: 2
Fore
SplineSet
-4 0 m 1
 257 344 l 1
 130 657 l 1
 214 657 l 1
 282 485 l 2
 293 456 306 415 315 386 c 1
 319 386 l 1
 340 418 370 464 384 484 c 2
 516 657 l 1
 602 657 l 1
 351 332 l 1
 487 0 l 1
 403 0 l 1
 331 182 l 2
 321 205 304 254 294 283 c 1
 290 283 l 1
 265 247 240 209 219 181 c 2
 82 0 l 1
 -4 0 l 1
EndSplineSet
EndChar

StartChar: Y
Encoding: 89 89 26
Width: 600
GlyphClass: 2
Flags: MW
HStem: 0 21G<199 199 199 276> 637 20G<109 189 189 189 544 626 626 626>
VStem: 109 517<657 657>
AnchorPoint: "Anchor-6" 239 0 basechar 0
AnchorPoint: "Anchor-3" 234 -20 basechar 0
AnchorPoint: "Anchor-0" 360 676 basechar 0
LayerCount: 2
Fore
SplineSet
199 0 m 1
 246 229 l 1
 109 657 l 1
 189 657 l 1
 250 455 l 2
 266 401 284 338 295 292 c 1
 299 292 l 1
 325 335 367 401 404 455 c 2
 544 657 l 1
 626 657 l 1
 321 221 l 1
 276 0 l 1
 199 0 l 1
EndSplineSet
EndChar

StartChar: Z
Encoding: 90 90 27
Width: 600
GlyphClass: 2
Flags: MW
HStem: 0 65<133 484> 592 65<140 469 127 586>
VStem: 17 569
AnchorPoint: "Anchor-3" 266 -20 basechar 0
AnchorPoint: "Anchor-2" 283 0 basechar 0
AnchorPoint: "Anchor-0" 360 676 basechar 0
LayerCount: 2
Fore
SplineSet
484 0 m 1
 17 0 l 1
 26 46 l 1
 469 592 l 1
 127 592 l 1
 140 657 l 1
 586 657 l 1
 576 610 l 1
 133 65 l 1
 498 65 l 1
 484 0 l 1
EndSplineSet
EndChar

StartChar: a
Encoding: 97 97 28
Width: 600
GlyphClass: 2
Flags: MW
HStem: -12 64<208 250> 0 21G<393 456 393 393> 434 64<273.5 352> 466 20G<491 553 553 553>
VStem: 52 79<140 251 140 261>
AnchorPoint: "Anchor-6" 399 0 basechar 0
AnchorPoint: "Anchor-3" 249 -20 basechar 0
AnchorPoint: "Anchor-2" 423 0 basechar 0
AnchorPoint: "Anchor-0" 354 507 basechar 0
LayerCount: 2
Fore
SplineSet
219 -12 m 0xa8
 118 -12 52 53 52 174 c 0
 52 348 171 498 319 498 c 0
 388 498 441 469 468 425 c 1
 472 425 l 1xa8
 491 486 l 1
 553 486 l 1
 456 0 l 1
 393 0 l 1x58
 401 74 l 1
 397 74 l 1
 346 22 281 -12 219 -12 c 0xa8
242 52 m 0
 295 52 356 85 409 146 c 1
 454 362 l 1
 421 413 375 434 329 434 c 0
 218 434 131 316 131 186 c 0
 131 94 174 52 242 52 c 0
EndSplineSet
Substitution2: "'sups' Superscript lookup 18 subtable" a.sups
Substitution2: "'ss02' Style Set 2 lookup 0 subtable" a.a
EndChar

StartChar: b
Encoding: 98 98 29
Width: 600
GlyphClass: 2
Flags: MW
HStem: -12 64<238.5 318 238.5 346> 0 21G<36 100 36 36> 434 64<338.5 379.5> 692 20G<178 255 255 255>
VStem: 458 79<228.5 341>
AnchorPoint: "Anchor-3" 253 -20 basechar 0
AnchorPoint: "Anchor-0" 218 736 basechar 0
LayerCount: 2
Fore
SplineSet
270 -12 m 0xb8
 206 -12 151 18 121 61 c 1
 118 61 l 1xb8
 100 0 l 1
 36 0 l 1x78
 178 712 l 1
 255 712 l 1
 216 522 l 1
 190 415 l 1
 193 415 l 1
 242 460 307 498 370 498 c 0
 473 498 537 429 537 305 c 0
 537 129 422 -12 270 -12 c 0xb8
262 52 m 0
 374 52 458 163 458 294 c 0
 458 388 414 434 345 434 c 0
 296 434 232 399 181 340 c 1
 137 122 l 1
 171 71 215 52 262 52 c 0
EndSplineSet
Substitution2: "'sups' Superscript lookup 18 subtable" b.sups
EndChar

StartChar: c
Encoding: 99 99 30
Width: 600
GlyphClass: 2
Flags: MW
HStem: -12 64<256 327.5> 434 64<299.5 381.5>
VStem: 67 77<157.5 273 157.5 290.5>
AnchorPoint: "Anchor-3" 271 -20 basechar 0
AnchorPoint: "Anchor-2" 274 0 basechar 0
AnchorPoint: "Anchor-0" 364 507 basechar 0
LayerCount: 2
Fore
SplineSet
291 -12 m 0
 164 -12 67 60 67 202 c 0
 67 379 208 498 360 498 c 0
 445 498 508 457 543 411 c 1
 494 367 l 1
 458 412 413 434 350 434 c 0
 249 434 144 335 144 211 c 0
 144 104 211 52 301 52 c 0
 358 52 411 80 456 119 c 1
 487 67 l 1
 436 20 364 -12 291 -12 c 0
EndSplineSet
Substitution2: "'sups' Superscript lookup 18 subtable" c.sups
EndChar

StartChar: d
Encoding: 100 100 31
Width: 600
GlyphClass: 2
Flags: MW
HStem: -12 64<208 249.5> 0 21G<393 456 393 393> 434 64<273.5 352> 692 20G<523 600 600 600>
VStem: 52 79<140.5 251 140.5 261>
AnchorPoint: "Anchor-3" 249 -20 basechar 0
AnchorPoint: "Anchor-2" 235 0 basechar 0
AnchorPoint: "Anchor-0" 559 736 basechar 0
LayerCount: 2
Fore
SplineSet
218 -12 m 0xb8
 118 -12 52 53 52 174 c 0
 52 348 171 498 319 498 c 0
 388 498 438 470 466 427 c 1
 469 427 l 1
 485 522 l 1
 523 712 l 1
 600 712 l 1
 456 0 l 1
 393 0 l 1x78
 401 74 l 1
 397 74 l 1
 346 22 281 -12 218 -12 c 0xb8
242 52 m 0
 295 52 356 85 409 146 c 1
 453 362 l 1
 420 413 375 434 329 434 c 0
 218 434 131 316 131 186 c 0
 131 95 174 52 242 52 c 0
EndSplineSet
Substitution2: "'sups' Superscript lookup 18 subtable" d.sups
EndChar

StartChar: e
Encoding: 101 101 32
Width: 600
GlyphClass: 2
Flags: MW
HStem: -12 61<241 312.5> 224 60<152 450 152 512 140 450> 437 61<299 372>
VStem: 63 76<153 206 153 285.5> 453 72<309 352>
AnchorPoint: "Anchor-6" 361 0 basechar 0
AnchorPoint: "Anchor-3" 262 -20 basechar 0
AnchorPoint: "Anchor-2" 266 0 basechar 0
AnchorPoint: "Anchor-0" 346 507 basechar 0
LayerCount: 2
Fore
SplineSet
270 -12 m 0
 144 -12 63 62 63 198 c 0
 63 373 193 498 340 498 c 0
 459 498 525 419 525 311 c 0
 525 277 517 237 512 224 c 1
 140 224 l 1
 139 217 139 210 139 202 c 0
 139 104 197 49 285 49 c 0
 349 49 406 76 451 112 c 1
 480 60 l 1
 431 21 355 -12 270 -12 c 0
336 437 m 0
 262 437 182 378 152 284 c 1
 450 284 l 1
 452 294 453 304 453 314 c 0
 453 390 408 437 336 437 c 0
EndSplineSet
Substitution2: "'sups' Superscript lookup 18 subtable" e.sups
EndChar

StartChar: f
Encoding: 102 102 33
Width: 600
GlyphClass: 2
Flags: MW
HStem: 0 21G<169 169 169 246> 424 62<115 267 344 535> 662 62<456.5 511.5>
VStem: 115 515<424 675>
AnchorPoint: "Anchor-3" 211 -20 basechar 0
AnchorPoint: "Anchor-2" 207 0 basechar 0
AnchorPoint: "Anchor-0" 474 736 basechar 0
LayerCount: 2
Fore
SplineSet
169 0 m 1
 255 424 l 1
 115 424 l 1
 126 481 l 1
 267 486 l 1
 278 540 l 2
 304 669 379 724 489 724 c 0
 548 724 597 703 630 675 c 1
 593 626 l 1
 563 649 532 662 491 662 c 0
 422 662 372 626 354 537 c 2
 344 486 l 1
 548 486 l 1
 535 424 l 1
 331 424 l 1
 246 0 l 1
 169 0 l 1
EndSplineSet
Substitution2: "'sups' Superscript lookup 18 subtable" f.sups
EndChar

StartChar: g
Encoding: 103 103 34
Width: 600
GlyphClass: 2
Flags: MW
HStem: -217 63<175 245 175 262> 4 64<211.5 255> 434 64<275.5 352> 466 20G<492 553 553 553>
VStem: 55 79<154 261 154 271.5>
AnchorPoint: "Anchor-3" 219 -219 basechar 0
AnchorPoint: "Anchor-0" 354 507 basechar 0
LayerCount: 2
Fore
SplineSet
201 -217 m 0xe8
 121 -217 60 -192 16 -157 c 1
 52 -102 l 1
 91 -136 148 -154 202 -154 c 0
 288 -154 358 -115 379 -21 c 2
 401 82 l 1
 397 82 l 1
 350 36 286 4 224 4 c 0
 121 4 55 70 55 186 c 0
 55 357 174 498 319 498 c 0
 388 498 441 469 468 425 c 1
 472 425 l 1xe8
 492 486 l 1
 553 486 l 1xd8
 451 -25 l 2
 424 -161 323 -217 201 -217 c 0xe8
247 68 m 0
 300 68 358 99 409 154 c 1
 453 361 l 1
 419 412 376 434 328 434 c 0
 223 434 134 324 134 198 c 0
 134 110 176 68 247 68 c 0
EndSplineSet
Substitution2: "'sups' Superscript lookup 18 subtable" g.sups
Substitution2: "'ss03' Style Set 3 lookup 1 subtable" g.a
EndChar

StartChar: h
Encoding: 104 104 35
Width: 600
GlyphClass: 2
Flags: MW
HStem: 0 21G<36 36 36 112 384 384 384 461> 432 66<362 399> 692 20G<178 255 255 255>
VStem: 451 79<363 381>
AnchorPoint: "Anchor-3" 255 -20 basechar 0
AnchorPoint: "Anchor-2" 75 0 basechar 0
AnchorPoint: "Anchor-0" 217 736 basechar 0
LayerCount: 2
Fore
SplineSet
36 0 m 1
 178 712 l 1
 255 712 l 1
 202 450 l 1
 186 389 l 1
 190 389 l 1
 250 447 319 498 405 498 c 0
 491 498 530 450 530 377 c 0
 530 349 526 324 521 297 c 2
 461 0 l 1
 384 0 l 1
 442 289 l 2
 448 314 451 335 451 357 c 0
 451 405 424 432 374 432 c 0
 309 432 242 388 175 314 c 1
 112 0 l 1
 36 0 l 1
EndSplineSet
Substitution2: "'sups' Superscript lookup 18 subtable" h.sups
EndChar

StartChar: i
Encoding: 105 105 36
Width: 600
GlyphClass: 2
Flags: MW
HStem: -12 64<347 373.5> 424 62<117 282 104 371> 589 122<335.5 361>
VStem: 216 78<98.5 118> 285 127<638.5 661>
AnchorPoint: "Anchor-6" 364 0 basechar 0
AnchorPoint: "Anchor-3" 333 -20 basechar 0
AnchorPoint: "Anchor-2" 351 0 basechar 0
AnchorPoint: "Anchor-0" 360 738 basechar 0
LayerCount: 2
Fore
SplineSet
347 -12 m 0xf0
 270 -12 216 30 216 110 c 0
 216 126 219 144 224 163 c 2
 282 424 l 1
 104 424 l 1
 117 486 l 1
 371 486 l 1
 298 156 l 2
 296 144 294 134 294 124 c 0
 294 73 325 52 369 52 c 0
 399 52 427 62 462 78 c 1
 480 20 l 1
 439 1 400 -12 347 -12 c 0xf0
342 589 m 0xe8
 310 589 285 608 285 642 c 0
 285 680 317 711 354 711 c 0
 389 711 412 692 412 658 c 0
 412 619 380 589 342 589 c 0xe8
EndSplineSet
Substitution2: "Single Substitution lookup 25 subtable" dotlessi
Substitution2: "'sups' Superscript lookup 18 subtable" i.sups
EndChar

StartChar: j
Encoding: 106 106 37
Width: 600
GlyphClass: 2
Flags: MW
HStem: -217 63<99 164.5 99 188.5> 424 62<145 355 131 444> 589 122<408.5 434>
VStem: 358 127<638.5 661>
AnchorPoint: "Anchor-3" 145 -219 basechar 0
AnchorPoint: "Anchor-0" 434 738 basechar 0
LayerCount: 2
Fore
SplineSet
122 -217 m 0
 61 -217 11 -194 -18 -173 c 1
 15 -118 l 1
 44 -139 77 -154 121 -154 c 0
 208 -154 249 -102 267 -14 c 2
 355 424 l 1
 131 424 l 1
 145 486 l 1
 444 486 l 1
 344 -15 l 2
 317 -145 255 -217 122 -217 c 0
415 589 m 0
 383 589 358 608 358 642 c 0
 358 680 390 711 427 711 c 0
 462 711 485 692 485 658 c 0
 485 619 453 589 415 589 c 0
EndSplineSet
Substitution2: "Single Substitution lookup 25 subtable" uni0237
Substitution2: "'sups' Superscript lookup 18 subtable" j.sups
EndChar

StartChar: k
Encoding: 107 107 38
Width: 600
GlyphClass: 2
Flags: MW
HStem: 0 21G<49 49 49 126 429 429 429 509> 466 20G<492 585 585 585> 692 20G<192 268 268 268>
VStem: 49 536<0 486>
AnchorPoint: "Anchor-3" 279 -20 basechar 0
AnchorPoint: "Anchor-0" 229 733 basechar 0
LayerCount: 2
Fore
SplineSet
49 0 m 1
 192 712 l 1
 268 712 l 1
 171 228 l 1
 175 228 l 1
 492 486 l 1
 585 486 l 1
 357 292 l 1
 509 0 l 1
 429 0 l 1
 301 247 l 1
 152 128 l 1
 126 0 l 1
 49 0 l 1
EndSplineSet
Substitution2: "'sups' Superscript lookup 18 subtable" k.sups
EndChar

StartChar: l
Encoding: 108 108 39
Width: 600
GlyphClass: 2
Flags: MW
HStem: -12 64<323.5 349> 650 62<154 303 141 391>
VStem: 195 77<99 125.5>
AnchorPoint: "Anchor-4" 285 385 basechar 0
AnchorPoint: "Anchor-3" 323 -20 basechar 0
AnchorPoint: "Anchor-2" 326 0 basechar 0
AnchorPoint: "Anchor-0" 350 736 basechar 0
LayerCount: 2
Fore
SplineSet
325 -12 m 0
 250 -12 195 32 195 117 c 0
 195 134 197 150 202 171 c 2
 303 650 l 1
 141 650 l 1
 154 712 l 1
 391 712 l 1
 277 168 l 2
 274 153 272 138 272 124 c 0
 272 74 301 52 346 52 c 0
 378 52 406 61 441 79 c 1
 460 20 l 1
 417 -1 373 -12 325 -12 c 0
EndSplineSet
Substitution2: "'sups' Superscript lookup 18 subtable" l.sups
EndChar

StartChar: m
Encoding: 109 109 40
Width: 600
GlyphClass: 2
Flags: MW
HStem: 0 21G<0 0 0 76 208 208 208 282 414 414 414 490> 432 66<258 259.5> 466 20G<97 156 156 156>
VStem: 284 72 488 80<380.5 442>
AnchorPoint: "Anchor-3" 244 -20 basechar 0
AnchorPoint: "Anchor-2" 453 0 basechar 0
AnchorPoint: "Anchor-0" 350 506 basechar 0
LayerCount: 2
Fore
SplineSet
0 0 m 1xd8
 97 486 l 1
 156 486 l 1xb8
 149 420 l 1
 152 420 l 1
 191 469 233 498 283 498 c 0
 328 498 354 474 356 419 c 1
 402 476 448 498 492 498 c 0
 539 498 568 471 568 413 c 0
 568 396 567 382 562 358 c 2
 490 0 l 1
 414 0 l 1
 484 348 l 2
 487 364 488 375 488 386 c 0
 488 419 476 432 454 432 c 0
 419 432 389 405 353 352 c 1
 282 0 l 1
 208 0 l 1
 280 348 l 2
 283 364 284 375 284 386 c 0
 284 419 270 432 249 432 c 0
 212 432 183 405 145 352 c 1
 76 0 l 1
 0 0 l 1xd8
EndSplineSet
Substitution2: "'sups' Superscript lookup 18 subtable" m.sups
EndChar

StartChar: n
Encoding: 110 110 41
Width: 600
GlyphClass: 2
Flags: MW
HStem: 0 21G<36 36 36 112 384 384 384 461> 432 66<361.5 399> 466 20G<133 195 195 195>
VStem: 451 79<363 381>
AnchorPoint: "Anchor-3" 255 -20 basechar 0
AnchorPoint: "Anchor-2" 421 0 basechar 0
AnchorPoint: "Anchor-0" 351 507 basechar 0
LayerCount: 2
Fore
SplineSet
36 0 m 1xd0
 133 486 l 1
 195 486 l 1xb0
 183 387 l 1
 187 387 l 1
 245 445 318 498 405 498 c 0
 491 498 530 450 530 377 c 0
 530 349 526 324 521 297 c 2
 461 0 l 1
 384 0 l 1
 442 289 l 2
 448 314 451 335 451 357 c 0
 451 405 424 432 374 432 c 0
 309 432 242 388 175 314 c 1
 112 0 l 1
 36 0 l 1xd0
EndSplineSet
Substitution2: "'sups' Superscript lookup 18 subtable" n.sups
EndChar

StartChar: o
Encoding: 111 111 42
Width: 600
GlyphClass: 2
Flags: MW
HStem: -12 64<214 306.5 214 324> 434 64<268.5 361.5>
VStem: 46 78<159 269 159 286> 452 77<217 327.5>
AnchorPoint: "Anchor-6" 239 0 basechar 0
AnchorPoint: "Anchor-5" 351 486 basechar 0
AnchorPoint: "Anchor-3" 234 -20 basechar 0
AnchorPoint: "Anchor-2" 239 0 basechar 0
AnchorPoint: "Anchor-0" 339 507 basechar 0
LayerCount: 2
Fore
SplineSet
250 -12 m 0
 122 -12 46 75 46 201 c 0
 46 371 177 498 326 498 c 0
 453 498 529 411 529 285 c 0
 529 115 398 -12 250 -12 c 0
255 52 m 0
 358 52 452 154 452 280 c 0
 452 375 403 434 320 434 c 0
 217 434 124 332 124 206 c 0
 124 112 173 52 255 52 c 0
EndSplineSet
Substitution2: "'sups' Superscript lookup 18 subtable" o.sups
EndChar

StartChar: p
Encoding: 112 112 43
Width: 600
GlyphClass: 2
Flags: MW
HStem: -205 21G<-5 -5 -5 71> -12 64<241.5 320.5 241.5 349.5> 434 64<337 379.5> 466 20G<133 196 196 196>
VStem: 458 79<228.5 341>
AnchorPoint: "Anchor-3" 36 -219 basechar 0
AnchorPoint: "Anchor-0" 361 507 basechar 0
LayerCount: 2
Fore
SplineSet
-5 -205 m 1xe8
 133 486 l 1
 196 486 l 1xd8
 188 411 l 1
 191 411 l 1
 242 458 303 498 371 498 c 0
 472 498 537 429 537 305 c 0
 537 129 429 -12 270 -12 c 0
 209 -12 154 17 123 58 c 1
 120 58 l 1
 102 -46 l 1
 71 -205 l 1
 -5 -205 l 1xe8
265 52 m 0
 376 52 458 163 458 294 c 0
 458 388 414 434 345 434 c 0
 296 434 233 399 181 340 c 1xe8
 137 122 l 1
 171 71 218 52 265 52 c 0
EndSplineSet
Substitution2: "'sups' Superscript lookup 18 subtable" p.sups
EndChar

StartChar: q
Encoding: 113 113 44
Width: 600
GlyphClass: 2
Flags: MW
HStem: -205 21G<339 339 339 415> -12 64<208 249> 434 64<273.5 352> 466 20G<492 553 553 553>
VStem: 52 79<140.5 251 140.5 261>
AnchorPoint: "Anchor-3" 373 -219 basechar 0
AnchorPoint: "Anchor-0" 355 507 basechar 0
LayerCount: 2
Fore
SplineSet
339 -205 m 1xe8
 372 -44 l 2
 374 -36 394 54 402 74 c 1
 398 74 l 1
 347 22 280 -12 218 -12 c 0
 118 -12 52 53 52 174 c 0
 52 348 171 498 319 498 c 0
 388 498 441 469 468 425 c 1
 472 425 l 1xe8
 492 486 l 1
 553 486 l 1xd8
 415 -205 l 1
 339 -205 l 1xe8
242 52 m 0
 295 52 356 85 409 146 c 1
 453 362 l 1
 420 413 375 434 329 434 c 0
 218 434 131 316 131 186 c 0
 131 95 174 52 242 52 c 0
EndSplineSet
Substitution2: "'sups' Superscript lookup 18 subtable" q.sups
EndChar

StartChar: r
Encoding: 114 114 45
Width: 600
GlyphClass: 2
Flags: MW
HStem: 0 21G<97 97 97 173> 428 70<415 460> 466 20G<194 257 257 257>
VStem: 97 458
AnchorPoint: "Anchor-3" 137 -20 basechar 0
AnchorPoint: "Anchor-2" 137 0 basechar 0
AnchorPoint: "Anchor-0" 376 507 basechar 0
LayerCount: 2
Fore
SplineSet
97 0 m 1xd0
 194 486 l 1
 257 486 l 1xb0
 236 347 l 1
 240 347 l 1
 294 430 373 498 457 498 c 0
 500 498 532 489 555 473 c 1
 525 407 l 1
 500 423 476 428 444 428 c 0
 369 428 291 357 224 253 c 1
 173 0 l 1
 97 0 l 1xd0
EndSplineSet
Substitution2: "'sups' Superscript lookup 18 subtable" r.sups
EndChar

StartChar: s
Encoding: 115 115 46
Width: 600
GlyphClass: 2
Flags: MW
HStem: -12 60<249 318 249 327> 438 60<270.5 338>
VStem: 128 73<346.5 390.5 346.5 406.5> 402 73<98 148.5>
AnchorPoint: "Anchor-3" 261 -20 basechar 0
AnchorPoint: "Anchor-2" 262 0 basechar 0
AnchorPoint: "Anchor-0" 337 507 basechar 0
LayerCount: 2
Fore
SplineSet
270 -12 m 0
 186 -12 102 23 55 77 c 1
 99 126 l 1
 147 72 214 48 284 48 c 0
 352 48 402 71 402 125 c 0
 402 172 355 191 274 218 c 0
 173 252 128 293 128 360 c 0
 128 453 211 498 310 498 c 0
 403 498 472 460 513 419 c 1
 470 372 l 1
 430 406 374 438 302 438 c 0
 239 438 201 412 201 369 c 0
 201 324 243 304 321 277 c 0
 412 246 475 214 475 135 c 0
 475 30 384 -12 270 -12 c 0
EndSplineSet
Substitution2: "'sups' Superscript lookup 18 subtable" s.sups
EndChar

StartChar: t
Encoding: 116 116 47
Width: 600
GlyphClass: 2
Flags: MW
HStem: -12 64<299.5 341> 424 62<74 231 231 291 304 531>
VStem: 159 78<112.5 137.5>
AnchorPoint: "Anchor-3" 308 -20 basechar 0
AnchorPoint: "Anchor-2" 308 0 basechar 0
AnchorPoint: "Anchor-0" 297 635 basechar 0
LayerCount: 2
Fore
SplineSet
307 -12 m 0
 205 -12 159 44 159 127 c 0
 159 148 163 167 167 190 c 2
 215 424 l 1
 74 424 l 1
 85 481 l 1
 231 486 l 1
 273 642 l 1
 336 642 l 1
 304 486 l 1
 544 486 l 1
 531 424 l 1
 291 424 l 1
 242 188 l 2
 238 170 237 157 237 143 c 0
 237 82 272 52 327 52 c 0
 375 52 418 68 453 87 c 1
 478 32 l 1
 436 6 375 -12 307 -12 c 0
EndSplineSet
Substitution2: "'sups' Superscript lookup 18 subtable" t.sups
EndChar

StartChar: u
Encoding: 117 117 48
Width: 600
GlyphClass: 2
Flags: MW
HStem: -12 66<186 225> 0 21G<389 452 389 389> 466 20G<125 201 201 201 472 549 549 549>
VStem: 56 78<105 123>
AnchorPoint: "Anchor-6" 394 0 basechar 0
AnchorPoint: "Anchor-3" 249 -20 basechar 0
AnchorPoint: "Anchor-2" 420 0 basechar 0
AnchorPoint: "Anchor-0" 337 507 basechar 0
LayerCount: 2
Fore
SplineSet
182 -12 m 0xb0
 95 -12 56 36 56 109 c 0
 56 137 60 162 65 189 c 2
 125 486 l 1
 201 486 l 1
 143 197 l 2
 138 172 134 151 134 129 c 0
 134 81 161 54 211 54 c 0xb0
 277 54 343 98 409 172 c 1
 472 486 l 1
 549 486 l 1
 452 0 l 1
 389 0 l 1x70
 402 99 l 1
 398 99 l 1
 339 42 268 -12 182 -12 c 0xb0
EndSplineSet
Substitution2: "'sups' Superscript lookup 18 subtable" u.sups
EndChar

StartChar: v
Encoding: 118 118 49
Width: 600
GlyphClass: 2
Flags: MW
HStem: 0 60<197 256 252 256 252 287> 466 20G<87 163 163 163 504 582 582 582>
VStem: 87 495<486 486>
AnchorPoint: "Anchor-3" 240 -20 basechar 0
AnchorPoint: "Anchor-0" 330 507 basechar 0
LayerCount: 2
Fore
SplineSet
197 0 m 1
 87 486 l 1
 163 486 l 1
 224 203 l 2
 234 156 242 106 252 60 c 1
 256 60 l 1
 279 106 307 154 337 204 c 2
 504 486 l 1
 582 486 l 1
 287 0 l 1
 197 0 l 1
EndSplineSet
Substitution2: "'sups' Superscript lookup 18 subtable" v.sups
EndChar

StartChar: w
Encoding: 119 119 50
Width: 600
GlyphClass: 2
Flags: MW
HStem: 0 66<58 127 123 127 123 158 378 382> 382 78<312 316 312 312> 466 20G<46 122 122 122 548 622 622 622>
VStem: 52 73 316 57 319 59
AnchorPoint: "Anchor-3" 240 -20 basechar 0
AnchorPoint: "Anchor-0" 330 508 basechar 0
LayerCount: 2
Fore
SplineSet
58 0 m 1xb4
 46 486 l 1
 122 486 l 1xb4
 125 199 l 2
 125 153 124 112 123 66 c 1
 127 66 l 1
 144 112 158 154 178 200 c 2
 290 460 l 1
 368 460 l 1xd8
 378 200 l 2
 380 153 378 112 378 66 c 1
 382 66 l 1
 400 112 414 152 432 199 c 2
 548 486 l 1
 622 486 l 1
 419 0 l 1
 322 0 l 1xb4
 316 250 l 2
 315 296 316 332 316 382 c 1
 312 382 l 1
 294 330 284 298 264 250 c 2xd8
 158 0 l 1
 58 0 l 1xb4
EndSplineSet
Substitution2: "'sups' Superscript lookup 18 subtable" w.sups
EndChar

StartChar: x
Encoding: 120 120 51
Width: 600
GlyphClass: 2
Flags: MW
HStem: 0 21G<10 10 10 100 388 388 388 470> 466 20G<119 199 199 199 464 554 554 554>
VStem: 10 544<0 486>
AnchorPoint: "Anchor-3" 242 -20 basechar 0
AnchorPoint: "Anchor-2" 426 0 basechar 0
AnchorPoint: "Anchor-0" 330 507 basechar 0
LayerCount: 2
Fore
SplineSet
10 0 m 1
 244 253 l 1
 119 486 l 1
 199 486 l 1
 257 375 l 2
 261 367 293 301 296 292 c 1
 300 292 l 1
 305 300 360 368 365 375 c 2
 464 486 l 1
 554 486 l 1
 331 246 l 1
 470 0 l 1
 388 0 l 1
 324 117 l 2
 321 125 285 191 280 201 c 1
 275 201 l 1
 268 190 215 130 208 121 c 2
 100 0 l 1
 10 0 l 1
EndSplineSet
Substitution2: "'sups' Superscript lookup 18 subtable" x.sups
EndChar

StartChar: y
Encoding: 121 121 52
Width: 600
GlyphClass: 2
Flags: MW
HStem: -209 21G<17.5 82.5> -209 59<27.5 68 27.5 82.5> -2 21G<208 208> 466 20G<87 161 161 161 503 583 583 583>
VStem: -44 627
AnchorPoint: "Anchor-6" 137 -141 basechar 0
AnchorPoint: "Anchor-3" 190 -219 basechar 0
AnchorPoint: "Anchor-0" 330 507 basechar 0
LayerCount: 2
Fore
SplineSet
33 -209 m 0x78
 2 -209 -24 -203 -44 -191 c 1xb8
 -20 -136 l 1
 -4 -144 17 -150 38 -150 c 0
 98 -150 131 -123 178 -50 c 2
 208 -2 l 1
 87 486 l 1
 161 486 l 1
 225 214 l 2
 234 171 246 110 254 66 c 1
 258 66 l 1
 281 110 315 171 340 214 c 2
 503 486 l 1
 583 486 l 1
 252 -52 l 2
 187 -159 132 -209 33 -209 c 0x78
EndSplineSet
Substitution2: "'sups' Superscript lookup 18 subtable" y.sups
EndChar

StartChar: z
Encoding: 122 122 53
Width: 600
GlyphClass: 2
Flags: MW
HStem: 0 62<149 463> 425 61<126 422 113 536>
VStem: 34 502<0 486>
AnchorPoint: "Anchor-3" 260 -20 basechar 0
AnchorPoint: "Anchor-2" 283 0 basechar 0
AnchorPoint: "Anchor-0" 334 507 basechar 0
LayerCount: 2
Fore
SplineSet
34 0 m 1
 42 46 l 1
 422 425 l 1
 113 425 l 1
 126 486 l 1
 536 486 l 1
 528 440 l 1
 149 62 l 1
 476 62 l 1
 463 0 l 1
 34 0 l 1
EndSplineSet
Substitution2: "'sups' Superscript lookup 18 subtable" z.sups
EndChar

StartChar: Agrave
Encoding: 192 192 54
Width: 600
Flags: MW
HStem: 0 21G<-23 -23 -23 62 423 423 423 503> 205 60<198 397 198 403 167 397> 591 65<362 366 362 362>
VStem: -23 526<0 0>
LayerCount: 2
Fore
SplineSet
256 379 m 2
 198 265 l 1
 397 265 l 1
 386 377 l 2
 379 447 373 521 366 591 c 1
 362 591 l 1
 325 519 292 452 256 379 c 2
-23 0 m 1
 333 656 l 1
 422 656 l 1
 503 0 l 1
 423 0 l 1
 403 205 l 1
 167 205 l 1
 62 0 l 1
 -23 0 l 1
401 693 m 1
 267 820 l 1
 322 870 l 1
 444 730 l 1
 401 693 l 1
EndSplineSet
EndChar

StartChar: Aacute
Encoding: 193 193 55
Width: 600
GlyphClass: 2
Flags: MW
HStem: 0 21G<-23 -23 -23 62 423 423 423 503> 205 60<198 397 198 403 167 397> 591 65<362 366 362 362>
VStem: -23 552
AnchorPoint: "Anchor-6" 448 0 basechar 0
LayerCount: 2
Fore
SplineSet
256 379 m 2
 198 265 l 1
 397 265 l 1
 386 377 l 2
 379 447 373 521 366 591 c 1
 362 591 l 1
 325 519 292 452 256 379 c 2
-23 0 m 1
 333 656 l 1
 422 656 l 1
 503 0 l 1
 423 0 l 1
 403 205 l 1
 167 205 l 1
 62 0 l 1
 -23 0 l 1
357 703 m 1
 327 747 l 1
 492 863 l 1
 529 803 l 1
 357 703 l 1
EndSplineSet
EndChar

StartChar: Acircumflex
Encoding: 194 194 56
Width: 600
Flags: MW
HStem: 0 21G<-23 -23 -23 62 423 423 423 503> 205 60<198 397 198 403 167 397> 591 65<362 366 362 362> 797 49<395 399 395 395>
VStem: -23 556
LayerCount: 2
Fore
SplineSet
256 379 m 2
 198 265 l 1
 397 265 l 1
 386 377 l 2
 379 447 373 521 366 591 c 1
 362 591 l 1
 325 519 292 452 256 379 c 2
-23 0 m 1
 333 656 l 1
 422 656 l 1
 503 0 l 1
 423 0 l 1
 403 205 l 1
 167 205 l 1
 62 0 l 1
 -23 0 l 1
261 699 m 1
 228 727 l 1
 358 846 l 1
 445 846 l 1
 533 725 l 1
 495 700 l 1
 399 797 l 1
 395 797 l 1
 261 699 l 1
EndSplineSet
EndChar

StartChar: Atilde
Encoding: 195 195 57
Width: 600
Flags: MW
HStem: 0 21G<-23 -23 -23 62 423 423 423 503> 205 60<198 397 198 403 167 397> 591 65<362 366 362 362> 698 20G<209 209> 709 60<440.5 476 440.5 484> 781 60<310.5 345.5>
VStem: -23 600
LayerCount: 2
Fore
SplineSet
256 379 m 2xf6
 198 265 l 1
 397 265 l 1
 386 377 l 2
 379 447 373 521 366 591 c 1
 362 591 l 1
 325 519 292 452 256 379 c 2xf6
-23 0 m 1
 333 656 l 1
 422 656 l 1
 503 0 l 1
 423 0 l 1
 403 205 l 1
 167 205 l 1
 62 0 l 1
 -23 0 l 1
454 709 m 0xee
 386 709 368 781 323 781 c 0
 298 781 276 757 263 714 c 1
 209 718 l 1xf6
 225 796 272 841 332 841 c 0
 401 841 418 769 463 769 c 0
 489 769 510 792 523 836 c 1
 577 832 l 1
 561 753 514 709 454 709 c 0xee
EndSplineSet
EndChar

StartChar: Adieresis
Encoding: 196 196 58
Width: 600
GlyphClass: 2
Flags: MW
HStem: 0 21G<-23 -23 -23 62 423 423 423 503> 205 60<198 397 198 403 167 397> 591 65<362 366 362 362> 715 95<289.5 307 475 493>
VStem: 253 90<755 769.5> 439 90<755 769.5>
AnchorPoint: "Anchor-6" 448 0 basechar 0
LayerCount: 2
Fore
SplineSet
256 379 m 2
 198 265 l 1
 397 265 l 1
 386 377 l 2
 379 447 373 521 366 591 c 1
 362 591 l 1
 325 519 292 452 256 379 c 2
-23 0 m 1
 333 656 l 1
 422 656 l 1
 503 0 l 1
 423 0 l 1
 403 205 l 1
 167 205 l 1
 62 0 l 1
 -23 0 l 1
293 715 m 0
 270 715 253 730 253 755 c 0
 253 784 276 810 303 810 c 0
 326 810 343 795 343 769 c 0
 343 741 321 715 293 715 c 0
479 715 m 0
 455 715 439 730 439 755 c 0
 439 784 461 810 489 810 c 0
 512 810 529 795 529 769 c 0
 529 741 507 715 479 715 c 0
EndSplineSet
EndChar

StartChar: Amacron
Encoding: 256 256 59
Width: 600
Flags: MW
HStem: 0 21G<-23 -23 -23 62 423 423 423 503> 205 60<198 397 198 403 167 397> 591 65<362 366 362 362> 729 54<256 523 267 512>
VStem: -23 546
LayerCount: 2
Fore
SplineSet
256 379 m 2
 198 265 l 1
 397 265 l 1
 386 377 l 2
 379 447 373 521 366 591 c 1
 362 591 l 1
 325 519 292 452 256 379 c 2
-23 0 m 1
 333 656 l 1
 422 656 l 1
 503 0 l 1
 423 0 l 1
 403 205 l 1
 167 205 l 1
 62 0 l 1
 -23 0 l 1
256 729 m 1
 267 783 l 1
 523 783 l 1
 512 729 l 1
 256 729 l 1
EndSplineSet
EndChar

StartChar: Abreve
Encoding: 258 258 60
Width: 600
Flags: MW
HStem: 0 21G<-23 -23 -23 62 423 423 423 503> 205 60<198 397 198 403 167 397> 591 65<362 366 362 362> 705 53<359 416.5 359 424.5>
VStem: 254 52<838 846>
LayerCount: 2
Fore
SplineSet
256 379 m 2
 198 265 l 1
 397 265 l 1
 386 377 l 2
 379 447 373 521 366 591 c 1
 362 591 l 1
 325 519 292 452 256 379 c 2
-23 0 m 1
 333 656 l 1
 422 656 l 1
 503 0 l 1
 423 0 l 1
 403 205 l 1
 167 205 l 1
 62 0 l 1
 -23 0 l 1
377 705 m 0
 285 705 250 765 254 838 c 1
 306 846 l 1
 304 796 330 758 388 758 c 0
 445 758 482 797 500 846 c 1
 549 838 l 1
 528 765 472 705 377 705 c 0
EndSplineSet
EndChar

StartChar: Aring
Encoding: 197 197 61
Width: 600
GlyphClass: 2
Flags: MW
HStem: 0 21G<-23 -23 -23 62 423 423 423 503> 205 60<198 397 198 403 167 397> 591 65<362 366 362 362> 700 36<375.5 404.5 375.5 417> 842 36<388.5 418>
VStem: 300 46<768 798.5 768 806> 447 46<778.5 809>
AnchorPoint: "Anchor-6" 448 0 basechar 0
LayerCount: 2
Fore
SplineSet
256 379 m 2
 198 265 l 1
 397 265 l 1
 386 377 l 2
 379 447 373 521 366 591 c 1
 362 591 l 1
 325 519 292 452 256 379 c 2
-23 0 m 1
 333 656 l 1
 422 656 l 1
 503 0 l 1
 423 0 l 1
 403 205 l 1
 167 205 l 1
 62 0 l 1
 -23 0 l 1
387 700 m 0
 341 700 300 725 300 779 c 0
 300 833 347 878 406 878 c 0
 452 878 493 852 493 799 c 0
 493 743 447 700 387 700 c 0
389 736 m 0
 420 736 447 762 447 795 c 0
 447 823 432 842 404 842 c 0
 373 842 346 815 346 782 c 0
 346 754 362 736 389 736 c 0
EndSplineSet
EndChar

StartChar: Aringacute
Encoding: 506 506 62
Width: 600
Flags: MW
HStem: 0 21G<-23 -23 -23 62 423 423 423 503> 205 60<198 397 198 403 167 397> 591 65<362 366 362 362> 700 36<375.5 404.5 375.5 417>
VStem: 300 46<768 796.5> 447 46<778.5 809>
LayerCount: 2
Fore
SplineSet
256 379 m 2
 198 265 l 1
 397 265 l 1
 386 377 l 2
 379 447 373 521 366 591 c 1
 362 591 l 1
 325 519 292 452 256 379 c 2
-23 0 m 1
 333 656 l 1
 422 656 l 1
 503 0 l 1
 423 0 l 1
 403 205 l 1
 167 205 l 1
 62 0 l 1
 -23 0 l 1
387 700 m 0
 341 700 300 725 300 779 c 0
 300 814 319 845 349 862 c 2
 493 966 l 1
 529 920 l 1
 442 872 l 1
 471 862 493 838 493 799 c 0
 493 743 447 700 387 700 c 0
389 736 m 0
 420 736 447 762 447 795 c 0
 447 823 432 842 404 842 c 0
 373 842 346 815 346 782 c 0
 346 754 362 736 389 736 c 0
EndSplineSet
EndChar

StartChar: uni01CD
Encoding: 461 461 63
Width: 600
Flags: MW
HStem: 0 21G<-23 -23 -23 62 423 423 423 503> 205 60<198 397 198 403 167 397> 591 65<362 366 362 362> 706 50<341 391 387 391 387 428>
VStem: -23 581
LayerCount: 2
Fore
SplineSet
256 379 m 2
 198 265 l 1
 397 265 l 1
 386 377 l 2
 379 447 373 521 366 591 c 1
 362 591 l 1
 325 519 292 452 256 379 c 2
-23 0 m 1
 333 656 l 1
 422 656 l 1
 503 0 l 1
 423 0 l 1
 403 205 l 1
 167 205 l 1
 62 0 l 1
 -23 0 l 1
341 706 m 1
 253 827 l 1
 291 852 l 1
 387 756 l 1
 391 756 l 1
 525 853 l 1
 558 825 l 1
 428 706 l 1
 341 706 l 1
EndSplineSet
EndChar

StartChar: Aogonek
Encoding: 260 260 64
Width: 600
GlyphClass: 2
Flags: MW
HStem: -225 53<429.5 436> 0 21G<-23 62 -23 -23 423 439 423 423 503 503> 205 60<198 397 198 403 167 397> 591 65<362 366 362 362>
VStem: 326 64<-141.5 -116.5>
AnchorPoint: "Anchor-0" 373 676 basechar 0
LayerCount: 2
Fore
SplineSet
419 -225 m 0
 369 -225 326 -202 326 -150 c 0
 326 -83 388 -29 439 0 c 1
 423 0 l 1
 403 205 l 1
 167 205 l 1
 62 0 l 1
 -23 0 l 1
 333 656 l 1
 422 656 l 1
 503 0 l 1
 444 -27 390 -79 390 -126 c 0
 390 -157 414 -172 445 -172 c 0
 462 -172 477 -166 491 -156 c 1
 510 -195 l 1
 487 -213 453 -225 419 -225 c 0
256 379 m 2
 198 265 l 1
 397 265 l 1
 386 377 l 2
 379 447 373 520 366 591 c 1
 362 591 l 1
 325 518 293 452 256 379 c 2
EndSplineSet
Ligature2: "'ccmp' Glyph Composition/Decomposition lookup 12 subtable" A uni0328
EndChar

StartChar: uni1EA0
Encoding: 7840 7840 65
Width: 600
Flags: MW
HStem: -236 122<208.5 234> 0 21G<-23 -23 -23 62 423 423 423 503> 205 60<198 397 198 403 167 397> 591 65<362 366 362 362>
VStem: 158 127<-186.5 -164>
LayerCount: 2
Fore
SplineSet
256 379 m 2
 198 265 l 1
 397 265 l 1
 386 377 l 2
 379 447 373 521 366 591 c 1
 362 591 l 1
 325 519 292 452 256 379 c 2
-23 0 m 1
 333 656 l 1
 422 656 l 1
 503 0 l 1
 423 0 l 1
 403 205 l 1
 167 205 l 1
 62 0 l 1
 -23 0 l 1
215 -236 m 0
 183 -236 158 -217 158 -183 c 0
 158 -145 190 -114 227 -114 c 0
 262 -114 285 -133 285 -167 c 0
 285 -206 253 -236 215 -236 c 0
EndSplineSet
EndChar

StartChar: uni1EA2
Encoding: 7842 7842 66
Width: 600
Flags: MW
HStem: 0 21G<-23 -23 -23 62 423 423 423 503> 205 60<198 397 198 403 167 397> 591 65<362 366 362 362> 824 48<317 335>
VStem: -23 526<0 0>
LayerCount: 2
Fore
SplineSet
256 379 m 2
 198 265 l 1
 397 265 l 1
 386 377 l 2
 379 447 373 521 366 591 c 1
 362 591 l 1
 325 519 292 452 256 379 c 2
-23 0 m 1
 333 656 l 1
 422 656 l 1
 503 0 l 1
 423 0 l 1
 403 205 l 1
 167 205 l 1
 62 0 l 1
 -23 0 l 1
330 698 m 1
 328 736 l 1
 361 745 388 757 392 782 c 0
 397 808 371 822 317 824 c 1
 335 872 l 1
 422 869 467 842 458 791 c 0
 447 733 389 708 330 698 c 1
EndSplineSet
EndChar

StartChar: uni1EA4
Encoding: 7844 7844 67
Width: 600
Flags: MW
HStem: 0 21G<-23 -23 -23 62 423 423 423 503> 205 60<198 397 198 403 167 397> 591 65<362 366 362 362> 704 20G<512 512> 768 47<392 396 392 392>
VStem: -23 646
LayerCount: 2
Fore
SplineSet
256 379 m 2
 198 265 l 1
 397 265 l 1
 386 377 l 2
 379 447 373 521 366 591 c 1
 362 591 l 1
 325 519 292 452 256 379 c 2
-23 0 m 1
 333 656 l 1
 422 656 l 1
 503 0 l 1
 423 0 l 1
 403 205 l 1
 167 205 l 1
 62 0 l 1
 -23 0 l 1
284 699 m 1
 254 725 l 1
 363 815 l 1
 436 815 l 1
 512 724 l 1
 475 699 l 1
 396 768 l 1
 392 768 l 1
 284 699 l 1
507 768 m 1
 483 801 l 1
 597 884 l 1
 623 843 l 1
 507 768 l 1
EndSplineSet
EndChar

StartChar: uni1EA6
Encoding: 7846 7846 68
Width: 600
Flags: MW
HStem: 0 21G<-23 -23 -23 62 423 423 423 503> 205 60<198 397 198 403 167 397> 591 65<362 366 362 362> 704 20G<512 512> 768 47<392 396 392 392>
VStem: -23 535
LayerCount: 2
Fore
SplineSet
256 379 m 2
 198 265 l 1
 397 265 l 1
 386 377 l 2
 379 447 373 521 366 591 c 1
 362 591 l 1
 325 519 292 452 256 379 c 2
-23 0 m 1
 333 656 l 1
 422 656 l 1
 503 0 l 1
 423 0 l 1
 403 205 l 1
 167 205 l 1
 62 0 l 1
 -23 0 l 1
284 699 m 1
 254 725 l 1
 363 815 l 1
 436 815 l 1
 512 724 l 1
 475 699 l 1
 396 768 l 1
 392 768 l 1
 284 699 l 1
278 774 m 1
 190 855 l 1
 229 890 l 1
 312 801 l 1
 278 774 l 1
EndSplineSet
EndChar

StartChar: uni1EA8
Encoding: 7848 7848 69
Width: 600
Flags: MW
HStem: 0 21G<-23 -23 -23 62 423 423 423 503> 205 60<198 397 198 403 167 397> 591 65<362 366 362 362> 704 20G<512 512> 768 47<392 396 392 392> 865 41<486 499>
VStem: -23 631
LayerCount: 2
Fore
SplineSet
256 379 m 2
 198 265 l 1
 397 265 l 1
 386 377 l 2
 379 447 373 521 366 591 c 1
 362 591 l 1
 325 519 292 452 256 379 c 2
-23 0 m 1
 333 656 l 1
 422 656 l 1
 503 0 l 1
 423 0 l 1
 403 205 l 1
 167 205 l 1
 62 0 l 1
 -23 0 l 1
284 699 m 1
 254 725 l 1
 363 815 l 1
 436 815 l 1
 512 724 l 1
 475 699 l 1
 396 768 l 1
 392 768 l 1
 284 699 l 1
502 756 m 1
 498 789 l 1
 524 795 545 804 549 825 c 0
 554 852 535 863 486 865 c 1
 499 906 l 1
 577 903 617 879 607 833 c 0
 599 783 551 763 502 756 c 1
EndSplineSet
EndChar

StartChar: uni1EAA
Encoding: 7850 7850 70
Width: 600
Flags: MW
HStem: 0 21G<-23 -23 -23 62 423 423 423 503> 205 60<198 397 198 403 167 397> 591 65<362 366 362 362> 704 20G<512 512> 765 47<391 395 391 391> 839 51<453.5 485.5 453.5 495.5> 889 50<338 370.5>
VStem: -23 587
LayerCount: 2
Fore
SplineSet
256 379 m 2xfb
 198 265 l 1
 397 265 l 1
 386 377 l 2
 379 447 373 521 366 591 c 1
 362 591 l 1
 325 519 292 452 256 379 c 2xfb
-23 0 m 1
 333 656 l 1
 422 656 l 1
 503 0 l 1
 423 0 l 1
 403 205 l 1
 167 205 l 1
 62 0 l 1
 -23 0 l 1
283 699 m 1
 254 725 l 1
 363 812 l 1
 435 812 l 1
 512 724 l 1
 474 699 l 1
 395 765 l 1
 391 765 l 1
 283 699 l 1
468 839 m 0xfd
 405 839 391 889 350 889 c 0
 326 889 313 872 303 843 c 1
 260 848 l 1
 271 899 300 939 355 939 c 0xfb
 418 939 433 890 474 890 c 0
 497 890 510 907 520 936 c 1
 564 931 l 1
 552 879 523 839 468 839 c 0xfd
EndSplineSet
EndChar

StartChar: uni1EAC
Encoding: 7852 7852 71
Width: 600
Flags: MW
HStem: -236 122<208.5 234> 0 21G<-23 -23 -23 62 423 423 423 503> 205 60<198 397 198 403 167 397> 591 65<362 366 362 362> 797 49<395 399 395 395>
VStem: 158 127<-186.5 -164>
LayerCount: 2
Fore
SplineSet
256 379 m 2
 198 265 l 1
 397 265 l 1
 386 377 l 2
 379 447 373 521 366 591 c 1
 362 591 l 1
 325 519 292 452 256 379 c 2
-23 0 m 1
 333 656 l 1
 422 656 l 1
 503 0 l 1
 423 0 l 1
 403 205 l 1
 167 205 l 1
 62 0 l 1
 -23 0 l 1
261 699 m 1
 228 727 l 1
 358 846 l 1
 445 846 l 1
 533 725 l 1
 495 700 l 1
 399 797 l 1
 395 797 l 1
 261 699 l 1
215 -236 m 0
 183 -236 158 -217 158 -183 c 0
 158 -145 190 -114 227 -114 c 0
 262 -114 285 -133 285 -167 c 0
 285 -206 253 -236 215 -236 c 0
EndSplineSet
EndChar

StartChar: uni1EAE
Encoding: 7854 7854 72
Width: 600
Flags: MW
HStem: 0 21G<-23 -23 -23 62 423 423 423 503> 205 60<198 397 198 403 167 397> 591 65<362 366 362 362> 705 49<357.5 416 357.5 424>
VStem: 255 48<834 834>
LayerCount: 2
Fore
SplineSet
256 379 m 2
 198 265 l 1
 397 265 l 1
 386 377 l 2
 379 447 373 521 366 591 c 1
 362 591 l 1
 325 519 292 452 256 379 c 2
-23 0 m 1
 333 656 l 1
 422 656 l 1
 503 0 l 1
 423 0 l 1
 403 205 l 1
 167 205 l 1
 62 0 l 1
 -23 0 l 1
377 705 m 0
 286 705 251 764 255 834 c 1
 303 842 l 1
 303 793 328 754 387 754 c 0
 445 754 484 793 502 842 c 1
 547 834 l 1
 528 764 471 705 377 705 c 0
396 820 m 1
 360 852 l 1
 476 958 l 1
 522 918 l 1
 396 820 l 1
EndSplineSet
EndChar

StartChar: uni1EB0
Encoding: 7856 7856 73
Width: 600
Flags: MW
HStem: 0 21G<-23 -23 -23 62 423 423 423 503> 205 60<198 397 198 403 167 397> 591 65<362 366 362 362> 705 49<357.5 416 357.5 424>
VStem: 255 48<834 834>
LayerCount: 2
Fore
SplineSet
256 379 m 2
 198 265 l 1
 397 265 l 1
 386 377 l 2
 379 447 373 521 366 591 c 1
 362 591 l 1
 325 519 292 452 256 379 c 2
-23 0 m 1
 333 656 l 1
 422 656 l 1
 503 0 l 1
 423 0 l 1
 403 205 l 1
 167 205 l 1
 62 0 l 1
 -23 0 l 1
377 705 m 0
 286 705 251 764 255 834 c 1
 303 842 l 1
 303 793 328 754 387 754 c 0
 445 754 484 793 502 842 c 1
 547 834 l 1
 528 764 471 705 377 705 c 0
403 814 m 1
 315 931 l 1
 372 962 l 1
 446 839 l 1
 403 814 l 1
EndSplineSet
EndChar

StartChar: uni1EB2
Encoding: 7858 7858 74
Width: 600
Flags: MW
HStem: 0 21G<-23 -23 -23 62 423 423 423 503> 205 60<198 397 198 403 167 397> 591 65<362 366 362 362> 705 49<357.5 416.5 357.5 424> 910 42<358 375>
VStem: 256 48<834 842>
LayerCount: 2
Fore
SplineSet
256 379 m 2
 198 265 l 1
 397 265 l 1
 386 377 l 2
 379 447 373 521 366 591 c 1
 362 591 l 1
 325 519 292 452 256 379 c 2
-23 0 m 1
 333 656 l 1
 422 656 l 1
 503 0 l 1
 423 0 l 1
 403 205 l 1
 167 205 l 1
 62 0 l 1
 -23 0 l 1
377 705 m 0
 286 705 252 764 256 834 c 1
 304 842 l 1
 303 793 328 754 387 754 c 0
 446 754 484 793 503 842 c 1
 548 834 l 1
 528 764 471 705 377 705 c 0
373 800 m 1
 369 835 l 1
 395 841 417 850 421 871 c 0
 426 897 406 907 358 910 c 1
 375 952 l 1
 452 949 490 926 481 879 c 0
 471 828 423 808 373 800 c 1
EndSplineSet
EndChar

StartChar: uni1EB4
Encoding: 7860 7860 75
Width: 600
Flags: MW
HStem: 0 21G<-23 -23 -23 62 423 423 423 503> 205 60<198 397 198 403 167 397> 591 65<362 366 362 362> 708 45<356 417.5 356 425> 843 50<454.5 487> 893 50<338 370.5>
VStem: 255 47<814 822>
LayerCount: 2
Fore
SplineSet
256 379 m 2xf6
 198 265 l 1
 397 265 l 1
 386 377 l 2
 379 447 373 521 366 591 c 1
 362 591 l 1
 325 519 292 452 256 379 c 2xf6
-23 0 m 1
 333 656 l 1
 422 656 l 1
 503 0 l 1
 423 0 l 1
 403 205 l 1
 167 205 l 1
 62 0 l 1
 -23 0 l 1
379 708 m 0
 286 708 251 758 255 814 c 1
 302 822 l 1
 303 786 325 753 387 753 c 0
 448 753 482 786 496 822 c 1
 542 814 l 1
 524 758 471 708 379 708 c 0
469 843 m 0xfa
 406 843 391 893 350 893 c 0
 326 893 313 876 304 846 c 1
 260 851 l 1
 272 903 301 943 356 943 c 0xf6
 419 943 434 893 475 893 c 0
 499 893 512 910 521 939 c 1
 565 934 l 1
 553 883 524 843 469 843 c 0xfa
EndSplineSet
EndChar

StartChar: uni1EB6
Encoding: 7862 7862 76
Width: 600
Flags: MW
HStem: -236 122<208.5 234> 0 21G<-23 -23 -23 62 423 423 423 503> 205 60<198 397 198 403 167 397> 591 65<362 366 362 362> 705 53<359 416.5 359 424.5>
VStem: 158 127<-186.5 -164> 254 52<838 846>
LayerCount: 2
Fore
SplineSet
256 379 m 2x7a
 198 265 l 1
 397 265 l 1
 386 377 l 2
 379 447 373 521 366 591 c 1
 362 591 l 1
 325 519 292 452 256 379 c 2x7a
-23 0 m 1
 333 656 l 1
 422 656 l 1
 503 0 l 1
 423 0 l 1
 403 205 l 1
 167 205 l 1
 62 0 l 1
 -23 0 l 1
377 705 m 0
 285 705 250 765 254 838 c 1
 306 846 l 1
 304 796 330 758 388 758 c 0
 445 758 482 797 500 846 c 1
 549 838 l 1
 528 765 472 705 377 705 c 0
215 -236 m 0xfc
 183 -236 158 -217 158 -183 c 0
 158 -145 190 -114 227 -114 c 0
 262 -114 285 -133 285 -167 c 0
 285 -206 253 -236 215 -236 c 0xfc
EndSplineSet
EndChar

StartChar: AE
Encoding: 198 198 77
Width: 600
GlyphClass: 2
Flags: MW
HStem: 0 66<340 528> 197 61<171 296 135 309> 314 65<402 543 389 556> 591 65<445 636 445 445> 596 60<371 376 371 371>
VStem: -62 711<0 656>
AnchorPoint: "Anchor-3" 293 -20 basechar 0
AnchorPoint: "Anchor-2" 411 0 basechar 0
AnchorPoint: "Anchor-0" 485 676 basechar 0
LayerCount: 2
Fore
SplineSet
243 380 m 2xf4
 171 258 l 1
 309 258 l 1
 376 596 l 1
 371 596 l 1xec
 329 523 286 452 243 380 c 2xf4
-62 0 m 1
 337 656 l 1
 649 656 l 1
 636 591 l 1
 445 591 l 1xf4
 402 379 l 1
 556 379 l 1
 543 314 l 1
 389 314 l 1
 340 66 l 1
 541 66 l 1
 528 0 l 1
 257 0 l 1
 296 197 l 1
 135 197 l 1
 19 0 l 1
 -62 0 l 1
EndSplineSet
EndChar

StartChar: AEacute
Encoding: 508 508 78
Width: 600
Flags: MW
HStem: 0 66<340 528> 197 61<171 296 135 309> 314 65<402 543 389 556> 591 65<445 636 445 445>
VStem: -62 711<0 656>
LayerCount: 2
Fore
SplineSet
243 380 m 2
 171 258 l 1
 309 258 l 1
 376 596 l 1
 371 596 l 1
 329 523 286 452 243 380 c 2
-62 0 m 1
 337 656 l 1
 649 656 l 1
 636 591 l 1
 445 591 l 1
 402 379 l 1
 556 379 l 1
 543 314 l 1
 389 314 l 1
 340 66 l 1
 541 66 l 1
 528 0 l 1
 257 0 l 1
 296 197 l 1
 135 197 l 1
 19 0 l 1
 -62 0 l 1
470 703 m 1
 440 747 l 1
 605 863 l 1
 642 803 l 1
 470 703 l 1
EndSplineSet
EndChar

StartChar: uni01E2
Encoding: 482 482 79
Width: 600
Flags: MW
HStem: 0 66<340 528> 197 61<171 296 135 309> 314 65<402 543 389 556> 591 65<445 636 445 445> 729 54<369 636 380 625>
VStem: -62 711<0 656>
LayerCount: 2
Fore
SplineSet
243 380 m 2
 171 258 l 1
 309 258 l 1
 376 596 l 1
 371 596 l 1
 329 523 286 452 243 380 c 2
-62 0 m 1
 337 656 l 1
 649 656 l 1
 636 591 l 1
 445 591 l 1
 402 379 l 1
 556 379 l 1
 543 314 l 1
 389 314 l 1
 340 66 l 1
 541 66 l 1
 528 0 l 1
 257 0 l 1
 296 197 l 1
 135 197 l 1
 19 0 l 1
 -62 0 l 1
369 729 m 1
 380 783 l 1
 636 783 l 1
 625 729 l 1
 369 729 l 1
EndSplineSet
EndChar

StartChar: uni0243
Encoding: 579 579 80
Width: 600
Flags: MW
HStem: 0 66<131 240 131 240> 172 56<-2 88 165 302> 318 66<195 282 282 290 184 282> 590 67<238 320 238 238>
VStem: 445 77<163 251> 467 80<482 536>
LayerCount: 2
Fore
SplineSet
42 0 m 1xf8
 77 172 l 1
 -2 172 l 1
 12 224 l 1
 88 228 l 1
 174 657 l 1
 344 657 l 2
 459 657 547 611 547 522 c 0xf4
 547 442 498 374 398 352 c 1
 396 348 l 1
 468 334 522 292 522 213 c 0
 522 67 406 0 240 0 c 2
 42 0 l 1xf8
131 66 m 1
 240 66 l 2
 375 66 445 110 445 216 c 0xf8
 445 286 385 318 290 318 c 2
 184 318 l 1
 165 228 l 1
 316 228 l 1
 302 172 l 1
 153 172 l 1
 131 66 l 1
195 384 m 1
 282 384 l 2
 415 384 467 425 467 506 c 0xf4
 467 566 413 590 320 590 c 2
 238 590 l 1
 195 384 l 1
EndSplineSet
EndChar

StartChar: uni1E06
Encoding: 7686 7686 81
Width: 600
Flags: MW
HStem: -187 54<90 355 100 345> 0 66<132 242 242 248> 312 66<194 284 284 294 182 284> 590 66<238 324 238 238>
VStem: 444 76<155 239> 467 80<466.5 530>
LayerCount: 2
Fore
SplineSet
41 0 m 1xf8
 173 656 l 1
 343 656 l 2
 474 656 547 606 547 511 c 0xf4
 547 422 473 363 400 347 c 1
 400 343 l 1
 467 327 520 285 520 210 c 0
 520 64 403 0 248 0 c 2
 41 0 l 1xf8
194 378 m 1
 284 378 l 2
 408 378 467 426 467 500 c 0
 467 560 428 590 324 590 c 2
 238 590 l 1
 194 378 l 1
132 66 m 1
 242 66 l 2
 366 66 444 104 444 206 c 0xf8
 444 272 391 312 294 312 c 2
 182 312 l 1
 132 66 l 1
90 -187 m 1
 100 -133 l 1
 355 -133 l 1
 345 -187 l 1
 90 -187 l 1
EndSplineSet
EndChar

StartChar: Ccedilla
Encoding: 199 199 82
Width: 600
Flags: MW
HStem: -226 39<157 158> -12 67<312 349.5 265.5 350.5> -8 21G<260 260> 601 67<334 437>
VStem: 77 80<200.5 339.5> 275 64
LayerCount: 2
Fore
SplineSet
158 -226 m 1xdc
 157 -187 l 1
 237 -184 273 -165 275 -133 c 0
 276 -108 257 -95 206 -90 c 1
 260 -8 l 1xbc
 142 14 77 114 77 253 c 0
 77 459 213 668 416 668 c 0
 491 668 545 628 578 571 c 1
 523 530 l 1
 497 574 462 601 412 601 c 0
 256 601 157 419 157 260 c 0
 157 141 207 55 324 55 c 0
 375 55 420 78 463 114 c 1
 499 64 l 1
 450 22 389 -12 312 -12 c 1
 279 -65 l 1
 327 -77 341 -95 339 -128 c 0
 334 -191 264 -224 158 -226 c 1xdc
EndSplineSet
EndChar

StartChar: Cacute
Encoding: 262 262 83
Width: 600
Flags: MW
HStem: -12 67<265.5 349.5 265.5 349.5> 601 67<334 437>
VStem: 77 80<200.5 339.5 200.5 356>
LayerCount: 2
Fore
SplineSet
310 -12 m 0
 160 -12 77 96 77 253 c 0
 77 459 213 668 416 668 c 0
 491 668 545 628 578 571 c 1
 523 530 l 1
 497 574 462 601 412 601 c 0
 256 601 157 419 157 260 c 0
 157 141 207 55 324 55 c 0
 375 55 420 78 463 114 c 1
 499 64 l 1
 450 22 389 -12 310 -12 c 0
392 703 m 1
 362 747 l 1
 527 863 l 1
 564 803 l 1
 392 703 l 1
EndSplineSet
EndChar

StartChar: Ccircumflex
Encoding: 264 264 84
Width: 600
Flags: MW
HStem: -12 67<265.5 349.5 265.5 349.5> 601 67<334 437> 797 49<430 434 430 430>
VStem: 77 80<200.5 339.5 200.5 356>
LayerCount: 2
Fore
SplineSet
310 -12 m 0
 160 -12 77 96 77 253 c 0
 77 459 213 668 416 668 c 0
 491 668 545 628 578 571 c 1
 523 530 l 1
 497 574 462 601 412 601 c 0
 256 601 157 419 157 260 c 0
 157 141 207 55 324 55 c 0
 375 55 420 78 463 114 c 1
 499 64 l 1
 450 22 389 -12 310 -12 c 0
296 699 m 1
 263 727 l 1
 393 846 l 1
 480 846 l 1
 568 725 l 1
 530 700 l 1
 434 797 l 1
 430 797 l 1
 296 699 l 1
EndSplineSet
EndChar

StartChar: Ccaron
Encoding: 268 268 85
Width: 600
Flags: MW
HStem: -12 67<265.5 349.5 265.5 349.5> 601 67<334 437> 706 50<376 426 422 426 422 463>
VStem: 77 80<200.5 339.5 200.5 356>
LayerCount: 2
Fore
SplineSet
310 -12 m 0
 160 -12 77 96 77 253 c 0
 77 459 213 668 416 668 c 0
 491 668 545 628 578 571 c 1
 523 530 l 1
 497 574 462 601 412 601 c 0
 256 601 157 419 157 260 c 0
 157 141 207 55 324 55 c 0
 375 55 420 78 463 114 c 1
 499 64 l 1
 450 22 389 -12 310 -12 c 0
376 706 m 1
 288 827 l 1
 326 852 l 1
 422 756 l 1
 426 756 l 1
 560 853 l 1
 593 825 l 1
 463 706 l 1
 376 706 l 1
EndSplineSet
EndChar

StartChar: Cdotaccent
Encoding: 266 266 86
Width: 600
Flags: MW
HStem: -12 67<265.5 349.5 265.5 349.5> 601 67<334 437> 716 103<415.5 437.5>
VStem: 77 80<200.5 339.5 200.5 356> 373 107<756.5 777>
LayerCount: 2
Fore
SplineSet
310 -12 m 0
 160 -12 77 96 77 253 c 0
 77 459 213 668 416 668 c 0
 491 668 545 628 578 571 c 1
 523 530 l 1
 497 574 462 601 412 601 c 0
 256 601 157 419 157 260 c 0
 157 141 207 55 324 55 c 0
 375 55 420 78 463 114 c 1
 499 64 l 1
 450 22 389 -12 310 -12 c 0
422 716 m 0
 396 716 373 732 373 761 c 0
 373 793 400 819 431 819 c 0
 457 819 480 802 480 773 c 0
 480 740 453 716 422 716 c 0
EndSplineSet
EndChar

StartChar: Dcaron
Encoding: 270 270 87
Width: 600
Flags: MW
HStem: 0 64<112 199 112 199> 593 63<218 281 218 218> 706 50<332 382 378 382 378 419>
VStem: 477 80<294 458>
LayerCount: 2
Fore
SplineSet
22 0 m 1
 153 656 l 1
 284 656 l 2
 462 656 557 563 557 400 c 0
 557 162 424 0 199 0 c 2
 22 0 l 1
112 64 m 1
 199 64 l 2
 372 64 477 193 477 395 c 0
 477 521 409 593 281 593 c 2
 218 593 l 1
 112 64 l 1
332 706 m 1
 244 827 l 1
 282 852 l 1
 378 756 l 1
 382 756 l 1
 516 853 l 1
 549 825 l 1
 419 706 l 1
 332 706 l 1
EndSplineSet
EndChar

StartChar: uni1E0C
Encoding: 7692 7692 88
Width: 600
Flags: MW
HStem: -236 122<182.5 208> 0 64<112 199 112 199> 593 63<218 281 218 218>
VStem: 132 127<-186.5 -164> 477 80<294 458>
LayerCount: 2
Fore
SplineSet
22 0 m 1
 153 656 l 1
 284 656 l 2
 462 656 557 563 557 400 c 0
 557 162 424 0 199 0 c 2
 22 0 l 1
112 64 m 1
 199 64 l 2
 372 64 477 193 477 395 c 0
 477 521 409 593 281 593 c 2
 218 593 l 1
 112 64 l 1
189 -236 m 0
 157 -236 132 -217 132 -183 c 0
 132 -145 164 -114 201 -114 c 0
 236 -114 259 -133 259 -167 c 0
 259 -206 227 -236 189 -236 c 0
EndSplineSet
EndChar

StartChar: uni1E0E
Encoding: 7694 7694 89
Width: 600
Flags: MW
HStem: -187 54<64 329 74 319> 0 64<112 199 112 199> 593 63<218 281 218 218>
VStem: 477 80<294 458>
LayerCount: 2
Fore
SplineSet
22 0 m 1
 153 656 l 1
 284 656 l 2
 462 656 557 563 557 400 c 0
 557 162 424 0 199 0 c 2
 22 0 l 1
112 64 m 1
 199 64 l 2
 372 64 477 193 477 395 c 0
 477 521 409 593 281 593 c 2
 218 593 l 1
 112 64 l 1
64 -187 m 1
 74 -133 l 1
 329 -133 l 1
 319 -187 l 1
 64 -187 l 1
EndSplineSet
EndChar

StartChar: uni1E10
Encoding: 7696 7696 90
Width: 600
Flags: MW
HStem: -226 39<88 89> 0 64<112 196> 593 63<218 281 218 218>
VStem: 206 64 477 80<294 458>
LayerCount: 2
Fore
SplineSet
112 64 m 1
 199 64 l 2
 372 64 477 193 477 395 c 0
 477 521 409 593 281 593 c 2
 218 593 l 1
 112 64 l 1
89 -226 m 1
 88 -187 l 1
 168 -184 204 -165 206 -133 c 0
 207 -108 188 -95 137 -90 c 1
 196 0 l 1
 22 0 l 1
 153 656 l 1
 284 656 l 2
 462 656 557 563 557 400 c 0
 557 182 445 27 253 3 c 1
 210 -65 l 1
 258 -77 272 -95 270 -128 c 0
 265 -191 195 -224 89 -226 c 1
EndSplineSet
EndChar

StartChar: Dcroat
Encoding: 272 272 91
Width: 600
GlyphClass: 2
Flags: MW
HStem: 0 64<127 214 127 214> 318 56<24 112 189 320> 593 63<233 296 233 233>
VStem: 492 80<294 458>
AnchorPoint: "Anchor-3" 224 -20 basechar 0
AnchorPoint: "Anchor-0" 364 676 basechar 0
LayerCount: 2
Fore
SplineSet
37 0 m 1
 101 318 l 1
 24 318 l 1
 38 370 l 1
 112 374 l 1
 168 656 l 1
 299 656 l 2
 477 656 572 563 572 400 c 0
 572 162 439 0 214 0 c 2
 37 0 l 1
127 64 m 1
 214 64 l 2
 387 64 492 193 492 395 c 0
 492 521 424 593 296 593 c 2
 233 593 l 1
 189 374 l 1
 334 374 l 1
 320 318 l 1
 178 318 l 1
 127 64 l 1
EndSplineSet
EndChar

StartChar: uni018A
Encoding: 394 394 92
Width: 600
GlyphClass: 2
Flags: MW
HStem: 0 64<143 240> 605 64<340 340>
VStem: 38 66<388 452 388 465.5> 505 80<307 469>
AnchorPoint: "Anchor-3" 276 -20 basechar 0
AnchorPoint: "Anchor-0" 384 676 basechar 0
LayerCount: 2
Fore
SplineSet
143 0 m 1
 263 602 l 1
 163 584 104 495 104 409 c 0
 104 367 121 337 156 316 c 1
 115 264 l 1
 67 288 38 333 38 399 c 0
 38 532 142 669 328 669 c 0
 494 669 585 576 585 415 c 0
 585 173 445 0 212 0 c 2
 143 0 l 1
232 64 m 1
 240 64 l 2
 392 64 505 204 505 410 c 0
 505 528 453 601 340 605 c 1
 232 64 l 1
EndSplineSet
EndChar

StartChar: Egrave
Encoding: 200 200 93
Width: 600
Flags: MW
HStem: 0 66<150 473> 312 66<213 473 201 486> 591 65<255 582 255 255>
VStem: 60 535
LayerCount: 2
Fore
SplineSet
60 0 m 1
 192 656 l 1
 595 656 l 1
 582 591 l 1
 255 591 l 1
 213 378 l 1
 486 378 l 1
 473 312 l 1
 201 312 l 1
 150 66 l 1
 486 66 l 1
 473 0 l 1
 60 0 l 1
435 693 m 1
 301 820 l 1
 356 870 l 1
 478 730 l 1
 435 693 l 1
EndSplineSet
EndChar

StartChar: Eacute
Encoding: 201 201 94
Width: 600
GlyphClass: 2
Flags: MW
HStem: 0 66<150 473> 312 66<213 473 201 486> 591 65<255 582 255 255>
VStem: 60 535
AnchorPoint: "Anchor-6" 395 0 basechar 0
LayerCount: 2
Fore
SplineSet
60 0 m 1
 192 656 l 1
 595 656 l 1
 582 591 l 1
 255 591 l 1
 213 378 l 1
 486 378 l 1
 473 312 l 1
 201 312 l 1
 150 66 l 1
 486 66 l 1
 473 0 l 1
 60 0 l 1
391 703 m 1
 361 747 l 1
 526 863 l 1
 563 803 l 1
 391 703 l 1
EndSplineSet
EndChar

StartChar: Ecircumflex
Encoding: 202 202 95
Width: 600
Flags: MW
HStem: 0 66<150 473> 312 66<213 473 201 486> 591 65<255 582 255 255> 797 49<429 433 429 429>
VStem: 60 535
LayerCount: 2
Fore
SplineSet
60 0 m 1
 192 656 l 1
 595 656 l 1
 582 591 l 1
 255 591 l 1
 213 378 l 1
 486 378 l 1
 473 312 l 1
 201 312 l 1
 150 66 l 1
 486 66 l 1
 473 0 l 1
 60 0 l 1
295 699 m 1
 262 727 l 1
 392 846 l 1
 479 846 l 1
 567 725 l 1
 529 700 l 1
 433 797 l 1
 429 797 l 1
 295 699 l 1
EndSplineSet
MultipleSubs2: "Multiple Substitution lookup 8 subtable" E uni0302
EndChar

StartChar: Ecaron
Encoding: 282 282 96
Width: 600
Flags: MW
HStem: 0 66<150 473> 312 66<213 473 201 486> 591 65<255 582 255 255> 706 50<375 425 421 425 421 462>
VStem: 60 535
LayerCount: 2
Fore
SplineSet
60 0 m 1
 192 656 l 1
 595 656 l 1
 582 591 l 1
 255 591 l 1
 213 378 l 1
 486 378 l 1
 473 312 l 1
 201 312 l 1
 150 66 l 1
 486 66 l 1
 473 0 l 1
 60 0 l 1
375 706 m 1
 287 827 l 1
 325 852 l 1
 421 756 l 1
 425 756 l 1
 559 853 l 1
 592 825 l 1
 462 706 l 1
 375 706 l 1
EndSplineSet
EndChar

StartChar: Edieresis
Encoding: 203 203 97
Width: 600
Flags: MW
HStem: 0 66<150 473> 312 66<213 473 201 486> 591 65<255 582 255 255> 715 95<323.5 341 509 527>
VStem: 287 90<755 769.5> 473 90<755 769.5>
LayerCount: 2
Fore
SplineSet
60 0 m 1
 192 656 l 1
 595 656 l 1
 582 591 l 1
 255 591 l 1
 213 378 l 1
 486 378 l 1
 473 312 l 1
 201 312 l 1
 150 66 l 1
 486 66 l 1
 473 0 l 1
 60 0 l 1
327 715 m 0
 304 715 287 730 287 755 c 0
 287 784 310 810 337 810 c 0
 360 810 377 795 377 769 c 0
 377 741 355 715 327 715 c 0
513 715 m 0
 489 715 473 730 473 755 c 0
 473 784 495 810 523 810 c 0
 546 810 563 795 563 769 c 0
 563 741 541 715 513 715 c 0
EndSplineSet
EndChar

StartChar: Emacron
Encoding: 274 274 98
Width: 600
Flags: MW
HStem: 0 66<150 473> 312 66<213 473 201 486> 591 65<255 582 255 255> 729 54<290 557 301 546>
VStem: 60 535
LayerCount: 2
Fore
SplineSet
60 0 m 1
 192 656 l 1
 595 656 l 1
 582 591 l 1
 255 591 l 1
 213 378 l 1
 486 378 l 1
 473 312 l 1
 201 312 l 1
 150 66 l 1
 486 66 l 1
 473 0 l 1
 60 0 l 1
290 729 m 1
 301 783 l 1
 557 783 l 1
 546 729 l 1
 290 729 l 1
EndSplineSet
MultipleSubs2: "Multiple Substitution lookup 8 subtable" E uni0304
EndChar

StartChar: Ebreve
Encoding: 276 276 99
Width: 600
Flags: MW
HStem: 0 66<150 473> 312 66<213 473 201 486> 591 65<255 582 255 255> 705 53<393 450.5 393 458.5>
VStem: 288 52<838 846>
LayerCount: 2
Fore
SplineSet
60 0 m 1
 192 656 l 1
 595 656 l 1
 582 591 l 1
 255 591 l 1
 213 378 l 1
 486 378 l 1
 473 312 l 1
 201 312 l 1
 150 66 l 1
 486 66 l 1
 473 0 l 1
 60 0 l 1
411 705 m 0
 319 705 284 765 288 838 c 1
 340 846 l 1
 338 796 364 758 422 758 c 0
 479 758 516 797 534 846 c 1
 583 838 l 1
 562 765 506 705 411 705 c 0
EndSplineSet
EndChar

StartChar: Edotaccent
Encoding: 278 278 100
Width: 600
Flags: MW
HStem: 0 66<150 473> 312 66<213 473 201 486> 591 65<255 582 255 255> 716 103<414.5 436.5>
VStem: 372 107<756.5 777>
LayerCount: 2
Fore
SplineSet
60 0 m 1
 192 656 l 1
 595 656 l 1
 582 591 l 1
 255 591 l 1
 213 378 l 1
 486 378 l 1
 473 312 l 1
 201 312 l 1
 150 66 l 1
 486 66 l 1
 473 0 l 1
 60 0 l 1
421 716 m 0
 395 716 372 732 372 761 c 0
 372 793 399 819 430 819 c 0
 456 819 479 802 479 773 c 0
 479 740 452 716 421 716 c 0
EndSplineSet
EndChar

StartChar: Eogonek
Encoding: 280 280 101
Width: 600
GlyphClass: 2
Flags: MW
HStem: -225 53<377.5 384> 0 66<150 389 446.5 471 471 473> 312 66<213 473 201 486> 591 65<255 582 255 255>
VStem: 275 63<-141.5 -117>
AnchorPoint: "Anchor-0" 406 676 basechar 0
LayerCount: 2
Fore
SplineSet
367 -225 m 0
 317 -225 275 -202 275 -150 c 0
 275 -84 333 -29 389 0 c 1
 60 0 l 1
 192 656 l 1
 595 656 l 1
 582 591 l 1
 255 591 l 1
 213 378 l 1
 486 378 l 1
 473 312 l 1
 201 312 l 1
 150 66 l 1
 486 66 l 1
 473 0 l 1
 471 0 l 2
 422 0 338 -68 338 -126 c 0
 338 -157 362 -172 393 -172 c 0
 411 -172 425 -166 440 -156 c 1
 458 -195 l 1
 435 -213 401 -225 367 -225 c 0
EndSplineSet
Ligature2: "'ccmp' Glyph Composition/Decomposition lookup 12 subtable" E uni0328
EndChar

StartChar: uni1EB8
Encoding: 7864 7864 102
Width: 600
Flags: MW
HStem: -236 122<237.5 263> 0 66<150 473> 312 66<213 473 201 486> 591 65<255 582 255 255>
VStem: 187 127<-186.5 -164>
LayerCount: 2
Fore
SplineSet
60 0 m 1
 192 656 l 1
 595 656 l 1
 582 591 l 1
 255 591 l 1
 213 378 l 1
 486 378 l 1
 473 312 l 1
 201 312 l 1
 150 66 l 1
 486 66 l 1
 473 0 l 1
 60 0 l 1
244 -236 m 0
 212 -236 187 -217 187 -183 c 0
 187 -145 219 -114 256 -114 c 0
 291 -114 314 -133 314 -167 c 0
 314 -206 282 -236 244 -236 c 0
EndSplineSet
EndChar

StartChar: uni1EBA
Encoding: 7866 7866 103
Width: 600
Flags: MW
HStem: 0 66<150 473> 312 66<213 473 201 486> 591 65<255 582 255 255> 824 48<351 369>
VStem: 60 535
LayerCount: 2
Fore
SplineSet
60 0 m 1
 192 656 l 1
 595 656 l 1
 582 591 l 1
 255 591 l 1
 213 378 l 1
 486 378 l 1
 473 312 l 1
 201 312 l 1
 150 66 l 1
 486 66 l 1
 473 0 l 1
 60 0 l 1
364 698 m 1
 362 736 l 1
 395 745 422 757 426 782 c 0
 431 808 405 822 351 824 c 1
 369 872 l 1
 456 869 501 842 492 791 c 0
 481 733 423 708 364 698 c 1
EndSplineSet
EndChar

StartChar: uni1EBC
Encoding: 7868 7868 104
Width: 600
Flags: MW
HStem: 0 66<150 473> 312 66<213 473 201 486> 591 65<255 582 255 255> 698 20G<243 243> 709 60<474.5 510 474.5 518> 781 60<344.5 379.5>
VStem: 60 551
LayerCount: 2
Fore
SplineSet
60 0 m 1xf6
 192 656 l 1
 595 656 l 1
 582 591 l 1
 255 591 l 1
 213 378 l 1
 486 378 l 1
 473 312 l 1
 201 312 l 1
 150 66 l 1
 486 66 l 1
 473 0 l 1
 60 0 l 1xf6
488 709 m 0xee
 420 709 402 781 357 781 c 0
 332 781 310 757 297 714 c 1
 243 718 l 1xf6
 259 796 306 841 366 841 c 0
 435 841 452 769 497 769 c 0
 523 769 544 792 557 836 c 1
 611 832 l 1
 595 753 548 709 488 709 c 0xee
EndSplineSet
EndChar

StartChar: uni1EBE
Encoding: 7870 7870 105
Width: 600
Flags: MW
HStem: 0 66<150 473> 312 66<213 473 201 486> 591 65<255 582 255 255> 704 20G<546 546> 768 47<426 430 426 426>
VStem: 60 597
LayerCount: 2
Fore
SplineSet
60 0 m 1
 192 656 l 1
 595 656 l 1
 582 591 l 1
 255 591 l 1
 213 378 l 1
 486 378 l 1
 473 312 l 1
 201 312 l 1
 150 66 l 1
 486 66 l 1
 473 0 l 1
 60 0 l 1
318 699 m 1
 288 725 l 1
 397 815 l 1
 470 815 l 1
 546 724 l 1
 509 699 l 1
 430 768 l 1
 426 768 l 1
 318 699 l 1
541 768 m 1
 517 801 l 1
 631 884 l 1
 657 843 l 1
 541 768 l 1
EndSplineSet
EndChar

StartChar: uni1EC0
Encoding: 7872 7872 106
Width: 600
Flags: MW
HStem: 0 66<150 473> 312 66<213 473 201 486> 591 65<255 582 255 255> 704 20G<546 546> 768 47<426 430 426 426>
VStem: 60 535
LayerCount: 2
Fore
SplineSet
60 0 m 1
 192 656 l 1
 595 656 l 1
 582 591 l 1
 255 591 l 1
 213 378 l 1
 486 378 l 1
 473 312 l 1
 201 312 l 1
 150 66 l 1
 486 66 l 1
 473 0 l 1
 60 0 l 1
318 699 m 1
 288 725 l 1
 397 815 l 1
 470 815 l 1
 546 724 l 1
 509 699 l 1
 430 768 l 1
 426 768 l 1
 318 699 l 1
312 774 m 1
 224 855 l 1
 263 890 l 1
 346 801 l 1
 312 774 l 1
EndSplineSet
EndChar

StartChar: uni1EC2
Encoding: 7874 7874 107
Width: 600
Flags: MW
HStem: 0 66<150 473> 312 66<213 473 201 486> 591 65<255 582 255 255> 704 20G<546 546> 768 47<426 430 426 426> 865 41<520 533>
VStem: 60 582
LayerCount: 2
Fore
SplineSet
60 0 m 1
 192 656 l 1
 595 656 l 1
 582 591 l 1
 255 591 l 1
 213 378 l 1
 486 378 l 1
 473 312 l 1
 201 312 l 1
 150 66 l 1
 486 66 l 1
 473 0 l 1
 60 0 l 1
318 699 m 1
 288 725 l 1
 397 815 l 1
 470 815 l 1
 546 724 l 1
 509 699 l 1
 430 768 l 1
 426 768 l 1
 318 699 l 1
536 756 m 1
 532 789 l 1
 558 795 579 804 583 825 c 0
 588 852 569 863 520 865 c 1
 533 906 l 1
 611 903 651 879 641 833 c 0
 633 783 585 763 536 756 c 1
EndSplineSet
EndChar

StartChar: uni1EC4
Encoding: 7876 7876 108
Width: 600
Flags: MW
HStem: 0 66<150 473> 312 66<213 473 201 486> 591 65<255 582 255 255> 704 20G<546 546> 765 47<425 429 425 425> 839 51<487.5 519.5 487.5 529.5> 889 50<372 404.5>
VStem: 60 538
LayerCount: 2
Fore
SplineSet
60 0 m 1xfb
 192 656 l 1
 595 656 l 1
 582 591 l 1
 255 591 l 1
 213 378 l 1
 486 378 l 1
 473 312 l 1
 201 312 l 1
 150 66 l 1
 486 66 l 1
 473 0 l 1
 60 0 l 1xfb
317 699 m 1
 288 725 l 1
 397 812 l 1
 469 812 l 1
 546 724 l 1
 508 699 l 1
 429 765 l 1
 425 765 l 1
 317 699 l 1
502 839 m 0xfd
 439 839 425 889 384 889 c 0
 360 889 347 872 337 843 c 1
 294 848 l 1
 305 899 334 939 389 939 c 0xfb
 452 939 467 890 508 890 c 0
 531 890 544 907 554 936 c 1
 598 931 l 1
 586 879 557 839 502 839 c 0xfd
EndSplineSet
EndChar

StartChar: uni1EC6
Encoding: 7878 7878 109
Width: 600
Flags: MW
HStem: -236 122<237.5 263> 0 66<150 473> 312 66<213 473 201 486> 591 65<255 582 255 255> 797 49<429 433 429 429>
VStem: 187 127<-186.5 -164>
LayerCount: 2
Fore
SplineSet
60 0 m 1
 192 656 l 1
 595 656 l 1
 582 591 l 1
 255 591 l 1
 213 378 l 1
 486 378 l 1
 473 312 l 1
 201 312 l 1
 150 66 l 1
 486 66 l 1
 473 0 l 1
 60 0 l 1
295 699 m 1
 262 727 l 1
 392 846 l 1
 479 846 l 1
 567 725 l 1
 529 700 l 1
 433 797 l 1
 429 797 l 1
 295 699 l 1
244 -236 m 0
 212 -236 187 -217 187 -183 c 0
 187 -145 219 -114 256 -114 c 0
 291 -114 314 -133 314 -167 c 0
 314 -206 282 -236 244 -236 c 0
EndSplineSet
EndChar

StartChar: uni1E16
Encoding: 7702 7702 110
Width: 600
Flags: MW
HStem: 0 66<150 473> 312 66<213 473 201 486> 591 65<255 582 255 255> 729 54<290 557 301 546>
VStem: 60 535
LayerCount: 2
Fore
SplineSet
60 0 m 1
 192 656 l 1
 595 656 l 1
 582 591 l 1
 255 591 l 1
 213 378 l 1
 486 378 l 1
 473 312 l 1
 201 312 l 1
 150 66 l 1
 486 66 l 1
 473 0 l 1
 60 0 l 1
290 729 m 1
 301 783 l 1
 557 783 l 1
 546 729 l 1
 290 729 l 1
438 827 m 1
 405 856 l 1
 521 965 l 1
 567 925 l 1
 438 827 l 1
EndSplineSet
EndChar

StartChar: uni01F4
Encoding: 500 500 111
Width: 600
Flags: MW
HStem: -12 66<249.5 335 249.5 337.5> 275 64<337 459 324 543> 601 67<320 428>
VStem: 61 80<201.5 339.5 201.5 357>
LayerCount: 2
Fore
SplineSet
300 -12 m 0
 144 -12 61 93 61 253 c 0
 61 461 194 668 406 668 c 0
 484 668 538 627 571 571 c 1
 516 530 l 1
 491 572 455 601 401 601 c 0
 239 601 141 419 141 260 c 0
 141 143 188 54 311 54 c 0
 359 54 397 72 423 94 c 1
 459 275 l 1
 324 275 l 1
 337 339 l 1
 543 339 l 1
 486 55 l 1
 438 15 375 -12 300 -12 c 0
380 703 m 1
 350 747 l 1
 515 863 l 1
 552 803 l 1
 380 703 l 1
EndSplineSet
EndChar

StartChar: Gcircumflex
Encoding: 284 284 112
Width: 600
Flags: MW
HStem: -12 66<249.5 335 249.5 337.5> 275 64<337 459 324 543> 601 67<320 428> 797 49<418 422 418 418>
VStem: 61 80<201.5 339.5 201.5 357>
LayerCount: 2
Fore
SplineSet
300 -12 m 0
 144 -12 61 93 61 253 c 0
 61 461 194 668 406 668 c 0
 484 668 538 627 571 571 c 1
 516 530 l 1
 491 572 455 601 401 601 c 0
 239 601 141 419 141 260 c 0
 141 143 188 54 311 54 c 0
 359 54 397 72 423 94 c 1
 459 275 l 1
 324 275 l 1
 337 339 l 1
 543 339 l 1
 486 55 l 1
 438 15 375 -12 300 -12 c 0
284 699 m 1
 251 727 l 1
 381 846 l 1
 468 846 l 1
 556 725 l 1
 518 700 l 1
 422 797 l 1
 418 797 l 1
 284 699 l 1
EndSplineSet
EndChar

StartChar: Gbreve
Encoding: 286 286 113
Width: 600
Flags: MW
HStem: -12 66<249.5 335 249.5 337.5> 275 64<337 459 324 543> 601 67<320 428> 705 53<382 439.5 382 447.5>
VStem: 61 80<201.5 339.5 201.5 357> 277 52<838 846>
LayerCount: 2
Fore
SplineSet
300 -12 m 0
 144 -12 61 93 61 253 c 0
 61 461 194 668 406 668 c 0
 484 668 538 627 571 571 c 1
 516 530 l 1
 491 572 455 601 401 601 c 0
 239 601 141 419 141 260 c 0
 141 143 188 54 311 54 c 0
 359 54 397 72 423 94 c 1
 459 275 l 1
 324 275 l 1
 337 339 l 1
 543 339 l 1
 486 55 l 1
 438 15 375 -12 300 -12 c 0
400 705 m 0
 308 705 273 765 277 838 c 1
 329 846 l 1
 327 796 353 758 411 758 c 0
 468 758 505 797 523 846 c 1
 572 838 l 1
 551 765 495 705 400 705 c 0
EndSplineSet
EndChar

StartChar: Gdotaccent
Encoding: 288 288 114
Width: 600
Flags: MW
HStem: -12 66<249.5 335 249.5 337.5> 275 64<337 459 324 543> 601 67<320 428> 716 103<403.5 425.5>
VStem: 61 80<201.5 339.5 201.5 357> 361 107<756.5 777>
LayerCount: 2
Fore
SplineSet
300 -12 m 0
 144 -12 61 93 61 253 c 0
 61 461 194 668 406 668 c 0
 484 668 538 627 571 571 c 1
 516 530 l 1
 491 572 455 601 401 601 c 0
 239 601 141 419 141 260 c 0
 141 143 188 54 311 54 c 0
 359 54 397 72 423 94 c 1
 459 275 l 1
 324 275 l 1
 337 339 l 1
 543 339 l 1
 486 55 l 1
 438 15 375 -12 300 -12 c 0
410 716 m 0
 384 716 361 732 361 761 c 0
 361 793 388 819 419 819 c 0
 445 819 468 802 468 773 c 0
 468 740 441 716 410 716 c 0
EndSplineSet
EndChar

StartChar: uni0122
Encoding: 290 290 115
Width: 600
Flags: MW
HStem: -226 39<171 171> -95 37<225 248> -12 66<249.5 335 249.5 337.5> 275 64<337 459 324 543> 601 67<320 428>
VStem: 61 80<201.5 339.5 201.5 357> 288 65<-148.5 -122.5>
LayerCount: 2
Fore
SplineSet
300 -12 m 0
 144 -12 61 93 61 253 c 0
 61 461 194 668 406 668 c 0
 484 668 538 627 571 571 c 1
 516 530 l 1
 491 572 455 601 401 601 c 0
 239 601 141 419 141 260 c 0
 141 143 188 54 311 54 c 0
 359 54 397 72 423 94 c 1
 459 275 l 1
 324 275 l 1
 337 339 l 1
 543 339 l 1
 486 55 l 1
 438 15 375 -12 300 -12 c 0
171 -226 m 1
 171 -187 l 1
 251 -184 288 -163 288 -134 c 0
 288 -111 270 -97 225 -95 c 1
 248 -58 l 1
 334 -65 353 -88 353 -124 c 0
 353 -190 277 -224 171 -226 c 1
EndSplineSet
EndChar

StartChar: Gcaron
Encoding: 486 486 116
Width: 600
Flags: MW
HStem: -12 66<249.5 335 249.5 337.5> 275 64<337 459 324 543> 601 67<320 428> 706 50<364 414 410 414 410 451>
VStem: 61 80<201.5 339.5 201.5 357>
LayerCount: 2
Fore
SplineSet
300 -12 m 0
 144 -12 61 93 61 253 c 0
 61 461 194 668 406 668 c 0
 484 668 538 627 571 571 c 1
 516 530 l 1
 491 572 455 601 401 601 c 0
 239 601 141 419 141 260 c 0
 141 143 188 54 311 54 c 0
 359 54 397 72 423 94 c 1
 459 275 l 1
 324 275 l 1
 337 339 l 1
 543 339 l 1
 486 55 l 1
 438 15 375 -12 300 -12 c 0
364 706 m 1
 276 827 l 1
 314 852 l 1
 410 756 l 1
 414 756 l 1
 548 853 l 1
 581 825 l 1
 451 706 l 1
 364 706 l 1
EndSplineSet
EndChar

StartChar: uni1E20
Encoding: 7712 7712 117
Width: 600
Flags: MW
HStem: -12 66<249.5 335 249.5 337.5> 275 64<337 459 324 543> 601 67<320 428> 729 54<279 546 290 535>
VStem: 61 80<201.5 339.5 201.5 357>
LayerCount: 2
Fore
SplineSet
300 -12 m 0
 144 -12 61 93 61 253 c 0
 61 461 194 668 406 668 c 0
 484 668 538 627 571 571 c 1
 516 530 l 1
 491 572 455 601 401 601 c 0
 239 601 141 419 141 260 c 0
 141 143 188 54 311 54 c 0
 359 54 397 72 423 94 c 1
 459 275 l 1
 324 275 l 1
 337 339 l 1
 543 339 l 1
 486 55 l 1
 438 15 375 -12 300 -12 c 0
279 729 m 1
 290 783 l 1
 546 783 l 1
 535 729 l 1
 279 729 l 1
EndSplineSet
EndChar

StartChar: uni00470303
Encoding: 1114113 -1 118
Width: 600
GlyphClass: 3
Flags: MW
HStem: -12 66<249.5 335 249.5 337.5> 275 64<337 459 324 543> 601 67<320 428> 698 20G<232 232> 709 60<463.5 499 463.5 507> 781 60<333.5 368.5>
VStem: 61 80<201.5 339.5 201.5 357>
LayerCount: 2
Fore
SplineSet
300 -12 m 0xf6
 144 -12 61 93 61 253 c 0
 61 461 194 668 406 668 c 0
 484 668 538 627 571 571 c 1
 516 530 l 1
 491 572 455 601 401 601 c 0
 239 601 141 419 141 260 c 0
 141 143 188 54 311 54 c 0
 359 54 397 72 423 94 c 1
 459 275 l 1
 324 275 l 1
 337 339 l 1
 543 339 l 1
 486 55 l 1
 438 15 375 -12 300 -12 c 0xf6
477 709 m 0xee
 409 709 391 781 346 781 c 0
 321 781 299 757 286 714 c 1
 232 718 l 1xf6
 248 796 295 841 355 841 c 0
 424 841 441 769 486 769 c 0
 512 769 533 792 546 836 c 1
 600 832 l 1
 584 753 537 709 477 709 c 0xee
EndSplineSet
Ligature2: "'ccmp' Glyph Composition/Decomposition lookup 12 subtable" G uni0303
EndChar

StartChar: uni0193
Encoding: 403 403 119
Width: 600
Flags: MW
HStem: -12 66<249.5 335 249.5 337.5> 275 64<337 459 324 543> 601 67<320 420.5 300 428> 739 62<583 606.5>
VStem: 61 80<201.5 339.5 201.5 357> 481 63<676.5 693 655 715.5>
LayerCount: 2
Fore
SplineSet
571 571 m 1
 516 530 l 1
 491 572 455 601 401 601 c 0
 239 601 141 419 141 260 c 0
 141 143 188 54 311 54 c 0
 359 54 397 72 423 94 c 1
 459 275 l 1
 324 275 l 1
 337 339 l 1
 543 339 l 1
 486 55 l 1
 438 15 375 -12 300 -12 c 0
 144 -12 61 93 61 253 c 0
 61 461 194 668 406 668 c 0
 435 668 461 662 483 652 c 1
 482 663 481 672 481 681 c 0
 481 750 523 801 593 801 c 0
 621 801 642 793 660 782 c 1
 634 728 l 1
 622 736 613 739 600 739 c 0
 566 739 544 711 544 675 c 0
 544 635 553 607 571 571 c 1
EndSplineSet
EndChar

StartChar: Hcircumflex
Encoding: 292 292 120
Width: 600
Flags: MW
HStem: 0 21G<18 18 18 96 379 379 379 457> 312 67<171 442 158 455> 797 49<395 399 395 395>
VStem: 18 570
LayerCount: 2
Fore
SplineSet
18 0 m 1
 149 656 l 1
 227 656 l 1
 171 379 l 1
 455 379 l 1
 510 656 l 1
 588 656 l 1
 457 0 l 1
 379 0 l 1
 442 312 l 1
 158 312 l 1
 96 0 l 1
 18 0 l 1
261 699 m 1
 228 727 l 1
 358 846 l 1
 445 846 l 1
 533 725 l 1
 495 700 l 1
 399 797 l 1
 395 797 l 1
 261 699 l 1
EndSplineSet
EndChar

StartChar: uni1E26
Encoding: 7718 7718 121
Width: 600
Flags: MW
HStem: 0 21G<18 18 18 96 379 379 379 457> 312 67<171 442 158 455> 715 95<289.5 307 475 493>
VStem: 253 90<755 769.5> 439 90<755 769.5>
LayerCount: 2
Fore
SplineSet
18 0 m 1
 149 656 l 1
 227 656 l 1
 171 379 l 1
 455 379 l 1
 510 656 l 1
 588 656 l 1
 457 0 l 1
 379 0 l 1
 442 312 l 1
 158 312 l 1
 96 0 l 1
 18 0 l 1
293 715 m 0
 270 715 253 730 253 755 c 0
 253 784 276 810 303 810 c 0
 326 810 343 795 343 769 c 0
 343 741 321 715 293 715 c 0
479 715 m 0
 455 715 439 730 439 755 c 0
 439 784 461 810 489 810 c 0
 512 810 529 795 529 769 c 0
 529 741 507 715 479 715 c 0
EndSplineSet
EndChar

StartChar: uni1E24
Encoding: 7716 7716 122
Width: 600
Flags: MW
HStem: -236 122<192.5 218> 0 21G<18 18 18 96 379 379 379 457> 312 67<171 442 158 455>
VStem: 142 127<-186.5 -164>
LayerCount: 2
Fore
SplineSet
18 0 m 1
 149 656 l 1
 227 656 l 1
 171 379 l 1
 455 379 l 1
 510 656 l 1
 588 656 l 1
 457 0 l 1
 379 0 l 1
 442 312 l 1
 158 312 l 1
 96 0 l 1
 18 0 l 1
199 -236 m 0
 167 -236 142 -217 142 -183 c 0
 142 -145 174 -114 211 -114 c 0
 246 -114 269 -133 269 -167 c 0
 269 -206 237 -236 199 -236 c 0
EndSplineSet
EndChar

StartChar: uni1E28
Encoding: 7720 7720 123
Width: 600
Flags: MW
HStem: -226 39<-76 -75> 0 21G<18 18 18 32 87 87 87 96 379 379 379 457> 312 67<171 442 158 455>
VStem: 42 64
LayerCount: 2
Fore
SplineSet
18 0 m 1
 149 656 l 1
 227 656 l 1
 171 379 l 1
 455 379 l 1
 510 656 l 1
 588 656 l 1
 457 0 l 1
 379 0 l 1
 442 312 l 1
 158 312 l 1
 96 0 l 1
 87 0 l 1
 46 -65 l 1
 94 -77 108 -95 106 -128 c 0
 101 -191 31 -224 -75 -226 c 1
 -76 -187 l 1
 4 -184 40 -165 42 -133 c 0
 43 -108 24 -95 -27 -90 c 1
 32 0 l 1
 18 0 l 1
EndSplineSet
EndChar

StartChar: uni1E2A
Encoding: 7722 7722 124
Width: 600
Flags: MW
HStem: -225 55<174.5 239.5 174.5 250> 0 21G<18 18 18 96 379 379 379 457> 312 67<171 442 158 455>
VStem: 68 53<-74 -66>
LayerCount: 2
Fore
SplineSet
18 0 m 1
 149 656 l 1
 227 656 l 1
 171 379 l 1
 455 379 l 1
 510 656 l 1
 588 656 l 1
 457 0 l 1
 379 0 l 1
 442 312 l 1
 158 312 l 1
 96 0 l 1
 18 0 l 1
196 -225 m 0
 91 -225 61 -148 68 -74 c 1
 121 -66 l 1
 118 -117 142 -170 207 -170 c 0
 272 -170 312 -117 330 -66 c 1
 380 -74 l 1
 362 -148 304 -225 196 -225 c 0
EndSplineSet
EndChar

StartChar: Hbar
Encoding: 294 294 125
Width: 600
Flags: MW
HStem: 0 21G<18 96 18 18 379 457 379 379> 312 67<171 442 158 455> 488 56<46 127 204 477 566 622>
VStem: 18 618<0 544>
LayerCount: 2
Fore
SplineSet
46 488 m 1
 54 538 l 1
 127 544 l 1
 149 656 l 1
 227 656 l 1
 204 544 l 1
 488 544 l 1
 510 656 l 1
 588 656 l 1
 566 544 l 1
 636 544 l 1
 622 488 l 1
 554 488 l 1
 457 0 l 1
 379 0 l 1
 442 312 l 1
 158 312 l 1
 96 0 l 1
 18 0 l 1
 115 488 l 1
 46 488 l 1
171 379 m 1
 455 379 l 1
 477 488 l 1
 193 488 l 1
 171 379 l 1
EndSplineSet
EndChar

StartChar: Igrave
Encoding: 204 204 126
Width: 600
Flags: MW
HStem: 0 66<35 211 49 211 288 439> 591 65<167 316 152 573 394 394 394 559>
VStem: 35 538
LayerCount: 2
Fore
SplineSet
35 0 m 1
 49 66 l 1
 211 66 l 1
 316 591 l 1
 152 591 l 1
 167 656 l 1
 573 656 l 1
 559 591 l 1
 394 591 l 1
 288 66 l 1
 454 66 l 1
 439 0 l 1
 35 0 l 1
401 693 m 1
 267 820 l 1
 322 870 l 1
 444 730 l 1
 401 693 l 1
EndSplineSet
EndChar

StartChar: Iacute
Encoding: 205 205 127
Width: 600
Flags: MW
HStem: 0 66<35 211 49 211 288 439> 591 65<167 316 152 573 394 394 394 559>
VStem: 35 538
LayerCount: 2
Fore
SplineSet
35 0 m 1
 49 66 l 1
 211 66 l 1
 316 591 l 1
 152 591 l 1
 167 656 l 1
 573 656 l 1
 559 591 l 1
 394 591 l 1
 288 66 l 1
 454 66 l 1
 439 0 l 1
 35 0 l 1
357 703 m 1
 327 747 l 1
 492 863 l 1
 529 803 l 1
 357 703 l 1
EndSplineSet
EndChar

StartChar: Icircumflex
Encoding: 206 206 128
Width: 600
Flags: MW
HStem: 0 66<35 211 49 211 288 439> 591 65<167 316 152 573 394 394 394 559> 797 49<395 399 395 395>
VStem: 35 538
LayerCount: 2
Fore
SplineSet
35 0 m 1
 49 66 l 1
 211 66 l 1
 316 591 l 1
 152 591 l 1
 167 656 l 1
 573 656 l 1
 559 591 l 1
 394 591 l 1
 288 66 l 1
 454 66 l 1
 439 0 l 1
 35 0 l 1
261 699 m 1
 228 727 l 1
 358 846 l 1
 445 846 l 1
 533 725 l 1
 495 700 l 1
 399 797 l 1
 395 797 l 1
 261 699 l 1
EndSplineSet
EndChar

StartChar: Itilde
Encoding: 296 296 129
Width: 600
Flags: MW
HStem: 0 66<35 211 49 211 288 439> 591 65<167 316 152 573 394 394 394 559> 698 20G<209 209> 709 60<440.5 476 440.5 484> 781 60<310.5 345.5>
VStem: 35 542
LayerCount: 2
Fore
SplineSet
35 0 m 1xec
 49 66 l 1
 211 66 l 1
 316 591 l 1
 152 591 l 1
 167 656 l 1
 573 656 l 1
 559 591 l 1
 394 591 l 1
 288 66 l 1
 454 66 l 1
 439 0 l 1
 35 0 l 1xec
454 709 m 0xdc
 386 709 368 781 323 781 c 0
 298 781 276 757 263 714 c 1
 209 718 l 1xec
 225 796 272 841 332 841 c 0
 401 841 418 769 463 769 c 0
 489 769 510 792 523 836 c 1
 577 832 l 1
 561 753 514 709 454 709 c 0xdc
EndSplineSet
EndChar

StartChar: Idieresis
Encoding: 207 207 130
Width: 600
Flags: MW
HStem: 0 66<35 211 49 211 288 439> 591 65<167 316 152 573 394 394 394 559> 715 95<289.5 307 475 493>
VStem: 253 90<755 769.5> 439 90<755 769.5>
LayerCount: 2
Fore
SplineSet
35 0 m 1
 49 66 l 1
 211 66 l 1
 316 591 l 1
 152 591 l 1
 167 656 l 1
 573 656 l 1
 559 591 l 1
 394 591 l 1
 288 66 l 1
 454 66 l 1
 439 0 l 1
 35 0 l 1
293 715 m 0
 270 715 253 730 253 755 c 0
 253 784 276 810 303 810 c 0
 326 810 343 795 343 769 c 0
 343 741 321 715 293 715 c 0
479 715 m 0
 455 715 439 730 439 755 c 0
 439 784 461 810 489 810 c 0
 512 810 529 795 529 769 c 0
 529 741 507 715 479 715 c 0
EndSplineSet
EndChar

StartChar: Imacron
Encoding: 298 298 131
Width: 600
Flags: MW
HStem: 0 66<35 211 49 211 288 439> 591 65<167 316 152 573 394 394 394 559> 729 54<256 523 267 512>
VStem: 35 538
LayerCount: 2
Fore
SplineSet
35 0 m 1
 49 66 l 1
 211 66 l 1
 316 591 l 1
 152 591 l 1
 167 656 l 1
 573 656 l 1
 559 591 l 1
 394 591 l 1
 288 66 l 1
 454 66 l 1
 439 0 l 1
 35 0 l 1
256 729 m 1
 267 783 l 1
 523 783 l 1
 512 729 l 1
 256 729 l 1
EndSplineSet
EndChar

StartChar: Idotaccent
Encoding: 304 304 132
Width: 600
Flags: MW
HStem: 0 66<35 211 49 211 288 439> 591 65<167 316 152 573 394 394 394 559> 716 103<380.5 402.5>
VStem: 338 107<756.5 777>
LayerCount: 2
Fore
SplineSet
35 0 m 1
 49 66 l 1
 211 66 l 1
 316 591 l 1
 152 591 l 1
 167 656 l 1
 573 656 l 1
 559 591 l 1
 394 591 l 1
 288 66 l 1
 454 66 l 1
 439 0 l 1
 35 0 l 1
387 716 m 0
 361 716 338 732 338 761 c 0
 338 793 365 819 396 819 c 0
 422 819 445 802 445 773 c 0
 445 740 418 716 387 716 c 0
EndSplineSet
EndChar

StartChar: uni01CF
Encoding: 463 463 133
Width: 600
Flags: MW
HStem: 0 66<35 211 49 211 288 439> 591 65<167 316 152 573 394 394 394 559> 706 50<341 391 387 391 387 428>
VStem: 35 538
LayerCount: 2
Fore
SplineSet
35 0 m 1
 49 66 l 1
 211 66 l 1
 316 591 l 1
 152 591 l 1
 167 656 l 1
 573 656 l 1
 559 591 l 1
 394 591 l 1
 288 66 l 1
 454 66 l 1
 439 0 l 1
 35 0 l 1
341 706 m 1
 253 827 l 1
 291 852 l 1
 387 756 l 1
 391 756 l 1
 525 853 l 1
 558 825 l 1
 428 706 l 1
 341 706 l 1
EndSplineSet
EndChar

StartChar: Iogonek
Encoding: 302 302 134
Width: 600
GlyphClass: 2
Flags: MW
HStem: -225 53<223.5 230.5> 0 66<49 211 49 219 35 211 288 439> 591 65<167 316 152 573 394 394 394 559>
VStem: 121 63<-141.5 -118>
AnchorPoint: "Anchor-0" 373 676 basechar 0
LayerCount: 2
Fore
SplineSet
213 -225 m 0
 163 -225 121 -202 121 -150 c 0
 121 -86 177 -30 219 0 c 1
 35 0 l 1
 49 66 l 1
 211 66 l 1
 316 591 l 1
 152 591 l 1
 167 656 l 1
 573 656 l 1
 559 591 l 1
 394 591 l 1
 288 66 l 1
 454 66 l 1
 439 0 l 1
 282 0 l 1
 221 -33 184 -86 184 -126 c 0
 184 -157 208 -172 239 -172 c 0
 257 -172 271 -166 286 -156 c 1
 304 -195 l 1
 281 -213 248 -225 213 -225 c 0
EndSplineSet
Ligature2: "'ccmp' Glyph Composition/Decomposition lookup 12 subtable" I uni0328
EndChar

StartChar: uni1EC8
Encoding: 7880 7880 135
Width: 600
Flags: MW
HStem: 0 66<35 211 49 211 288 439> 591 65<167 316 152 573 394 394 394 559> 824 48<317 335>
VStem: 35 538
LayerCount: 2
Fore
SplineSet
35 0 m 1
 49 66 l 1
 211 66 l 1
 316 591 l 1
 152 591 l 1
 167 656 l 1
 573 656 l 1
 559 591 l 1
 394 591 l 1
 288 66 l 1
 454 66 l 1
 439 0 l 1
 35 0 l 1
330 698 m 1
 328 736 l 1
 361 745 388 757 392 782 c 0
 397 808 371 822 317 824 c 1
 335 872 l 1
 422 869 467 842 458 791 c 0
 447 733 389 708 330 698 c 1
EndSplineSet
EndChar

StartChar: uni1ECA
Encoding: 7882 7882 136
Width: 600
Flags: MW
HStem: -236 122<192.5 218> 0 66<35 211 49 211 288 439> 591 65<167 316 152 573 394 394 394 559>
VStem: 142 127<-186.5 -164>
LayerCount: 2
Fore
SplineSet
35 0 m 1
 49 66 l 1
 211 66 l 1
 316 591 l 1
 152 591 l 1
 167 656 l 1
 573 656 l 1
 559 591 l 1
 394 591 l 1
 288 66 l 1
 454 66 l 1
 439 0 l 1
 35 0 l 1
199 -236 m 0
 167 -236 142 -217 142 -183 c 0
 142 -145 174 -114 211 -114 c 0
 246 -114 269 -133 269 -167 c 0
 269 -206 237 -236 199 -236 c 0
EndSplineSet
EndChar

StartChar: Ibreve
Encoding: 300 300 137
Width: 600
Flags: MW
HStem: 0 66<35 211 49 211 288 439> 591 65<167 316 152 573 394 394 394 559> 705 53<359 416.5 359 424.5>
VStem: 254 52<838 846>
LayerCount: 2
Fore
SplineSet
35 0 m 1
 49 66 l 1
 211 66 l 1
 316 591 l 1
 152 591 l 1
 167 656 l 1
 573 656 l 1
 559 591 l 1
 394 591 l 1
 288 66 l 1
 454 66 l 1
 439 0 l 1
 35 0 l 1
377 705 m 0
 285 705 250 765 254 838 c 1
 306 846 l 1
 304 796 330 758 388 758 c 0
 445 758 482 797 500 846 c 1
 549 838 l 1
 528 765 472 705 377 705 c 0
EndSplineSet
EndChar

StartChar: Jcircumflex
Encoding: 308 308 138
Width: 600
Flags: MW
HStem: -12 67<180.5 258.5 180.5 279> 591 65<188 450 175 540> 797 49<394 398 394 394>
VStem: 23 517
LayerCount: 2
Fore
SplineSet
209 -12 m 0
 119 -12 57 35 23 90 c 1
 75 136 l 1
 106 87 149 55 212 55 c 0
 305 55 354 111 377 227 c 2
 450 591 l 1
 175 591 l 1
 188 656 l 1
 540 656 l 1
 451 211 l 2
 422 69 349 -12 209 -12 c 0
260 699 m 1
 227 727 l 1
 357 846 l 1
 444 846 l 1
 532 725 l 1
 494 700 l 1
 398 797 l 1
 394 797 l 1
 260 699 l 1
EndSplineSet
EndChar

StartChar: uni0136
Encoding: 310 310 139
Width: 600
Flags: MW
HStem: -226 39<160 160> -95 37<214 237> 0 21G<42 119 42 42 432 519 432 432>
VStem: 277 65<-148.5 -122.5>
LayerCount: 2
Fore
SplineSet
618 656 m 1
 346 391 l 1
 519 0 l 1
 432 0 l 1
 288 334 l 1
 162 212 l 1
 119 0 l 1
 42 0 l 1
 173 656 l 1
 251 656 l 1
 182 319 l 1
 186 319 l 1
 530 656 l 1
 618 656 l 1
160 -226 m 1
 160 -187 l 1
 240 -184 277 -163 277 -134 c 0
 277 -111 259 -97 214 -95 c 1
 237 -58 l 1
 323 -65 342 -88 342 -124 c 0
 342 -190 266 -224 160 -226 c 1
EndSplineSet
EndChar

StartChar: uni1E32
Encoding: 7730 7730 140
Width: 600
Flags: MW
HStem: -236 122<245.5 271> 0 21G<42 119 42 42 432 519 432 432>
VStem: 195 127<-186.5 -164>
LayerCount: 2
Fore
SplineSet
618 656 m 1
 346 391 l 1
 519 0 l 1
 432 0 l 1
 288 334 l 1
 162 212 l 1
 119 0 l 1
 42 0 l 1
 173 656 l 1
 251 656 l 1
 182 319 l 1
 186 319 l 1
 530 656 l 1
 618 656 l 1
252 -236 m 0
 220 -236 195 -217 195 -183 c 0
 195 -145 227 -114 264 -114 c 0
 299 -114 322 -133 322 -167 c 0
 322 -206 290 -236 252 -236 c 0
EndSplineSet
EndChar

StartChar: uni1E34
Encoding: 7732 7732 141
Width: 600
Flags: MW
HStem: -187 54<127 392 137 382> 0 21G<42 119 42 42 432 519 432 432>
VStem: 42 576
LayerCount: 2
Fore
SplineSet
618 656 m 1
 346 391 l 1
 519 0 l 1
 432 0 l 1
 288 334 l 1
 162 212 l 1
 119 0 l 1
 42 0 l 1
 173 656 l 1
 251 656 l 1
 182 319 l 1
 186 319 l 1
 530 656 l 1
 618 656 l 1
127 -187 m 1
 137 -133 l 1
 392 -133 l 1
 382 -187 l 1
 127 -187 l 1
EndSplineSet
EndChar

StartChar: Lacute
Encoding: 313 313 142
Width: 600
Flags: MW
HStem: 0 66<190 502>
VStem: 99 416<0 66>
LayerCount: 2
Fore
SplineSet
99 0 m 1
 230 656 l 1
 308 656 l 1
 190 66 l 1
 515 66 l 1
 502 0 l 1
 99 0 l 1
259 703 m 1
 229 747 l 1
 394 863 l 1
 431 803 l 1
 259 703 l 1
EndSplineSet
EndChar

StartChar: Lcaron
Encoding: 317 317 143
Width: 600
Flags: MW
HStem: 0 66<190 502> 533 123<230 424 230 475>
VStem: 99 446
LayerCount: 2
Fore
SplineSet
99 0 m 1
 230 656 l 1
 308 656 l 1
 190 66 l 1
 515 66 l 1
 502 0 l 1
 99 0 l 1
424 533 m 1
 473 801 l 1
 545 801 l 1
 527 720 l 1
 475 533 l 1
 424 533 l 1
EndSplineSet
EndChar

StartChar: uni013B
Encoding: 315 315 144
Width: 600
Flags: MW
HStem: -226 39<178 178> -95 37<232 255> 0 66<190 502>
VStem: 295 65<-148.5 -122.5>
LayerCount: 2
Fore
SplineSet
99 0 m 1
 230 656 l 1
 308 656 l 1
 190 66 l 1
 515 66 l 1
 502 0 l 1
 99 0 l 1
178 -226 m 1
 178 -187 l 1
 258 -184 295 -163 295 -134 c 0
 295 -111 277 -97 232 -95 c 1
 255 -58 l 1
 341 -65 360 -88 360 -124 c 0
 360 -190 284 -224 178 -226 c 1
EndSplineSet
EndChar

StartChar: uni1E36
Encoding: 7734 7734 145
Width: 600
Flags: MW
HStem: -236 122<263.5 289> 0 66<190 502>
VStem: 213 127<-186.5 -164>
LayerCount: 2
Fore
SplineSet
99 0 m 1
 230 656 l 1
 308 656 l 1
 190 66 l 1
 515 66 l 1
 502 0 l 1
 99 0 l 1
270 -236 m 0
 238 -236 213 -217 213 -183 c 0
 213 -145 245 -114 282 -114 c 0
 317 -114 340 -133 340 -167 c 0
 340 -206 308 -236 270 -236 c 0
EndSplineSet
EndChar

StartChar: uni1E38
Encoding: 7736 7736 146
Width: 600
Flags: MW
HStem: -236 122<263.5 289> 0 66<190 502> 729 54<158 425 169 414>
VStem: 213 127<-186.5 -164>
LayerCount: 2
Fore
SplineSet
99 0 m 1
 230 656 l 1
 308 656 l 1
 190 66 l 1
 515 66 l 1
 502 0 l 1
 99 0 l 1
158 729 m 1
 169 783 l 1
 425 783 l 1
 414 729 l 1
 158 729 l 1
270 -236 m 0
 238 -236 213 -217 213 -183 c 0
 213 -145 245 -114 282 -114 c 0
 317 -114 340 -133 340 -167 c 0
 340 -206 308 -236 270 -236 c 0
EndSplineSet
EndChar

StartChar: uni1E3A
Encoding: 7738 7738 147
Width: 600
Flags: MW
HStem: -187 54<145 410 155 400> 0 66<190 502>
VStem: 99 416<0 66>
LayerCount: 2
Fore
SplineSet
99 0 m 1
 230 656 l 1
 308 656 l 1
 190 66 l 1
 515 66 l 1
 502 0 l 1
 99 0 l 1
145 -187 m 1
 155 -133 l 1
 410 -133 l 1
 400 -187 l 1
 145 -187 l 1
EndSplineSet
EndChar

StartChar: Lslash
Encoding: 321 321 148
Width: 600
GlyphClass: 2
Flags: MW
HStem: 0 66<190 502>
VStem: 42 473<66 251>
AnchorPoint: "Anchor-3" 305 -20 basechar 0
AnchorPoint: "Anchor-0" 275 676 basechar 0
LayerCount: 2
Fore
SplineSet
63 198 m 1
 42 251 l 1
 160 306 l 1
 230 656 l 1
 308 656 l 1
 246 344 l 1
 466 451 l 1
 487 399 l 1
 232 277 l 1
 190 66 l 1
 515 66 l 1
 502 0 l 1
 99 0 l 1
 146 238 l 1
 63 198 l 1
EndSplineSet
EndChar

StartChar: Ldot
Encoding: 319 319 149
Width: 600
Flags: MW
HStem: 0 66<190 502> 287 122<480.5 506>
VStem: 430 127<336.5 359>
LayerCount: 2
Fore
SplineSet
99 0 m 1
 230 656 l 1
 308 656 l 1
 190 66 l 1
 515 66 l 1
 502 0 l 1
 99 0 l 1
487 287 m 0
 455 287 430 306 430 340 c 0
 430 378 462 409 499 409 c 0
 534 409 557 390 557 356 c 0
 557 317 525 287 487 287 c 0
EndSplineSet
EndChar

StartChar: uni1E3E
Encoding: 7742 7742 150
Width: 600
Flags: MW
HStem: 0 21G<15 15 15 86 386 386 386 459> 178 84<284 288 284 304 240 288> 568 88<188 192 188 188 509 513 509 509>
VStem: 15 574
LayerCount: 2
Fore
SplineSet
15 0 m 1
 146 656 l 1
 240 656 l 1
 278 359 l 1
 284 262 l 1
 288 262 l 1
 332 358 l 1
 496 656 l 1
 589 656 l 1
 459 0 l 1
 386 0 l 1
 464 386 l 2
 474 436 498 516 513 568 c 1
 509 568 l 1
 498 546 464 478 444 441 c 2
 304 178 l 1
 240 178 l 1
 206 436 l 2
 203 457 196 545 192 568 c 1
 188 568 l 1
 182 510 174 432 166 394 c 2
 86 0 l 1
 15 0 l 1
357 703 m 1
 327 747 l 1
 492 863 l 1
 529 803 l 1
 357 703 l 1
EndSplineSet
EndChar

StartChar: uni1E40
Encoding: 7744 7744 151
Width: 600
Flags: MW
HStem: 0 21G<15 15 15 86 386 386 386 459> 178 84<284 288 284 304 240 288> 568 88<188 192 188 188 509 513 509 509> 716 103<380.5 402.5>
VStem: 338 107<756.5 777>
LayerCount: 2
Fore
SplineSet
15 0 m 1
 146 656 l 1
 240 656 l 1
 278 359 l 1
 284 262 l 1
 288 262 l 1
 332 358 l 1
 496 656 l 1
 589 656 l 1
 459 0 l 1
 386 0 l 1
 464 386 l 2
 474 436 498 516 513 568 c 1
 509 568 l 1
 498 546 464 478 444 441 c 2
 304 178 l 1
 240 178 l 1
 206 436 l 2
 203 457 196 545 192 568 c 1
 188 568 l 1
 182 510 174 432 166 394 c 2
 86 0 l 1
 15 0 l 1
387 716 m 0
 361 716 338 732 338 761 c 0
 338 793 365 819 396 819 c 0
 422 819 445 802 445 773 c 0
 445 740 418 716 387 716 c 0
EndSplineSet
EndChar

StartChar: uni1E42
Encoding: 7746 7746 152
Width: 600
Flags: MW
HStem: -236 122<192.5 218> 0 21G<15 15 15 86 386 386 386 459> 178 84<284 288 284 304 240 288> 568 88<188 192 188 188 509 513 509 509>
VStem: 142 127<-186.5 -164>
LayerCount: 2
Fore
SplineSet
15 0 m 1
 146 656 l 1
 240 656 l 1
 278 359 l 1
 284 262 l 1
 288 262 l 1
 332 358 l 1
 496 656 l 1
 589 656 l 1
 459 0 l 1
 386 0 l 1
 464 386 l 2
 474 436 498 516 513 568 c 1
 509 568 l 1
 498 546 464 478 444 441 c 2
 304 178 l 1
 240 178 l 1
 206 436 l 2
 203 457 196 545 192 568 c 1
 188 568 l 1
 182 510 174 432 166 394 c 2
 86 0 l 1
 15 0 l 1
199 -236 m 0
 167 -236 142 -217 142 -183 c 0
 142 -145 174 -114 211 -114 c 0
 246 -114 269 -133 269 -167 c 0
 269 -206 237 -236 199 -236 c 0
EndSplineSet
EndChar

StartChar: Nacute
Encoding: 323 323 153
Width: 600
Flags: MW
HStem: 0 21G<25 25 25 99 375 375 375 453> 0 99<375 410 406 410 406 453> 558 98<199 203 199 199>
VStem: 25 559
LayerCount: 2
Fore
SplineSet
25 0 m 1xb0
 156 656 l 1
 235 656 l 1
 369 234 l 1
 406 99 l 1
 410 99 l 1x70
 418 164 429 246 440 301 c 2
 510 656 l 1
 584 656 l 1
 453 0 l 1
 375 0 l 1
 240 422 l 1
 203 558 l 1
 199 558 l 1
 190 492 180 414 168 351 c 2
 99 0 l 1
 25 0 l 1xb0
357 703 m 1
 327 747 l 1
 492 863 l 1
 529 803 l 1
 357 703 l 1
EndSplineSet
EndChar

StartChar: uni01F8
Encoding: 504 504 154
Width: 600
Flags: MW
HStem: 0 21G<25 25 25 99 375 375 375 453> 0 99<375 410 406 410 406 453> 558 98<199 203 199 199>
VStem: 25 559
LayerCount: 2
Fore
SplineSet
25 0 m 1xb0
 156 656 l 1
 235 656 l 1
 369 234 l 1
 406 99 l 1
 410 99 l 1x70
 418 164 429 246 440 301 c 2
 510 656 l 1
 584 656 l 1
 453 0 l 1
 375 0 l 1
 240 422 l 1
 203 558 l 1
 199 558 l 1
 190 492 180 414 168 351 c 2
 99 0 l 1
 25 0 l 1xb0
401 693 m 1
 267 820 l 1
 322 870 l 1
 444 730 l 1
 401 693 l 1
EndSplineSet
EndChar

StartChar: Ncaron
Encoding: 327 327 155
Width: 600
Flags: MW
HStem: 0 21G<25 25 25 99 375 375 375 453> 0 99<375 410 406 410 406 453> 558 98<199 203 199 199> 706 50<341 391 387 391 387 428>
VStem: 25 559
LayerCount: 2
Fore
SplineSet
25 0 m 1xb8
 156 656 l 1
 235 656 l 1
 369 234 l 1
 406 99 l 1
 410 99 l 1x78
 418 164 429 246 440 301 c 2
 510 656 l 1
 584 656 l 1
 453 0 l 1
 375 0 l 1
 240 422 l 1
 203 558 l 1
 199 558 l 1
 190 492 180 414 168 351 c 2
 99 0 l 1
 25 0 l 1xb8
341 706 m 1
 253 827 l 1
 291 852 l 1
 387 756 l 1
 391 756 l 1
 525 853 l 1
 558 825 l 1
 428 706 l 1
 341 706 l 1
EndSplineSet
EndChar

StartChar: Ntilde
Encoding: 209 209 156
Width: 600
Flags: MW
HStem: 0 21G<25 25 25 99 375 375 375 453> 0 99<375 410 406 410 406 453> 558 98<199 203 199 199> 698 20G<209 209> 709 60<440.5 476 440.5 484> 781 60<310.5 345.5>
VStem: 25 559
LayerCount: 2
Fore
SplineSet
25 0 m 1xb6
 156 656 l 1
 235 656 l 1
 369 234 l 1
 406 99 l 1
 410 99 l 1x6e
 418 164 429 246 440 301 c 2
 510 656 l 1
 584 656 l 1
 453 0 l 1
 375 0 l 1
 240 422 l 1
 203 558 l 1
 199 558 l 1
 190 492 180 414 168 351 c 2
 99 0 l 1
 25 0 l 1xb6
454 709 m 0
 386 709 368 781 323 781 c 0
 298 781 276 757 263 714 c 1
 209 718 l 1xb6
 225 796 272 841 332 841 c 0
 401 841 418 769 463 769 c 0
 489 769 510 792 523 836 c 1
 577 832 l 1
 561 753 514 709 454 709 c 0
EndSplineSet
EndChar

StartChar: uni0145
Encoding: 325 325 157
Width: 600
Flags: MW
HStem: -226 39<122 122> -95 37<176 199> 0 21G<25 25 25 99 375 375 375 453> 0 99<375 410 406 410 406 453> 558 98<199 203 199 199>
VStem: 239 65<-148.5 -122.5>
LayerCount: 2
Fore
SplineSet
25 0 m 1xec
 156 656 l 1
 235 656 l 1
 369 234 l 1
 406 99 l 1
 410 99 l 1xdc
 418 164 429 246 440 301 c 2
 510 656 l 1
 584 656 l 1
 453 0 l 1
 375 0 l 1
 240 422 l 1
 203 558 l 1
 199 558 l 1
 190 492 180 414 168 351 c 2
 99 0 l 1
 25 0 l 1xec
122 -226 m 1
 122 -187 l 1
 202 -184 239 -163 239 -134 c 0
 239 -111 221 -97 176 -95 c 1
 199 -58 l 1
 285 -65 304 -88 304 -124 c 0
 304 -190 228 -224 122 -226 c 1
EndSplineSet
EndChar

StartChar: uni1E44
Encoding: 7748 7748 158
Width: 600
Flags: MW
HStem: 0 21G<25 25 25 99 375 375 375 453> 0 99<375 410 406 410 406 453> 558 98<199 203 199 199> 716 103<380.5 402.5>
VStem: 338 107<756.5 777>
LayerCount: 2
Fore
SplineSet
25 0 m 1xb8
 156 656 l 1
 235 656 l 1
 369 234 l 1
 406 99 l 1
 410 99 l 1x78
 418 164 429 246 440 301 c 2
 510 656 l 1
 584 656 l 1
 453 0 l 1
 375 0 l 1
 240 422 l 1
 203 558 l 1
 199 558 l 1
 190 492 180 414 168 351 c 2
 99 0 l 1
 25 0 l 1xb8
387 716 m 0
 361 716 338 732 338 761 c 0
 338 793 365 819 396 819 c 0
 422 819 445 802 445 773 c 0
 445 740 418 716 387 716 c 0
EndSplineSet
EndChar

StartChar: uni1E46
Encoding: 7750 7750 159
Width: 600
Flags: MW
HStem: -236 122<207.5 233> 0 21G<25 25 25 99 375 375 375 453> 0 99<375 410 406 410 406 453> 558 98<199 203 199 199>
VStem: 157 127<-186.5 -164>
LayerCount: 2
Fore
SplineSet
25 0 m 1xd8
 156 656 l 1
 235 656 l 1
 369 234 l 1
 406 99 l 1
 410 99 l 1xb8
 418 164 429 246 440 301 c 2
 510 656 l 1
 584 656 l 1
 453 0 l 1
 375 0 l 1
 240 422 l 1
 203 558 l 1
 199 558 l 1
 190 492 180 414 168 351 c 2
 99 0 l 1
 25 0 l 1xd8
214 -236 m 0
 182 -236 157 -217 157 -183 c 0
 157 -145 189 -114 226 -114 c 0
 261 -114 284 -133 284 -167 c 0
 284 -206 252 -236 214 -236 c 0
EndSplineSet
EndChar

StartChar: uni1E48
Encoding: 7752 7752 160
Width: 600
Flags: MW
HStem: -187 54<89 354 99 344> 0 21G<25 25 25 99 375 375 375 453> 0 99<375 410 406 410 406 453> 558 98<199 203 199 199>
VStem: 25 559
LayerCount: 2
Fore
SplineSet
25 0 m 1xd8
 156 656 l 1
 235 656 l 1
 369 234 l 1
 406 99 l 1
 410 99 l 1xb8
 418 164 429 246 440 301 c 2
 510 656 l 1
 584 656 l 1
 453 0 l 1
 375 0 l 1
 240 422 l 1
 203 558 l 1
 199 558 l 1
 190 492 180 414 168 351 c 2
 99 0 l 1
 25 0 l 1xd8
89 -187 m 1
 99 -133 l 1
 354 -133 l 1
 344 -187 l 1
 89 -187 l 1
EndSplineSet
EndChar

StartChar: Ograve
Encoding: 210 210 161
Width: 600
Flags: MW
HStem: -12 67<213.5 332.5 213.5 351> 601 67<276.5 395.5>
VStem: 41 79<186 329 186 351.5> 488 79<327.5 470.5>
LayerCount: 2
Fore
SplineSet
254 -12 m 0
 120 -12 41 92 41 247 c 0
 41 456 161 668 355 668 c 0
 489 668 567 565 567 409 c 0
 567 201 448 -12 254 -12 c 0
261 55 m 0
 404 55 488 242 488 413 c 0
 488 528 443 601 348 601 c 0
 205 601 120 414 120 244 c 0
 120 128 166 55 261 55 c 0
401 693 m 1
 267 820 l 1
 322 870 l 1
 444 730 l 1
 401 693 l 1
EndSplineSet
EndChar

StartChar: Oacute
Encoding: 211 211 162
Width: 600
Flags: MW
HStem: -12 67<213.5 332.5 213.5 351> 601 67<276.5 395.5>
VStem: 41 79<186 329 186 351.5> 488 79<327.5 470.5>
LayerCount: 2
Fore
SplineSet
254 -12 m 0
 120 -12 41 92 41 247 c 0
 41 456 161 668 355 668 c 0
 489 668 567 565 567 409 c 0
 567 201 448 -12 254 -12 c 0
261 55 m 0
 404 55 488 242 488 413 c 0
 488 528 443 601 348 601 c 0
 205 601 120 414 120 244 c 0
 120 128 166 55 261 55 c 0
357 703 m 1
 327 747 l 1
 492 863 l 1
 529 803 l 1
 357 703 l 1
EndSplineSet
EndChar

StartChar: Ocircumflex
Encoding: 212 212 163
Width: 600
Flags: MW
HStem: -12 67<213.5 332.5 213.5 351> 601 67<276.5 395.5> 797 49<395 399 395 395>
VStem: 41 79<186 329 186 351.5> 488 79<327.5 470.5>
LayerCount: 2
Fore
SplineSet
254 -12 m 0
 120 -12 41 92 41 247 c 0
 41 456 161 668 355 668 c 0
 489 668 567 565 567 409 c 0
 567 201 448 -12 254 -12 c 0
261 55 m 0
 404 55 488 242 488 413 c 0
 488 528 443 601 348 601 c 0
 205 601 120 414 120 244 c 0
 120 128 166 55 261 55 c 0
261 699 m 1
 228 727 l 1
 358 846 l 1
 445 846 l 1
 533 725 l 1
 495 700 l 1
 399 797 l 1
 395 797 l 1
 261 699 l 1
EndSplineSet
MultipleSubs2: "Multiple Substitution lookup 8 subtable" O uni0302
EndChar

StartChar: Otilde
Encoding: 213 213 164
Width: 600
Flags: MW
HStem: -12 67<213.5 332.5 213.5 351> 601 67<276.5 395.5> 698 20G<209 209> 709 60<440.5 476 440.5 484> 781 60<310.5 345.5>
VStem: 41 79<186 329 186 351.5> 488 79<327.5 470.5>
LayerCount: 2
Fore
SplineSet
254 -12 m 0xee
 120 -12 41 92 41 247 c 0
 41 456 161 668 355 668 c 0
 489 668 567 565 567 409 c 0
 567 201 448 -12 254 -12 c 0xee
261 55 m 0
 404 55 488 242 488 413 c 0
 488 528 443 601 348 601 c 0
 205 601 120 414 120 244 c 0
 120 128 166 55 261 55 c 0
454 709 m 0xde
 386 709 368 781 323 781 c 0
 298 781 276 757 263 714 c 1
 209 718 l 1xee
 225 796 272 841 332 841 c 0
 401 841 418 769 463 769 c 0
 489 769 510 792 523 836 c 1
 577 832 l 1
 561 753 514 709 454 709 c 0xde
EndSplineSet
EndChar

StartChar: Odieresis
Encoding: 214 214 165
Width: 600
GlyphClass: 2
Flags: MW
HStem: -12 67<213.5 332.5 213.5 351> 601 67<276.5 395.5> 715 95<289.5 307 475 493>
VStem: 41 79<186 329 186 351.5> 253 90<755 769.5> 439 90<755 769.5> 488 79<327.5 470.5>
AnchorPoint: "Anchor-6" 238 0 basechar 0
LayerCount: 2
Fore
SplineSet
254 -12 m 0xfa
 120 -12 41 92 41 247 c 0
 41 456 161 668 355 668 c 0
 489 668 567 565 567 409 c 0
 567 201 448 -12 254 -12 c 0xfa
261 55 m 0
 404 55 488 242 488 413 c 0
 488 528 443 601 348 601 c 0
 205 601 120 414 120 244 c 0
 120 128 166 55 261 55 c 0
293 715 m 0
 270 715 253 730 253 755 c 0
 253 784 276 810 303 810 c 0
 326 810 343 795 343 769 c 0
 343 741 321 715 293 715 c 0
479 715 m 0xfc
 455 715 439 730 439 755 c 0
 439 784 461 810 489 810 c 0
 512 810 529 795 529 769 c 0
 529 741 507 715 479 715 c 0xfc
EndSplineSet
EndChar

StartChar: Omacron
Encoding: 332 332 166
Width: 600
Flags: MW
HStem: -12 67<213.5 332.5 213.5 351> 601 67<276.5 395.5> 729 54<256 523 267 512>
VStem: 41 79<186 329 186 351.5> 488 79<327.5 470.5>
LayerCount: 2
Fore
SplineSet
254 -12 m 0
 120 -12 41 92 41 247 c 0
 41 456 161 668 355 668 c 0
 489 668 567 565 567 409 c 0
 567 201 448 -12 254 -12 c 0
261 55 m 0
 404 55 488 242 488 413 c 0
 488 528 443 601 348 601 c 0
 205 601 120 414 120 244 c 0
 120 128 166 55 261 55 c 0
256 729 m 1
 267 783 l 1
 523 783 l 1
 512 729 l 1
 256 729 l 1
EndSplineSet
MultipleSubs2: "Multiple Substitution lookup 8 subtable" O uni0304
EndChar

StartChar: Ohungarumlaut
Encoding: 336 336 167
Width: 600
Flags: MW
HStem: -12 67<213.5 332.5 213.5 351> 601 67<276.5 395.5>
VStem: 41 79<186 329 186 351.5> 488 79<327.5 470.5>
LayerCount: 2
Fore
SplineSet
254 -12 m 0
 120 -12 41 92 41 247 c 0
 41 456 161 668 355 668 c 0
 489 668 567 565 567 409 c 0
 567 201 448 -12 254 -12 c 0
261 55 m 0
 404 55 488 242 488 413 c 0
 488 528 443 601 348 601 c 0
 205 601 120 414 120 244 c 0
 120 128 166 55 261 55 c 0
319 706 m 1
 280 731 l 1
 399 873 l 1
 449 837 l 1
 319 706 l 1
479 706 m 1
 440 731 l 1
 559 873 l 1
 609 837 l 1
 479 706 l 1
EndSplineSet
EndChar

StartChar: Obreve
Encoding: 334 334 168
Width: 600
Flags: MW
HStem: -12 67<213.5 332.5 213.5 351> 601 67<276.5 395.5> 705 53<359 416.5 359 424.5>
VStem: 41 79<186 329 186 351.5> 254 52<838 846> 488 79<327.5 470.5>
LayerCount: 2
Fore
SplineSet
254 -12 m 0
 120 -12 41 92 41 247 c 0
 41 456 161 668 355 668 c 0
 489 668 567 565 567 409 c 0
 567 201 448 -12 254 -12 c 0
261 55 m 0
 404 55 488 242 488 413 c 0
 488 528 443 601 348 601 c 0
 205 601 120 414 120 244 c 0
 120 128 166 55 261 55 c 0
377 705 m 0
 285 705 250 765 254 838 c 1
 306 846 l 1
 304 796 330 758 388 758 c 0
 445 758 482 797 500 846 c 1
 549 838 l 1
 528 765 472 705 377 705 c 0
EndSplineSet
EndChar

StartChar: uni01D1
Encoding: 465 465 169
Width: 600
Flags: MW
HStem: -12 67<213.5 332.5 213.5 351> 601 67<276.5 395.5> 706 50<341 391 387 391 387 428>
VStem: 41 79<186 329 186 351.5> 488 79<327.5 470.5>
LayerCount: 2
Fore
SplineSet
254 -12 m 0
 120 -12 41 92 41 247 c 0
 41 456 161 668 355 668 c 0
 489 668 567 565 567 409 c 0
 567 201 448 -12 254 -12 c 0
261 55 m 0
 404 55 488 242 488 413 c 0
 488 528 443 601 348 601 c 0
 205 601 120 414 120 244 c 0
 120 128 166 55 261 55 c 0
341 706 m 1
 253 827 l 1
 291 852 l 1
 387 756 l 1
 391 756 l 1
 525 853 l 1
 558 825 l 1
 428 706 l 1
 341 706 l 1
EndSplineSet
EndChar

StartChar: uni01EA
Encoding: 490 490 170
Width: 600
GlyphClass: 2
Flags: MW
HStem: -225 53<222.5 229> -10 21G -10 64 601 67<276.5 395.5>
VStem: 41 79<185.5 329> 120 63<-141.5 -121.5> 488 79<326.5 470.5>
AnchorPoint: "Anchor-0" 373 676 basechar 0
LayerCount: 2
Fore
SplineSet
212 -225 m 0xd6
 162 -225 120 -202 120 -150 c 0xd6
 120 -93 168 -39 218 -10 c 1
 117 5 41 92 41 247 c 0x5a
 41 456 161 668 355 668 c 0
 489 668 567 565 567 409 c 0
 567 218 471 29 305 -8 c 0
 220 -26 183 -93 183 -126 c 0
 183 -157 207 -172 238 -172 c 0
 256 -172 270 -166 285 -156 c 1
 303 -195 l 1
 280 -213 246 -225 212 -225 c 0xd6
261 54 m 0x3a
 404 54 488 240 488 413 c 0
 488 528 443 601 348 601 c 0
 205 601 120 414 120 244 c 0
 120 127 166 54 261 54 c 0x3a
EndSplineSet
Ligature2: "'ccmp' Glyph Composition/Decomposition lookup 12 subtable" O uni0328
EndChar

StartChar: uni1ECC
Encoding: 7884 7884 171
Width: 600
Flags: MW
HStem: -236 122<191.5 217> -12 67<213.5 332.5 213.5 351> 601 67<276.5 395.5>
VStem: 41 79<186 329 186 351.5> 141 127<-186.5 -164> 488 79<327.5 470.5>
LayerCount: 2
Fore
SplineSet
254 -12 m 0
 120 -12 41 92 41 247 c 0
 41 456 161 668 355 668 c 0
 489 668 567 565 567 409 c 0
 567 201 448 -12 254 -12 c 0
261 55 m 0
 404 55 488 242 488 413 c 0
 488 528 443 601 348 601 c 0
 205 601 120 414 120 244 c 0
 120 128 166 55 261 55 c 0
198 -236 m 0xfc
 166 -236 141 -217 141 -183 c 0
 141 -145 173 -114 210 -114 c 0
 245 -114 268 -133 268 -167 c 0
 268 -206 236 -236 198 -236 c 0xfc
EndSplineSet
EndChar

StartChar: uni1ECE
Encoding: 7886 7886 172
Width: 600
Flags: MW
HStem: -12 67<213.5 332.5 213.5 351> 601 67<276.5 395.5> 824 48<317 335>
VStem: 41 79<186 329 186 351.5> 488 79<327.5 470.5>
LayerCount: 2
Fore
SplineSet
254 -12 m 0
 120 -12 41 92 41 247 c 0
 41 456 161 668 355 668 c 0
 489 668 567 565 567 409 c 0
 567 201 448 -12 254 -12 c 0
261 55 m 0
 404 55 488 242 488 413 c 0
 488 528 443 601 348 601 c 0
 205 601 120 414 120 244 c 0
 120 128 166 55 261 55 c 0
330 698 m 1
 328 736 l 1
 361 745 388 757 392 782 c 0
 397 808 371 822 317 824 c 1
 335 872 l 1
 422 869 467 842 458 791 c 0
 447 733 389 708 330 698 c 1
EndSplineSet
EndChar

StartChar: uni1ED0
Encoding: 7888 7888 173
Width: 600
Flags: MW
HStem: -12 67<213.5 332.5 213.5 351> 601 67<276.5 395.5> 704 20G<512 512> 768 47<392 396 392 392>
VStem: 41 79<186 329 186 351.5> 488 79<327.5 470.5>
LayerCount: 2
Fore
SplineSet
254 -12 m 0
 120 -12 41 92 41 247 c 0
 41 456 161 668 355 668 c 0
 489 668 567 565 567 409 c 0
 567 201 448 -12 254 -12 c 0
261 55 m 0
 404 55 488 242 488 413 c 0
 488 528 443 601 348 601 c 0
 205 601 120 414 120 244 c 0
 120 128 166 55 261 55 c 0
284 699 m 1
 254 725 l 1
 363 815 l 1
 436 815 l 1
 512 724 l 1
 475 699 l 1
 396 768 l 1
 392 768 l 1
 284 699 l 1
507 768 m 1
 483 801 l 1
 597 884 l 1
 623 843 l 1
 507 768 l 1
EndSplineSet
EndChar

StartChar: uni1ED2
Encoding: 7890 7890 174
Width: 600
Flags: MW
HStem: -12 67<213.5 332.5 213.5 351> 601 67<276.5 395.5> 704 20G<512 512> 768 47<392 396 392 392>
VStem: 41 79<186 329 186 351.5> 488 79<327.5 470.5>
LayerCount: 2
Fore
SplineSet
254 -12 m 0
 120 -12 41 92 41 247 c 0
 41 456 161 668 355 668 c 0
 489 668 567 565 567 409 c 0
 567 201 448 -12 254 -12 c 0
261 55 m 0
 404 55 488 242 488 413 c 0
 488 528 443 601 348 601 c 0
 205 601 120 414 120 244 c 0
 120 128 166 55 261 55 c 0
284 699 m 1
 254 725 l 1
 363 815 l 1
 436 815 l 1
 512 724 l 1
 475 699 l 1
 396 768 l 1
 392 768 l 1
 284 699 l 1
278 774 m 1
 190 855 l 1
 229 890 l 1
 312 801 l 1
 278 774 l 1
EndSplineSet
EndChar

StartChar: uni1ED4
Encoding: 7892 7892 175
Width: 600
Flags: MW
HStem: -12 67<213.5 332.5 213.5 351> 601 67<276.5 395.5> 704 20G<512 512> 768 47<392 396 392 392> 865 41<486 499>
VStem: 41 79<186 329 186 351.5> 488 79<327.5 470.5>
LayerCount: 2
Fore
SplineSet
254 -12 m 0
 120 -12 41 92 41 247 c 0
 41 456 161 668 355 668 c 0
 489 668 567 565 567 409 c 0
 567 201 448 -12 254 -12 c 0
261 55 m 0
 404 55 488 242 488 413 c 0
 488 528 443 601 348 601 c 0
 205 601 120 414 120 244 c 0
 120 128 166 55 261 55 c 0
284 699 m 1
 254 725 l 1
 363 815 l 1
 436 815 l 1
 512 724 l 1
 475 699 l 1
 396 768 l 1
 392 768 l 1
 284 699 l 1
502 756 m 1
 498 789 l 1
 524 795 545 804 549 825 c 0
 554 852 535 863 486 865 c 1
 499 906 l 1
 577 903 617 879 607 833 c 0
 599 783 551 763 502 756 c 1
EndSplineSet
EndChar

StartChar: uni1ED6
Encoding: 7894 7894 176
Width: 600
Flags: MW
HStem: -12 67<213.5 332.5 213.5 351> 601 67<276.5 395.5> 704 20G<512 512> 765 47<391 395 391 391> 839 51<453.5 485.5 453.5 495.5> 889 50<338 370.5>
VStem: 41 79<186 329 186 351.5> 488 79<327.5 470.5>
LayerCount: 2
Fore
SplineSet
254 -12 m 0xf7
 120 -12 41 92 41 247 c 0
 41 456 161 668 355 668 c 0
 489 668 567 565 567 409 c 0
 567 201 448 -12 254 -12 c 0xf7
261 55 m 0
 404 55 488 242 488 413 c 0
 488 528 443 601 348 601 c 0
 205 601 120 414 120 244 c 0
 120 128 166 55 261 55 c 0
283 699 m 1
 254 725 l 1
 363 812 l 1
 435 812 l 1
 512 724 l 1
 474 699 l 1
 395 765 l 1
 391 765 l 1
 283 699 l 1
468 839 m 0xfb
 405 839 391 889 350 889 c 0
 326 889 313 872 303 843 c 1
 260 848 l 1
 271 899 300 939 355 939 c 0xf7
 418 939 433 890 474 890 c 0
 497 890 510 907 520 936 c 1
 564 931 l 1
 552 879 523 839 468 839 c 0xfb
EndSplineSet
EndChar

StartChar: uni1ED8
Encoding: 7896 7896 177
Width: 600
Flags: MW
HStem: -236 122<191.5 217> -12 67<213.5 332.5 213.5 351> 601 67<276.5 395.5> 797 49<395 399 395 395>
VStem: 41 79<186 329 186 351.5> 141 127<-186.5 -164> 488 79<327.5 470.5>
LayerCount: 2
Fore
SplineSet
254 -12 m 0
 120 -12 41 92 41 247 c 0
 41 456 161 668 355 668 c 0
 489 668 567 565 567 409 c 0
 567 201 448 -12 254 -12 c 0
261 55 m 0
 404 55 488 242 488 413 c 0
 488 528 443 601 348 601 c 0
 205 601 120 414 120 244 c 0
 120 128 166 55 261 55 c 0
261 699 m 1
 228 727 l 1
 358 846 l 1
 445 846 l 1
 533 725 l 1
 495 700 l 1
 399 797 l 1
 395 797 l 1
 261 699 l 1
198 -236 m 0xfe
 166 -236 141 -217 141 -183 c 0
 141 -145 173 -114 210 -114 c 0
 245 -114 268 -133 268 -167 c 0
 268 -206 236 -236 198 -236 c 0xfe
EndSplineSet
EndChar

StartChar: Ohorn
Encoding: 416 416 178
Width: 600
GlyphClass: 2
Flags: MW
HStem: -12 67<213.5 332.5 213.5 351> 601 67<276.5 375.5 258 395.5>
VStem: 41 79<186 329 186 351.5> 488 79<327.5 450.5 305 470.5> 569 66<709.5 745.5>
AnchorPoint: "Anchor-3" 233 -20 basechar 0
AnchorPoint: "Anchor-0" 373 676 basechar 0
LayerCount: 2
Fore
SplineSet
254 -12 m 0
 120 -12 41 92 41 247 c 0
 41 456 161 668 355 668 c 0
 396 668 432 658 462 640 c 1
 530 645 569 681 569 738 c 0
 569 753 566 772 559 790 c 1
 622 812 l 1
 631 788 635 767 635 747 c 0xe8
 635 665 582 621 504 606 c 1
 545 560 567 492 567 409 c 0
 567 201 448 -12 254 -12 c 0
261 55 m 0
 404 55 488 242 488 413 c 0
 488 528 443 601 348 601 c 0
 205 601 120 414 120 244 c 0
 120 128 166 55 261 55 c 0
EndSplineSet
EndChar

StartChar: uni1EDA
Encoding: 7898 7898 179
Width: 600
Flags: MW
HStem: -12 67<213.5 332.5 213.5 351> 601 67<276.5 375.5 258 395.5>
VStem: 41 79<186 329 186 351.5> 488 79<327.5 450.5 305 470.5> 569 66<709.5 745.5>
LayerCount: 2
Fore
SplineSet
254 -12 m 0
 120 -12 41 92 41 247 c 0
 41 456 161 668 355 668 c 0
 396 668 432 658 462 640 c 1
 530 645 569 681 569 738 c 0
 569 753 566 772 559 790 c 1
 622 812 l 1
 631 788 635 767 635 747 c 0xe8
 635 665 582 621 504 606 c 1
 545 560 567 492 567 409 c 0
 567 201 448 -12 254 -12 c 0
261 55 m 0
 404 55 488 242 488 413 c 0
 488 528 443 601 348 601 c 0
 205 601 120 414 120 244 c 0
 120 128 166 55 261 55 c 0
357 703 m 1
 327 747 l 1
 492 863 l 1
 529 803 l 1
 357 703 l 1
EndSplineSet
EndChar

StartChar: uni1EDC
Encoding: 7900 7900 180
Width: 600
Flags: MW
HStem: -12 67<213.5 332.5 213.5 351> 601 67<276.5 375.5 258 395.5>
VStem: 41 79<186 329 186 351.5> 488 79<327.5 450.5 305 470.5> 569 66<709.5 745.5>
LayerCount: 2
Fore
SplineSet
254 -12 m 0
 120 -12 41 92 41 247 c 0
 41 456 161 668 355 668 c 0
 396 668 432 658 462 640 c 1
 530 645 569 681 569 738 c 0
 569 753 566 772 559 790 c 1
 622 812 l 1
 631 788 635 767 635 747 c 0xe8
 635 665 582 621 504 606 c 1
 545 560 567 492 567 409 c 0
 567 201 448 -12 254 -12 c 0
261 55 m 0
 404 55 488 242 488 413 c 0
 488 528 443 601 348 601 c 0
 205 601 120 414 120 244 c 0
 120 128 166 55 261 55 c 0
401 693 m 1
 267 820 l 1
 322 870 l 1
 444 730 l 1
 401 693 l 1
EndSplineSet
EndChar

StartChar: uni1EDE
Encoding: 7902 7902 181
Width: 600
Flags: MW
HStem: -12 67<213.5 332.5 213.5 351> 601 67<276.5 375.5 258 395.5> 824 48<317 335>
VStem: 41 79<186 329 186 351.5> 488 79<327.5 450.5 305 470.5> 569 66<709.5 745.5>
LayerCount: 2
Fore
SplineSet
254 -12 m 0
 120 -12 41 92 41 247 c 0
 41 456 161 668 355 668 c 0
 396 668 432 658 462 640 c 1
 530 645 569 681 569 738 c 0
 569 753 566 772 559 790 c 1
 622 812 l 1
 631 788 635 767 635 747 c 0xd4
 635 665 582 621 504 606 c 1
 545 560 567 492 567 409 c 0
 567 201 448 -12 254 -12 c 0
261 55 m 0
 404 55 488 242 488 413 c 0
 488 528 443 601 348 601 c 0
 205 601 120 414 120 244 c 0
 120 128 166 55 261 55 c 0
330 698 m 1
 328 736 l 1
 361 745 388 757 392 782 c 0
 397 808 371 822 317 824 c 1
 335 872 l 1
 422 869 467 842 458 791 c 0xf8
 447 733 389 708 330 698 c 1
EndSplineSet
EndChar

StartChar: uni1EE0
Encoding: 7904 7904 182
Width: 600
Flags: MW
HStem: -12 67<213.5 332.5 213.5 351> 601 67<276.5 375.5 258 395.5> 698 20G<174 174> 709 60<405.5 441 405.5 449> 781 60<275.5 310.5>
VStem: 41 79<186 329 186 351.5> 488 79<327.5 450.5 305 470.5> 569 66<709.5 745.5>
LayerCount: 2
Fore
SplineSet
254 -12 m 0xee
 120 -12 41 92 41 247 c 0
 41 456 161 668 355 668 c 0
 396 668 432 658 462 640 c 1
 530 645 569 681 569 738 c 0
 569 753 566 772 559 790 c 1
 622 812 l 1
 631 788 635 767 635 747 c 0xed
 635 665 582 621 504 606 c 1
 545 560 567 492 567 409 c 0
 567 201 448 -12 254 -12 c 0xee
261 55 m 0
 404 55 488 242 488 413 c 0
 488 528 443 601 348 601 c 0
 205 601 120 414 120 244 c 0
 120 128 166 55 261 55 c 0
419 709 m 0xde
 351 709 333 781 288 781 c 0
 263 781 241 757 228 714 c 1
 174 718 l 1xee
 190 796 237 841 297 841 c 0
 366 841 383 769 428 769 c 0
 454 769 475 792 488 836 c 1
 542 832 l 1
 526 753 479 709 419 709 c 0xde
EndSplineSet
EndChar

StartChar: uni1EE2
Encoding: 7906 7906 183
Width: 600
Flags: MW
HStem: -236 122<191.5 217> -12 67<213.5 332.5 213.5 351> 601 67<276.5 375.5 258 395.5>
VStem: 41 79<186 329 186 351.5> 141 127<-186.5 -164> 488 79<327.5 450.5 305 470.5> 569 66<709.5 745.5>
LayerCount: 2
Fore
SplineSet
254 -12 m 0
 120 -12 41 92 41 247 c 0
 41 456 161 668 355 668 c 0
 396 668 432 658 462 640 c 1
 530 645 569 681 569 738 c 0
 569 753 566 772 559 790 c 1
 622 812 l 1
 631 788 635 767 635 747 c 0x72
 635 665 582 621 504 606 c 1
 545 560 567 492 567 409 c 0
 567 201 448 -12 254 -12 c 0
261 55 m 0
 404 55 488 242 488 413 c 0
 488 528 443 601 348 601 c 0
 205 601 120 414 120 244 c 0
 120 128 166 55 261 55 c 0
198 -236 m 0xfc
 166 -236 141 -217 141 -183 c 0
 141 -145 173 -114 210 -114 c 0
 245 -114 268 -133 268 -167 c 0
 268 -206 236 -236 198 -236 c 0xfc
EndSplineSet
EndChar

StartChar: uni1E52
Encoding: 7762 7762 184
Width: 600
Flags: MW
HStem: -12 67<213.5 332.5 213.5 351> 601 67<276.5 395.5> 729 54<256 523 267 512>
VStem: 41 79<186 329 186 351.5> 488 79<327.5 470.5>
LayerCount: 2
Fore
SplineSet
254 -12 m 0
 120 -12 41 92 41 247 c 0
 41 456 161 668 355 668 c 0
 489 668 567 565 567 409 c 0
 567 201 448 -12 254 -12 c 0
261 55 m 0
 404 55 488 242 488 413 c 0
 488 528 443 601 348 601 c 0
 205 601 120 414 120 244 c 0
 120 128 166 55 261 55 c 0
256 729 m 1
 267 783 l 1
 523 783 l 1
 512 729 l 1
 256 729 l 1
404 827 m 1
 371 856 l 1
 487 965 l 1
 533 925 l 1
 404 827 l 1
EndSplineSet
EndChar

StartChar: Oslash
Encoding: 216 216 185
Width: 600
GlyphClass: 2
Flags: MW
HStem: -12 21G<223 351> -12 67<237.5 332.5 237.5 351> 601 67<276.5 372>
VStem: 41 77<230 329 230 351.5> 490 77<327.5 426>
AnchorPoint: "Anchor-2" 238 0 basechar 0
AnchorPoint: "Anchor-0" 370 676 basechar 0
LayerCount: 2
Fore
SplineSet
254 -12 m 0x78
 192 -12 142 10 106 49 c 1
 34 -34 l 1x78
 -14 6 l 1
 70 103 l 1xb8
 51 143 41 192 41 247 c 0
 41 456 161 668 355 668 c 0
 417 668 468 646 504 606 c 1
 576 690 l 1
 625 650 l 1
 539 551 l 1
 557 512 567 463 567 409 c 0
 567 201 448 -12 254 -12 c 0x78
118 244 m 0
 118 216 121 191 126 169 c 1
 455 550 l 1
 431 583 396 601 348 601 c 0
 205 601 118 414 118 244 c 0
261 55 m 0
 404 55 490 242 490 413 c 0
 490 439 488 464 483 485 c 1
 154 105 l 1
 178 73 214 55 261 55 c 0
EndSplineSet
EndChar

StartChar: Oslashacute
Encoding: 510 510 186
Width: 600
Flags: MW
HStem: -12 21G<223 351> -12 67<237.5 332.5 237.5 351> 601 67<276.5 372>
VStem: 41 77<230 329 230 351.5> 490 77<327.5 426>
LayerCount: 2
Fore
SplineSet
254 -12 m 0x78
 192 -12 142 10 106 49 c 1
 34 -34 l 1x78
 -14 6 l 1
 70 103 l 1xb8
 51 143 41 192 41 247 c 0
 41 456 161 668 355 668 c 0
 417 668 468 646 504 606 c 1
 576 690 l 1
 625 650 l 1
 539 551 l 1
 557 512 567 463 567 409 c 0
 567 201 448 -12 254 -12 c 0x78
118 244 m 0
 118 216 121 191 126 169 c 1
 455 550 l 1
 431 583 396 601 348 601 c 0
 205 601 118 414 118 244 c 0
261 55 m 0
 404 55 490 242 490 413 c 0
 490 439 488 464 483 485 c 1
 154 105 l 1
 178 73 214 55 261 55 c 0
357 703 m 1
 327 747 l 1
 492 863 l 1
 529 803 l 1
 357 703 l 1
EndSplineSet
EndChar

StartChar: OE
Encoding: 338 338 187
Width: 600
GlyphClass: 2
Flags: MW
HStem: 0 66<335 529> 312 66<398 535 386 549> 591 65<440 639 440 440>
VStem: 27 80<192.5 346.5 192.5 367>
AnchorPoint: "Anchor-2" 360 0 basechar 0
AnchorPoint: "Anchor-0" 399 676 basechar 0
LayerCount: 2
Fore
SplineSet
259 0 m 2
 95 0 27 92 27 246 c 0
 27 488 171 656 375 656 c 2
 652 656 l 1
 639 591 l 1
 440 591 l 1
 398 378 l 1
 549 378 l 1
 535 312 l 1
 386 312 l 1
 335 66 l 1
 543 66 l 1
 529 0 l 1
 259 0 l 2
262 64 m 2
 266 64 l 1
 372 593 l 1
 364 593 l 2
 207 593 107 442 107 251 c 0
 107 134 148 64 262 64 c 2
EndSplineSet
EndChar

StartChar: Racute
Encoding: 340 340 188
Width: 600
Flags: MW
HStem: 0 21G<35 35 35 112 387 387 387 473> 278 63<181 276 276 279 168 276> 594 62<230 325 230 230>
VStem: 471 79<446.5 529>
LayerCount: 2
Fore
SplineSet
35 0 m 1
 166 656 l 1
 343 656 l 2
 466 656 550 613 550 501 c 0
 550 381 466 307 356 285 c 1
 473 0 l 1
 387 0 l 1
 279 278 l 1
 168 278 l 1
 112 0 l 1
 35 0 l 1
181 341 m 1
 276 341 l 2
 401 341 471 400 471 493 c 0
 471 565 422 594 325 594 c 2
 230 594 l 1
 181 341 l 1
354 703 m 1
 324 747 l 1
 489 863 l 1
 526 803 l 1
 354 703 l 1
EndSplineSet
EndChar

StartChar: Rcaron
Encoding: 344 344 189
Width: 600
Flags: MW
HStem: 0 21G<35 35 35 112 387 387 387 473> 278 63<181 276 276 279 168 276> 594 62<230 325 230 230> 706 50<338 388 384 388 384 425>
VStem: 471 79<446.5 529>
LayerCount: 2
Fore
SplineSet
35 0 m 1
 166 656 l 1
 343 656 l 2
 466 656 550 613 550 501 c 0
 550 381 466 307 356 285 c 1
 473 0 l 1
 387 0 l 1
 279 278 l 1
 168 278 l 1
 112 0 l 1
 35 0 l 1
181 341 m 1
 276 341 l 2
 401 341 471 400 471 493 c 0
 471 565 422 594 325 594 c 2
 230 594 l 1
 181 341 l 1
338 706 m 1
 250 827 l 1
 288 852 l 1
 384 756 l 1
 388 756 l 1
 522 853 l 1
 555 825 l 1
 425 706 l 1
 338 706 l 1
EndSplineSet
EndChar

StartChar: uni1E58
Encoding: 7768 7768 190
Width: 600
Flags: MW
HStem: 0 21G<35 35 35 112 387 387 387 473> 278 63<181 276 276 279 168 276> 594 62<230 325 230 230> 716 103<377.5 399.5>
VStem: 335 107<756.5 777> 471 79<446.5 529>
LayerCount: 2
Fore
SplineSet
35 0 m 1
 166 656 l 1
 343 656 l 2
 466 656 550 613 550 501 c 0
 550 381 466 307 356 285 c 1
 473 0 l 1
 387 0 l 1
 279 278 l 1
 168 278 l 1
 112 0 l 1
 35 0 l 1
181 341 m 1
 276 341 l 2
 401 341 471 400 471 493 c 0
 471 565 422 594 325 594 c 2
 230 594 l 1
 181 341 l 1
384 716 m 0xfc
 358 716 335 732 335 761 c 0
 335 793 362 819 393 819 c 0
 419 819 442 802 442 773 c 0
 442 740 415 716 384 716 c 0xfc
EndSplineSet
EndChar

StartChar: uni0156
Encoding: 342 342 191
Width: 600
Flags: MW
HStem: -226 39<133 133> -95 37<187 210> 0 21G<35 35 35 112 387 387 387 473> 278 63<181 276 276 279 168 276> 594 62<230 325 230 230>
VStem: 250 65<-148.5 -122.5> 471 79<446.5 529>
LayerCount: 2
Fore
SplineSet
35 0 m 1
 166 656 l 1
 343 656 l 2
 466 656 550 613 550 501 c 0
 550 381 466 307 356 285 c 1
 473 0 l 1
 387 0 l 1
 279 278 l 1
 168 278 l 1
 112 0 l 1
 35 0 l 1
181 341 m 1
 276 341 l 2
 401 341 471 400 471 493 c 0
 471 565 422 594 325 594 c 2
 230 594 l 1
 181 341 l 1
133 -226 m 1
 133 -187 l 1
 213 -184 250 -163 250 -134 c 0
 250 -111 232 -97 187 -95 c 1
 210 -58 l 1
 296 -65 315 -88 315 -124 c 0
 315 -190 239 -224 133 -226 c 1
EndSplineSet
EndChar

StartChar: uni1E5A
Encoding: 7770 7770 192
Width: 600
Flags: MW
HStem: -236 122<218.5 244> 0 21G<35 35 35 112 387 387 387 473> 278 63<181 276 276 279 168 276> 594 62<230 325 230 230>
VStem: 168 127<-186.5 -164> 471 79<446.5 529>
LayerCount: 2
Fore
SplineSet
35 0 m 1
 166 656 l 1
 343 656 l 2
 466 656 550 613 550 501 c 0
 550 381 466 307 356 285 c 1
 473 0 l 1
 387 0 l 1
 279 278 l 1
 168 278 l 1
 112 0 l 1
 35 0 l 1
181 341 m 1
 276 341 l 2
 401 341 471 400 471 493 c 0
 471 565 422 594 325 594 c 2
 230 594 l 1
 181 341 l 1
225 -236 m 0
 193 -236 168 -217 168 -183 c 0
 168 -145 200 -114 237 -114 c 0
 272 -114 295 -133 295 -167 c 0
 295 -206 263 -236 225 -236 c 0
EndSplineSet
EndChar

StartChar: uni1E5C
Encoding: 7772 7772 193
Width: 600
Flags: MW
HStem: -236 122<218.5 244> 0 21G<35 35 35 112 387 387 387 473> 278 63<181 276 276 279 168 276> 594 62<230 325 230 230> 729 54<253 520 264 509>
VStem: 168 127<-186.5 -164> 471 79<446.5 529>
LayerCount: 2
Fore
SplineSet
35 0 m 1
 166 656 l 1
 343 656 l 2
 466 656 550 613 550 501 c 0
 550 381 466 307 356 285 c 1
 473 0 l 1
 387 0 l 1
 279 278 l 1
 168 278 l 1
 112 0 l 1
 35 0 l 1
181 341 m 1
 276 341 l 2
 401 341 471 400 471 493 c 0
 471 565 422 594 325 594 c 2
 230 594 l 1
 181 341 l 1
253 729 m 1
 264 783 l 1
 520 783 l 1
 509 729 l 1
 253 729 l 1
225 -236 m 0
 193 -236 168 -217 168 -183 c 0
 168 -145 200 -114 237 -114 c 0
 272 -114 295 -133 295 -167 c 0
 295 -206 263 -236 225 -236 c 0
EndSplineSet
EndChar

StartChar: uni1E5E
Encoding: 7774 7774 194
Width: 600
Flags: MW
HStem: -187 54<100 365 110 355> 0 21G<35 35 35 112 387 387 387 473> 278 63<181 276 276 279 168 276> 594 62<230 325 230 230>
VStem: 471 79<446.5 529>
LayerCount: 2
Fore
SplineSet
35 0 m 1
 166 656 l 1
 343 656 l 2
 466 656 550 613 550 501 c 0
 550 381 466 307 356 285 c 1
 473 0 l 1
 387 0 l 1
 279 278 l 1
 168 278 l 1
 112 0 l 1
 35 0 l 1
181 341 m 1
 276 341 l 2
 401 341 471 400 471 493 c 0
 471 565 422 594 325 594 c 2
 230 594 l 1
 181 341 l 1
100 -187 m 1
 110 -133 l 1
 365 -133 l 1
 355 -187 l 1
 100 -187 l 1
EndSplineSet
EndChar

StartChar: Sacute
Encoding: 346 346 195
Width: 600
Flags: MW
HStem: -12 67<223.5 302 223.5 323.5> 602 66<304 371.5>
VStem: 142 79<473 525.5 473 542> 405 79<139.5 202>
LayerCount: 2
Fore
SplineSet
261 -12 m 0
 156 -12 82 34 37 106 c 1
 90 149 l 1
 130 89 186 55 261 55 c 0
 343 55 405 102 405 177 c 0
 405 227 373 258 324 287 c 2
 248 332 l 2
 192 366 142 415 142 492 c 0
 142 592 226 668 343 668 c 0
 428 668 498 625 537 571 c 1
 485 528 l 1
 453 568 404 602 339 602 c 0
 269 602 221 553 221 498 c 0
 221 448 256 418 298 394 c 2
 377 347 l 2
 439 308 484 263 484 184 c 0
 484 61 386 -12 261 -12 c 0
342 703 m 1
 312 747 l 1
 477 863 l 1
 514 803 l 1
 342 703 l 1
EndSplineSet
EndChar

StartChar: Scircumflex
Encoding: 348 348 196
Width: 600
Flags: MW
HStem: -12 67<223.5 302 223.5 323.5> 602 66<304 371.5> 797 49<380 384 380 380>
VStem: 142 79<473 525.5 473 542> 405 79<139.5 202>
LayerCount: 2
Fore
SplineSet
261 -12 m 0
 156 -12 82 34 37 106 c 1
 90 149 l 1
 130 89 186 55 261 55 c 0
 343 55 405 102 405 177 c 0
 405 227 373 258 324 287 c 2
 248 332 l 2
 192 366 142 415 142 492 c 0
 142 592 226 668 343 668 c 0
 428 668 498 625 537 571 c 1
 485 528 l 1
 453 568 404 602 339 602 c 0
 269 602 221 553 221 498 c 0
 221 448 256 418 298 394 c 2
 377 347 l 2
 439 308 484 263 484 184 c 0
 484 61 386 -12 261 -12 c 0
246 699 m 1
 213 727 l 1
 343 846 l 1
 430 846 l 1
 518 725 l 1
 480 700 l 1
 384 797 l 1
 380 797 l 1
 246 699 l 1
EndSplineSet
EndChar

StartChar: Scaron
Encoding: 352 352 197
Width: 600
Flags: MW
HStem: -12 67<223.5 302 223.5 323.5> 602 66<304 371.5> 706 50<326 376 372 376 372 413>
VStem: 142 79<473 525.5 473 542> 405 79<139.5 202>
LayerCount: 2
Fore
SplineSet
261 -12 m 0
 156 -12 82 34 37 106 c 1
 90 149 l 1
 130 89 186 55 261 55 c 0
 343 55 405 102 405 177 c 0
 405 227 373 258 324 287 c 2
 248 332 l 2
 192 366 142 415 142 492 c 0
 142 592 226 668 343 668 c 0
 428 668 498 625 537 571 c 1
 485 528 l 1
 453 568 404 602 339 602 c 0
 269 602 221 553 221 498 c 0
 221 448 256 418 298 394 c 2
 377 347 l 2
 439 308 484 263 484 184 c 0
 484 61 386 -12 261 -12 c 0
326 706 m 1
 238 827 l 1
 276 852 l 1
 372 756 l 1
 376 756 l 1
 510 853 l 1
 543 825 l 1
 413 706 l 1
 326 706 l 1
EndSplineSet
EndChar

StartChar: Scarondot
Encoding: 1114114 -1 198
Width: 600
Flags: MW
HStem: -12 67<223.5 302 223.5 323.5> 602 66<304 371.5> 706 45<371 375 371 413> 819 111<389 406.5>
VStem: 142 79<473 525.5 473 542> 342 111<866.5 882> 405 79<139.5 202>
LayerCount: 2
Fore
SplineSet
261 -12 m 0xfa
 156 -12 82 34 37 106 c 1
 90 149 l 1
 130 89 186 55 261 55 c 0
 343 55 405 102 405 177 c 0
 405 227 373 258 324 287 c 2
 248 332 l 2
 192 366 142 415 142 492 c 0
 142 592 226 668 343 668 c 0
 428 668 498 625 537 571 c 1
 485 528 l 1
 453 568 404 602 339 602 c 0
 269 602 221 553 221 498 c 0
 221 448 256 418 298 394 c 2
 377 347 l 2
 439 308 484 263 484 184 c 0
 484 61 386 -12 261 -12 c 0xfa
390 819 m 0xfc
 362 819 342 835 342 864 c 0
 342 900 373 930 405 930 c 0
 433 930 453 914 453 884 c 0
 453 849 423 819 390 819 c 0xfc
326 706 m 1
 238 827 l 1
 273 850 l 1
 371 751 l 1
 375 751 l 1
 514 851 l 1
 543 825 l 1
 413 706 l 1
 326 706 l 1
EndSplineSet
EndChar

StartChar: uni015E
Encoding: 350 350 199
Width: 600
Flags: MW
HStem: -226 39<124 125> -10 65<226 226> 602 66<304 371.5>
VStem: 142 79<473 525.5 473 542> 242 64 405 79<139.5 202>
LayerCount: 2
Fore
SplineSet
125 -226 m 1
 124 -187 l 1
 204 -184 240 -165 242 -133 c 0
 243 -108 224 -95 173 -90 c 1
 226 -10 l 1xfc
 139 -1 77 42 37 106 c 1
 90 149 l 1
 130 89 186 55 261 55 c 0
 343 55 405 102 405 177 c 0
 405 227 373 258 324 287 c 2
 248 332 l 2
 192 366 142 415 142 492 c 0
 142 592 226 668 343 668 c 0
 428 668 498 625 537 571 c 1
 485 528 l 1
 453 568 404 602 339 602 c 0
 269 602 221 553 221 498 c 0
 221 448 256 418 298 394 c 2xf4
 377 347 l 2
 439 308 484 263 484 184 c 0
 484 67 396 -5 279 -11 c 1
 246 -65 l 1
 294 -77 308 -95 306 -128 c 0xfc
 301 -191 231 -224 125 -226 c 1
EndSplineSet
EndChar

StartChar: uni0218
Encoding: 536 536 200
Width: 600
Flags: MW
HStem: -226 39<133 133> -95 37<187 210> -12 67<223.5 302 223.5 323.5> 602 66<304 371.5>
VStem: 142 79<473 525.5 473 542> 250 65<-148.5 -122.5> 405 79<139.5 202>
LayerCount: 2
Fore
SplineSet
261 -12 m 0
 156 -12 82 34 37 106 c 1
 90 149 l 1
 130 89 186 55 261 55 c 0
 343 55 405 102 405 177 c 0
 405 227 373 258 324 287 c 2
 248 332 l 2
 192 366 142 415 142 492 c 0
 142 592 226 668 343 668 c 0
 428 668 498 625 537 571 c 1
 485 528 l 1
 453 568 404 602 339 602 c 0
 269 602 221 553 221 498 c 0
 221 448 256 418 298 394 c 2
 377 347 l 2
 439 308 484 263 484 184 c 0
 484 61 386 -12 261 -12 c 0
133 -226 m 1
 133 -187 l 1
 213 -184 250 -163 250 -134 c 0
 250 -111 232 -97 187 -95 c 1
 210 -58 l 1
 296 -65 315 -88 315 -124 c 0xfe
 315 -190 239 -224 133 -226 c 1
EndSplineSet
EndChar

StartChar: uni1E60
Encoding: 7776 7776 201
Width: 600
Flags: MW
HStem: -12 67<223.5 302 223.5 323.5> 602 66<304 371.5> 716 103<365.5 387.5>
VStem: 142 79<473 525.5 473 542> 323 107<756.5 777> 405 79<139.5 202>
LayerCount: 2
Fore
SplineSet
261 -12 m 0xd4
 156 -12 82 34 37 106 c 1
 90 149 l 1
 130 89 186 55 261 55 c 0
 343 55 405 102 405 177 c 0
 405 227 373 258 324 287 c 2
 248 332 l 2
 192 366 142 415 142 492 c 0
 142 592 226 668 343 668 c 0
 428 668 498 625 537 571 c 1
 485 528 l 1
 453 568 404 602 339 602 c 0
 269 602 221 553 221 498 c 0
 221 448 256 418 298 394 c 2
 377 347 l 2
 439 308 484 263 484 184 c 0
 484 61 386 -12 261 -12 c 0xd4
372 716 m 0xf8
 346 716 323 732 323 761 c 0
 323 793 350 819 381 819 c 0
 407 819 430 802 430 773 c 0
 430 740 403 716 372 716 c 0xf8
EndSplineSet
EndChar

StartChar: uni1E62
Encoding: 7778 7778 202
Width: 600
Flags: MW
HStem: -236 122<218.5 244> -12 67<223.5 302 223.5 323.5> 602 66<304 371.5>
VStem: 142 79<473 525.5 473 542> 168 127<-186.5 -164> 405 79<139.5 202>
LayerCount: 2
Fore
SplineSet
261 -12 m 0x74
 156 -12 82 34 37 106 c 1
 90 149 l 1
 130 89 186 55 261 55 c 0
 343 55 405 102 405 177 c 0
 405 227 373 258 324 287 c 2
 248 332 l 2
 192 366 142 415 142 492 c 0
 142 592 226 668 343 668 c 0
 428 668 498 625 537 571 c 1
 485 528 l 1
 453 568 404 602 339 602 c 0
 269 602 221 553 221 498 c 0
 221 448 256 418 298 394 c 2
 377 347 l 2
 439 308 484 263 484 184 c 0
 484 61 386 -12 261 -12 c 0x74
225 -236 m 0xec
 193 -236 168 -217 168 -183 c 0
 168 -145 200 -114 237 -114 c 0
 272 -114 295 -133 295 -167 c 0
 295 -206 263 -236 225 -236 c 0xec
EndSplineSet
EndChar

StartChar: uni1E9E
Encoding: 7838 7838 203
Width: 600
Flags: MW
HStem: -12 65<308 373 308 402> 0 21G<19 97 19 19> 606 62<326.5 397.5>
VStem: 466 77<141 212>
LayerCount: 2
Fore
SplineSet
337 -12 m 0xb0
 265 -12 210 22 182 61 c 1
 223 110 l 1
 249 73 283 53 333 53 c 0xb0
 413 53 466 107 466 175 c 0
 466 249 411 288 313 313 c 1
 317 364 l 1
 482 533 l 1
 462 577 424 606 371 606 c 0
 282 606 207 550 181 421 c 2
 97 0 l 1
 19 0 l 1x70
 107 438 l 2
 134 578 226 668 374 668 c 0
 469 668 535 613 556 521 c 1
 390 351 l 1
 485 321 543 265 543 176 c 0
 543 71 467 -12 337 -12 c 0xb0
EndSplineSet
EndChar

StartChar: Tcaron
Encoding: 356 356 204
Width: 600
Flags: MW
HStem: 0 21G<198 198 198 276> 589 67<111 316 98 625 393 393 393 611> 706 50<341 391 387 391 387 428>
VStem: 98 527<589 656>
LayerCount: 2
Fore
SplineSet
198 0 m 1
 316 589 l 1
 98 589 l 1
 111 656 l 1
 625 656 l 1
 611 589 l 1
 393 589 l 1
 276 0 l 1
 198 0 l 1
341 706 m 1
 253 827 l 1
 291 852 l 1
 387 756 l 1
 391 756 l 1
 525 853 l 1
 558 825 l 1
 428 706 l 1
 341 706 l 1
EndSplineSet
EndChar

StartChar: uni0162
Encoding: 354 354 205
Width: 600
Flags: MW
HStem: -226 39<103 104> 0 21G<198 198 198 211 266 266 266 276> 589 67<111 316 98 625 393 393 393 611>
VStem: 221 64
LayerCount: 2
Fore
SplineSet
198 0 m 1
 316 589 l 1
 98 589 l 1
 111 656 l 1
 625 656 l 1
 611 589 l 1
 393 589 l 1
 276 0 l 1
 266 0 l 1
 225 -65 l 1
 273 -77 287 -95 285 -128 c 0
 280 -191 210 -224 104 -226 c 1
 103 -187 l 1
 183 -184 219 -165 221 -133 c 0
 222 -108 203 -95 152 -90 c 1
 211 0 l 1
 198 0 l 1
EndSplineSet
EndChar

StartChar: uni021A
Encoding: 538 538 206
Width: 600
Flags: MW
HStem: -226 39<108 108> -95 37<162 185> 0 21G<198 198 198 276> 589 67<111 316 98 625 393 393 393 611>
VStem: 225 65<-148.5 -122.5>
LayerCount: 2
Fore
SplineSet
198 0 m 1
 316 589 l 1
 98 589 l 1
 111 656 l 1
 625 656 l 1
 611 589 l 1
 393 589 l 1
 276 0 l 1
 198 0 l 1
108 -226 m 1
 108 -187 l 1
 188 -184 225 -163 225 -134 c 0
 225 -111 207 -97 162 -95 c 1
 185 -58 l 1
 271 -65 290 -88 290 -124 c 0
 290 -190 214 -224 108 -226 c 1
EndSplineSet
EndChar

StartChar: uni1E6C
Encoding: 7788 7788 207
Width: 600
Flags: MW
HStem: -236 122<193.5 219> 0 21G<198 198 198 276> 589 67<111 316 98 625 393 393 393 611>
VStem: 143 127<-186.5 -164>
LayerCount: 2
Fore
SplineSet
198 0 m 1
 316 589 l 1
 98 589 l 1
 111 656 l 1
 625 656 l 1
 611 589 l 1
 393 589 l 1
 276 0 l 1
 198 0 l 1
200 -236 m 0
 168 -236 143 -217 143 -183 c 0
 143 -145 175 -114 212 -114 c 0
 247 -114 270 -133 270 -167 c 0
 270 -206 238 -236 200 -236 c 0
EndSplineSet
EndChar

StartChar: uni1E6E
Encoding: 7790 7790 208
Width: 600
Flags: MW
HStem: -187 54<75 340 85 330> 0 21G<198 198 198 276> 589 67<111 316 98 625 393 393 393 611>
VStem: 75 550
LayerCount: 2
Fore
SplineSet
198 0 m 1
 316 589 l 1
 98 589 l 1
 111 656 l 1
 625 656 l 1
 611 589 l 1
 393 589 l 1
 276 0 l 1
 198 0 l 1
75 -187 m 1
 85 -133 l 1
 340 -133 l 1
 330 -187 l 1
 75 -187 l 1
EndSplineSet
EndChar

StartChar: Tbar
Encoding: 358 358 209
Width: 600
GlyphClass: 2
Flags: MW
HStem: 0 21G<198 276 198 198> 326 56<214 263 352 474> 589 67<111 316 98 625 393 393 393 611>
VStem: 98 527<589 656>
AnchorPoint: "Anchor-3" 235 -20 basechar 0
AnchorPoint: "Anchor-0" 373 676 basechar 0
LayerCount: 2
Fore
SplineSet
128 326 m 1
 138 376 l 1
 214 382 l 1
 275 382 l 1
 316 589 l 1
 98 589 l 1
 111 656 l 1
 625 656 l 1
 611 589 l 1
 393 589 l 1
 352 382 l 1
 486 382 l 1
 474 326 l 1
 341 326 l 1
 276 0 l 1
 198 0 l 1
 263 326 l 1
 128 326 l 1
EndSplineSet
EndChar

StartChar: Ugrave
Encoding: 217 217 210
Width: 600
Flags: MW
HStem: -12 67<224 302.5 224 315>
VStem: 64 77<150.5 201.5>
LayerCount: 2
Fore
SplineSet
255 -12 m 0
 132 -12 64 64 64 186 c 0
 64 217 67 245 74 279 c 2
 149 656 l 1
 227 656 l 1
 152 277 l 2
 145 246 141 220 141 195 c 0
 141 106 183 55 265 55 c 0
 340 55 403 105 432 252 c 2
 512 656 l 1
 588 656 l 1
 506 244 l 2
 468 53 375 -12 255 -12 c 0
401 693 m 1
 267 820 l 1
 322 870 l 1
 444 730 l 1
 401 693 l 1
EndSplineSet
EndChar

StartChar: Uacute
Encoding: 218 218 211
Width: 600
Flags: MW
HStem: -12 67<224 302.5 224 315>
VStem: 64 77<150.5 201.5>
LayerCount: 2
Fore
SplineSet
255 -12 m 0
 132 -12 64 64 64 186 c 0
 64 217 67 245 74 279 c 2
 149 656 l 1
 227 656 l 1
 152 277 l 2
 145 246 141 220 141 195 c 0
 141 106 183 55 265 55 c 0
 340 55 403 105 432 252 c 2
 512 656 l 1
 588 656 l 1
 506 244 l 2
 468 53 375 -12 255 -12 c 0
357 703 m 1
 327 747 l 1
 492 863 l 1
 529 803 l 1
 357 703 l 1
EndSplineSet
EndChar

StartChar: Ucircumflex
Encoding: 219 219 212
Width: 600
Flags: MW
HStem: -12 67<224 302.5 224 315> 797 49<395 399 395 395>
VStem: 64 77<150.5 201.5>
LayerCount: 2
Fore
SplineSet
255 -12 m 0
 132 -12 64 64 64 186 c 0
 64 217 67 245 74 279 c 2
 149 656 l 1
 227 656 l 1
 152 277 l 2
 145 246 141 220 141 195 c 0
 141 106 183 55 265 55 c 0
 340 55 403 105 432 252 c 2
 512 656 l 1
 588 656 l 1
 506 244 l 2
 468 53 375 -12 255 -12 c 0
261 699 m 1
 228 727 l 1
 358 846 l 1
 445 846 l 1
 533 725 l 1
 495 700 l 1
 399 797 l 1
 395 797 l 1
 261 699 l 1
EndSplineSet
EndChar

StartChar: Utilde
Encoding: 360 360 213
Width: 600
Flags: MW
HStem: -12 67<224 302.5 224 315> 698 20G<209 209> 709 60<440.5 476 440.5 484> 781 60<310.5 345.5>
VStem: 64 77<150.5 201.5>
LayerCount: 2
Fore
SplineSet
255 -12 m 0xd8
 132 -12 64 64 64 186 c 0
 64 217 67 245 74 279 c 2
 149 656 l 1
 227 656 l 1
 152 277 l 2
 145 246 141 220 141 195 c 0
 141 106 183 55 265 55 c 0
 340 55 403 105 432 252 c 2
 512 656 l 1
 588 656 l 1
 506 244 l 2
 468 53 375 -12 255 -12 c 0xd8
454 709 m 0xb8
 386 709 368 781 323 781 c 0
 298 781 276 757 263 714 c 1
 209 718 l 1xd8
 225 796 272 841 332 841 c 0
 401 841 418 769 463 769 c 0
 489 769 510 792 523 836 c 1
 577 832 l 1
 561 753 514 709 454 709 c 0xb8
EndSplineSet
EndChar

StartChar: Udieresis
Encoding: 220 220 214
Width: 600
Flags: MW
HStem: -12 67<224 302.5 224 315> 715 95<289.5 307 475 493>
VStem: 64 77<150.5 201.5> 253 90<755 769.5> 439 90<755 769.5>
LayerCount: 2
Fore
SplineSet
255 -12 m 0
 132 -12 64 64 64 186 c 0
 64 217 67 245 74 279 c 2
 149 656 l 1
 227 656 l 1
 152 277 l 2
 145 246 141 220 141 195 c 0
 141 106 183 55 265 55 c 0
 340 55 403 105 432 252 c 2
 512 656 l 1
 588 656 l 1
 506 244 l 2
 468 53 375 -12 255 -12 c 0
293 715 m 0
 270 715 253 730 253 755 c 0
 253 784 276 810 303 810 c 0
 326 810 343 795 343 769 c 0
 343 741 321 715 293 715 c 0
479 715 m 0
 455 715 439 730 439 755 c 0
 439 784 461 810 489 810 c 0
 512 810 529 795 529 769 c 0
 529 741 507 715 479 715 c 0
EndSplineSet
EndChar

StartChar: Umacron
Encoding: 362 362 215
Width: 600
Flags: MW
HStem: -12 67<224 302.5 224 315> 729 54<256 523 267 512>
VStem: 64 77<150.5 201.5>
LayerCount: 2
Fore
SplineSet
255 -12 m 0
 132 -12 64 64 64 186 c 0
 64 217 67 245 74 279 c 2
 149 656 l 1
 227 656 l 1
 152 277 l 2
 145 246 141 220 141 195 c 0
 141 106 183 55 265 55 c 0
 340 55 403 105 432 252 c 2
 512 656 l 1
 588 656 l 1
 506 244 l 2
 468 53 375 -12 255 -12 c 0
256 729 m 1
 267 783 l 1
 523 783 l 1
 512 729 l 1
 256 729 l 1
EndSplineSet
EndChar

StartChar: Ubreve
Encoding: 364 364 216
Width: 600
Flags: MW
HStem: -12 67<224 302.5 224 315> 705 53<359 416.5 359 424.5>
VStem: 64 77<150.5 201.5> 254 52<838 846>
LayerCount: 2
Fore
SplineSet
255 -12 m 0
 132 -12 64 64 64 186 c 0
 64 217 67 245 74 279 c 2
 149 656 l 1
 227 656 l 1
 152 277 l 2
 145 246 141 220 141 195 c 0
 141 106 183 55 265 55 c 0
 340 55 403 105 432 252 c 2
 512 656 l 1
 588 656 l 1
 506 244 l 2
 468 53 375 -12 255 -12 c 0
377 705 m 0
 285 705 250 765 254 838 c 1
 306 846 l 1
 304 796 330 758 388 758 c 0
 445 758 482 797 500 846 c 1
 549 838 l 1
 528 765 472 705 377 705 c 0
EndSplineSet
EndChar

StartChar: Uring
Encoding: 366 366 217
Width: 600
Flags: MW
HStem: -12 67<224 302.5 224 315> 700 36<375.5 404.5 375.5 417> 842 36<388.5 418>
VStem: 64 77<150.5 201.5> 300 46<768 798.5 768 806> 447 46<778.5 809>
LayerCount: 2
Fore
SplineSet
255 -12 m 0
 132 -12 64 64 64 186 c 0
 64 217 67 245 74 279 c 2
 149 656 l 1
 227 656 l 1
 152 277 l 2
 145 246 141 220 141 195 c 0
 141 106 183 55 265 55 c 0
 340 55 403 105 432 252 c 2
 512 656 l 1
 588 656 l 1
 506 244 l 2
 468 53 375 -12 255 -12 c 0
387 700 m 0
 341 700 300 725 300 779 c 0
 300 833 347 878 406 878 c 0
 452 878 493 852 493 799 c 0
 493 743 447 700 387 700 c 0
389 736 m 0
 420 736 447 762 447 795 c 0
 447 823 432 842 404 842 c 0
 373 842 346 815 346 782 c 0
 346 754 362 736 389 736 c 0
EndSplineSet
EndChar

StartChar: Uhungarumlaut
Encoding: 368 368 218
Width: 600
Flags: MW
HStem: -12 67<224 302.5 224 315>
VStem: 64 77<150.5 201.5>
LayerCount: 2
Fore
SplineSet
255 -12 m 0
 132 -12 64 64 64 186 c 0
 64 217 67 245 74 279 c 2
 149 656 l 1
 227 656 l 1
 152 277 l 2
 145 246 141 220 141 195 c 0
 141 106 183 55 265 55 c 0
 340 55 403 105 432 252 c 2
 512 656 l 1
 588 656 l 1
 506 244 l 2
 468 53 375 -12 255 -12 c 0
319 706 m 1
 280 731 l 1
 399 873 l 1
 449 837 l 1
 319 706 l 1
479 706 m 1
 440 731 l 1
 559 873 l 1
 609 837 l 1
 479 706 l 1
EndSplineSet
EndChar

StartChar: uni01D3
Encoding: 467 467 219
Width: 600
Flags: MW
HStem: -12 67<224 302.5 224 315> 706 50<341 391 387 391 387 428>
VStem: 64 77<150.5 201.5>
LayerCount: 2
Fore
SplineSet
255 -12 m 0
 132 -12 64 64 64 186 c 0
 64 217 67 245 74 279 c 2
 149 656 l 1
 227 656 l 1
 152 277 l 2
 145 246 141 220 141 195 c 0
 141 106 183 55 265 55 c 0
 340 55 403 105 432 252 c 2
 512 656 l 1
 588 656 l 1
 506 244 l 2
 468 53 375 -12 255 -12 c 0
341 706 m 1
 253 827 l 1
 291 852 l 1
 387 756 l 1
 391 756 l 1
 525 853 l 1
 558 825 l 1
 428 706 l 1
 341 706 l 1
EndSplineSet
EndChar

StartChar: Uogonek
Encoding: 370 370 220
Width: 600
GlyphClass: 2
Flags: MW
HStem: -225 53<222.5 229> -9 21G
VStem: 64 77<150.5 201.5> 120 63<-141.5 -121>
AnchorPoint: "Anchor-0" 373 678 basechar 0
LayerCount: 2
Fore
SplineSet
212 -225 m 0xd0
 162 -225 120 -202 120 -150 c 0xd0
 120 -92 170 -38 215 -9 c 1
 127 5 64 67 64 186 c 0
 64 217 67 245 74 279 c 2
 149 656 l 1
 227 656 l 1
 152 277 l 2
 145 246 141 220 141 195 c 0xe0
 141 106 183 55 265 55 c 0
 340 55 403 105 432 252 c 2
 512 656 l 1
 588 656 l 1
 506 244 l 2
 476 94 416 23 315 -7 c 0
 227 -30 183 -86 183 -126 c 0
 183 -157 207 -172 238 -172 c 0
 256 -172 270 -166 285 -156 c 1
 303 -195 l 1
 280 -213 246 -225 212 -225 c 0xd0
EndSplineSet
Ligature2: "'ccmp' Glyph Composition/Decomposition lookup 12 subtable" U uni0328
EndChar

StartChar: uni01D5
Encoding: 469 469 221
Width: 600
Flags: MW
HStem: -12 67<224 302.5 224 315> 715 88<286 302 470 486> 859 44<277 542 285 532>
VStem: 64 77<150.5 201.5> 252 84<752 765.5> 436 84<752 765.5>
LayerCount: 2
Fore
SplineSet
255 -12 m 0
 132 -12 64 64 64 186 c 0
 64 217 67 245 74 279 c 2
 149 656 l 1
 227 656 l 1
 152 277 l 2
 145 246 141 220 141 195 c 0
 141 106 183 55 265 55 c 0
 340 55 403 105 432 252 c 2
 512 656 l 1
 588 656 l 1
 506 244 l 2
 468 53 375 -12 255 -12 c 0
289 715 m 0
 267 715 252 729 252 752 c 0
 252 779 273 803 299 803 c 0
 321 803 336 789 336 765 c 0
 336 739 315 715 289 715 c 0
473 715 m 0
 451 715 436 729 436 752 c 0
 436 779 457 803 483 803 c 0
 505 803 520 789 520 765 c 0
 520 739 499 715 473 715 c 0
277 859 m 1
 285 903 l 1
 542 903 l 1
 532 859 l 1
 277 859 l 1
EndSplineSet
EndChar

StartChar: uni01D7
Encoding: 471 471 222
Width: 600
Flags: MW
HStem: -12 67<224 302.5 224 315> 715 88<286 302 470 486>
VStem: 64 77<150.5 201.5> 252 84<752 765.5> 436 84<752 765.5>
LayerCount: 2
Fore
SplineSet
255 -12 m 0
 132 -12 64 64 64 186 c 0
 64 217 67 245 74 279 c 2
 149 656 l 1
 227 656 l 1
 152 277 l 2
 145 246 141 220 141 195 c 0
 141 106 183 55 265 55 c 0
 340 55 403 105 432 252 c 2
 512 656 l 1
 588 656 l 1
 506 244 l 2
 468 53 375 -12 255 -12 c 0
289 715 m 0
 267 715 252 729 252 752 c 0
 252 779 273 803 299 803 c 0
 321 803 336 789 336 765 c 0
 336 739 315 715 289 715 c 0
473 715 m 0
 451 715 436 729 436 752 c 0
 436 779 457 803 483 803 c 0
 505 803 520 789 520 765 c 0
 520 739 499 715 473 715 c 0
397 827 m 1
 364 856 l 1
 480 965 l 1
 526 925 l 1
 397 827 l 1
EndSplineSet
EndChar

StartChar: uni01D9
Encoding: 473 473 223
Width: 600
Flags: MW
HStem: -12 67<224 302.5 224 315> 715 88<286 302 470 486> 839 46<365 409 405 409 405 437>
VStem: 64 77<150.5 201.5> 252 84<752 765.5> 436 84<752 765.5>
LayerCount: 2
Fore
SplineSet
255 -12 m 0
 132 -12 64 64 64 186 c 0
 64 217 67 245 74 279 c 2
 149 656 l 1
 227 656 l 1
 152 277 l 2
 145 246 141 220 141 195 c 0
 141 106 183 55 265 55 c 0
 340 55 403 105 432 252 c 2
 512 656 l 1
 588 656 l 1
 506 244 l 2
 468 53 375 -12 255 -12 c 0
289 715 m 0
 267 715 252 729 252 752 c 0
 252 779 273 803 299 803 c 0
 321 803 336 789 336 765 c 0
 336 739 315 715 289 715 c 0
473 715 m 0
 451 715 436 729 436 752 c 0
 436 779 457 803 483 803 c 0
 505 803 520 789 520 765 c 0
 520 739 499 715 473 715 c 0
365 839 m 1
 289 930 l 1
 326 955 l 1
 405 885 l 1
 409 885 l 1
 517 955 l 1
 547 929 l 1
 437 839 l 1
 365 839 l 1
EndSplineSet
EndChar

StartChar: uni01DB
Encoding: 475 475 224
Width: 600
Flags: MW
HStem: -12 67<224 302.5 224 315> 715 88<286 302 470 486>
VStem: 64 77<150.5 201.5> 252 84<752 765.5> 436 84<752 765.5>
LayerCount: 2
Fore
SplineSet
255 -12 m 0
 132 -12 64 64 64 186 c 0
 64 217 67 245 74 279 c 2
 149 656 l 1
 227 656 l 1
 152 277 l 2
 145 246 141 220 141 195 c 0
 141 106 183 55 265 55 c 0
 340 55 403 105 432 252 c 2
 512 656 l 1
 588 656 l 1
 506 244 l 2
 468 53 375 -12 255 -12 c 0
289 715 m 0
 267 715 252 729 252 752 c 0
 252 779 273 803 299 803 c 0
 321 803 336 789 336 765 c 0
 336 739 315 715 289 715 c 0
473 715 m 0
 451 715 436 729 436 752 c 0
 436 779 457 803 483 803 c 0
 505 803 520 789 520 765 c 0
 520 739 499 715 473 715 c 0
399 821 m 1
 308 938 l 1
 365 969 l 1
 438 842 l 1
 399 821 l 1
EndSplineSet
EndChar

StartChar: uni1EE4
Encoding: 7908 7908 225
Width: 600
Flags: MW
HStem: -236 122<191.5 217> -12 67<224 302.5 224 315>
VStem: 64 77<150.5 201.5> 141 127<-186.5 -164>
LayerCount: 2
Fore
SplineSet
255 -12 m 0x60
 132 -12 64 64 64 186 c 0
 64 217 67 245 74 279 c 2
 149 656 l 1
 227 656 l 1
 152 277 l 2
 145 246 141 220 141 195 c 0
 141 106 183 55 265 55 c 0
 340 55 403 105 432 252 c 2
 512 656 l 1
 588 656 l 1
 506 244 l 2
 468 53 375 -12 255 -12 c 0x60
198 -236 m 0xd0
 166 -236 141 -217 141 -183 c 0
 141 -145 173 -114 210 -114 c 0
 245 -114 268 -133 268 -167 c 0
 268 -206 236 -236 198 -236 c 0xd0
EndSplineSet
EndChar

StartChar: uni1EE6
Encoding: 7910 7910 226
Width: 600
Flags: MW
HStem: -12 67<224 302.5 224 315> 824 48<317 335>
VStem: 64 77<150.5 201.5>
LayerCount: 2
Fore
SplineSet
255 -12 m 0
 132 -12 64 64 64 186 c 0
 64 217 67 245 74 279 c 2
 149 656 l 1
 227 656 l 1
 152 277 l 2
 145 246 141 220 141 195 c 0
 141 106 183 55 265 55 c 0
 340 55 403 105 432 252 c 2
 512 656 l 1
 588 656 l 1
 506 244 l 2
 468 53 375 -12 255 -12 c 0
330 698 m 1
 328 736 l 1
 361 745 388 757 392 782 c 0
 397 808 371 822 317 824 c 1
 335 872 l 1
 422 869 467 842 458 791 c 0
 447 733 389 708 330 698 c 1
EndSplineSet
EndChar

StartChar: Uhorn
Encoding: 431 431 227
Width: 600
GlyphClass: 2
Flags: MW
HStem: -12 67<224 302.5 224 315>
VStem: 64 77<150.5 201.5> 647 66<721 755.5>
AnchorPoint: "Anchor-3" 233 -20 basechar 0
AnchorPoint: "Anchor-0" 373 676 basechar 0
LayerCount: 2
Fore
SplineSet
255 -12 m 0
 132 -12 64 64 64 186 c 0
 64 217 67 245 74 279 c 2
 149 656 l 1
 227 656 l 1
 152 277 l 2
 145 246 141 220 141 195 c 0
 141 106 183 55 265 55 c 0
 340 55 403 105 432 252 c 2
 512 656 l 1
 544 656 l 2
 611 659 647 694 647 748 c 0
 647 763 645 783 638 800 c 1
 700 822 l 1
 709 798 713 777 713 757 c 0
 713 676 657 633 581 621 c 1
 506 244 l 2
 468 53 375 -12 255 -12 c 0
EndSplineSet
EndChar

StartChar: uni1EE8
Encoding: 7912 7912 228
Width: 600
Flags: MW
HStem: -12 67<224 302.5 224 315>
VStem: 64 77<150.5 201.5> 647 66<721 755.5>
LayerCount: 2
Fore
SplineSet
255 -12 m 0
 132 -12 64 64 64 186 c 0
 64 217 67 245 74 279 c 2
 149 656 l 1
 227 656 l 1
 152 277 l 2
 145 246 141 220 141 195 c 0
 141 106 183 55 265 55 c 0
 340 55 403 105 432 252 c 2
 512 656 l 1
 544 656 l 2
 611 659 647 694 647 748 c 0
 647 763 645 783 638 800 c 1
 700 822 l 1
 709 798 713 777 713 757 c 0
 713 676 657 633 581 621 c 1
 506 244 l 2
 468 53 375 -12 255 -12 c 0
357 703 m 1
 327 747 l 1
 492 863 l 1
 529 803 l 1
 357 703 l 1
EndSplineSet
EndChar

StartChar: uni1EEA
Encoding: 7914 7914 229
Width: 600
Flags: MW
HStem: -12 67<224 302.5 224 315>
VStem: 64 77<150.5 201.5> 647 66<721 755.5>
LayerCount: 2
Fore
SplineSet
255 -12 m 0
 132 -12 64 64 64 186 c 0
 64 217 67 245 74 279 c 2
 149 656 l 1
 227 656 l 1
 152 277 l 2
 145 246 141 220 141 195 c 0
 141 106 183 55 265 55 c 0
 340 55 403 105 432 252 c 2
 512 656 l 1
 544 656 l 2
 611 659 647 694 647 748 c 0
 647 763 645 783 638 800 c 1
 700 822 l 1
 709 798 713 777 713 757 c 0
 713 676 657 633 581 621 c 1
 506 244 l 2
 468 53 375 -12 255 -12 c 0
401 693 m 1
 267 820 l 1
 322 870 l 1
 444 730 l 1
 401 693 l 1
EndSplineSet
EndChar

StartChar: uni1EEC
Encoding: 7916 7916 230
Width: 600
Flags: MW
HStem: -12 67<224 302.5 224 315> 824 48<317 335>
VStem: 64 77<150.5 201.5> 647 66<721 755.5>
LayerCount: 2
Fore
SplineSet
255 -12 m 0
 132 -12 64 64 64 186 c 0
 64 217 67 245 74 279 c 2
 149 656 l 1
 227 656 l 1
 152 277 l 2
 145 246 141 220 141 195 c 0
 141 106 183 55 265 55 c 0
 340 55 403 105 432 252 c 2
 512 656 l 1
 544 656 l 2
 611 659 647 694 647 748 c 0
 647 763 645 783 638 800 c 1
 700 822 l 1
 709 798 713 777 713 757 c 0
 713 676 657 633 581 621 c 1
 506 244 l 2
 468 53 375 -12 255 -12 c 0
330 698 m 1
 328 736 l 1
 361 745 388 757 392 782 c 0
 397 808 371 822 317 824 c 1
 335 872 l 1
 422 869 467 842 458 791 c 0
 447 733 389 708 330 698 c 1
EndSplineSet
EndChar

StartChar: uni1EEE
Encoding: 7918 7918 231
Width: 600
Flags: MW
HStem: -12 67<224 302.5 224 315> 698 20G<209 209> 709 60<440.5 476 440.5 484> 781 60<310.5 345.5>
VStem: 64 77<150.5 201.5> 647 66<721 755.5>
LayerCount: 2
Fore
SplineSet
255 -12 m 0xdc
 132 -12 64 64 64 186 c 0
 64 217 67 245 74 279 c 2
 149 656 l 1
 227 656 l 1
 152 277 l 2
 145 246 141 220 141 195 c 0
 141 106 183 55 265 55 c 0
 340 55 403 105 432 252 c 2
 512 656 l 1
 544 656 l 2
 611 659 647 694 647 748 c 0
 647 763 645 783 638 800 c 1
 700 822 l 1
 709 798 713 777 713 757 c 0
 713 676 657 633 581 621 c 1
 506 244 l 2
 468 53 375 -12 255 -12 c 0xdc
454 709 m 0xbc
 386 709 368 781 323 781 c 0
 298 781 276 757 263 714 c 1
 209 718 l 1xdc
 225 796 272 841 332 841 c 0
 401 841 418 769 463 769 c 0
 489 769 510 792 523 836 c 1
 577 832 l 1
 561 753 514 709 454 709 c 0xbc
EndSplineSet
EndChar

StartChar: uni1EF0
Encoding: 7920 7920 232
Width: 600
Flags: MW
HStem: -236 122<191.5 217> -12 67<224 302.5 224 315>
VStem: 64 77<150.5 201.5> 141 127<-186.5 -164> 647 66<721 755.5>
LayerCount: 2
Fore
SplineSet
255 -12 m 0x68
 132 -12 64 64 64 186 c 0
 64 217 67 245 74 279 c 2
 149 656 l 1
 227 656 l 1
 152 277 l 2
 145 246 141 220 141 195 c 0
 141 106 183 55 265 55 c 0
 340 55 403 105 432 252 c 2
 512 656 l 1
 544 656 l 2
 611 659 647 694 647 748 c 0
 647 763 645 783 638 800 c 1
 700 822 l 1
 709 798 713 777 713 757 c 0
 713 676 657 633 581 621 c 1
 506 244 l 2
 468 53 375 -12 255 -12 c 0x68
198 -236 m 0xd8
 166 -236 141 -217 141 -183 c 0
 141 -145 173 -114 210 -114 c 0
 245 -114 268 -133 268 -167 c 0
 268 -206 236 -236 198 -236 c 0xd8
EndSplineSet
EndChar

StartChar: uni1E7E
Encoding: 7806 7806 233
Width: 600
Flags: MW
HStem: -236 122<191.5 217> 0 76<188 254 250 254 250 281>
VStem: 141 127<-186.5 -164>
LayerCount: 2
Fore
SplineSet
188 0 m 1
 122 656 l 1
 202 656 l 1
 233 292 l 2
 239 221 244 148 250 76 c 1
 254 76 l 1
 287 145 329 230 361 292 c 2
 547 656 l 1
 632 656 l 1
 281 0 l 1
 188 0 l 1
198 -236 m 0
 166 -236 141 -217 141 -183 c 0
 141 -145 173 -114 210 -114 c 0
 245 -114 268 -133 268 -167 c 0
 268 -206 236 -236 198 -236 c 0
EndSplineSet
EndChar

StartChar: Wgrave
Encoding: 7808 7808 234
Width: 600
Flags: MW
HStem: 0 67<54 123 119 123 119 154> 0 71<342 401 395 401 395 438> 391 83<313 318 313 313>
VStem: 333 62
LayerCount: 2
Fore
SplineSet
54 0 m 1x70
 94 657 l 1
 168 657 l 1
 134 204 l 2
 129 144 122 86 119 67 c 1
 123 67 l 1xb0
 130 87 170 187 179 206 c 2
 298 474 l 1
 364 474 l 1
 383 250 l 2
 387 204 394 116 395 71 c 1
 401 71 l 1
 405 90 428 189 434 209 c 2
 568 657 l 1
 642 657 l 1
 438 0 l 1
 342 0 l 1
 324 266 l 2
 321 305 318 360 318 391 c 1
 313 391 l 1
 303 359 285 305 268 266 c 2
 154 0 l 1
 54 0 l 1x70
397 693 m 1
 263 820 l 1
 318 870 l 1
 440 730 l 1
 397 693 l 1
EndSplineSet
EndChar

StartChar: Wacute
Encoding: 7810 7810 235
Width: 600
Flags: MW
HStem: 0 67<54 123 119 123 119 154> 0 71<342 401 395 401 395 438> 391 83<313 318 313 313>
VStem: 333 62
LayerCount: 2
Fore
SplineSet
54 0 m 1x70
 94 657 l 1
 168 657 l 1
 134 204 l 2
 129 144 122 86 119 67 c 1
 123 67 l 1xb0
 130 87 170 187 179 206 c 2
 298 474 l 1
 364 474 l 1
 383 250 l 2
 387 204 394 116 395 71 c 1
 401 71 l 1
 405 90 428 189 434 209 c 2
 568 657 l 1
 642 657 l 1
 438 0 l 1
 342 0 l 1
 324 266 l 2
 321 305 318 360 318 391 c 1
 313 391 l 1
 303 359 285 305 268 266 c 2
 154 0 l 1
 54 0 l 1x70
353 703 m 1
 323 747 l 1
 488 863 l 1
 525 803 l 1
 353 703 l 1
EndSplineSet
EndChar

StartChar: Wcircumflex
Encoding: 372 372 236
Width: 600
Flags: MW
HStem: 0 67<54 123 119 123 119 154> 0 71<342 401 395 401 395 438> 391 83<313 318 313 313> 797 49<391 395 391 391>
VStem: 333 62
LayerCount: 2
Fore
SplineSet
54 0 m 1x78
 94 657 l 1
 168 657 l 1
 134 204 l 2
 129 144 122 86 119 67 c 1
 123 67 l 1xb8
 130 87 170 187 179 206 c 2
 298 474 l 1
 364 474 l 1
 383 250 l 2
 387 204 394 116 395 71 c 1
 401 71 l 1
 405 90 428 189 434 209 c 2
 568 657 l 1
 642 657 l 1
 438 0 l 1
 342 0 l 1
 324 266 l 2
 321 305 318 360 318 391 c 1
 313 391 l 1
 303 359 285 305 268 266 c 2
 154 0 l 1
 54 0 l 1x78
257 699 m 1
 224 727 l 1
 354 846 l 1
 441 846 l 1
 529 725 l 1
 491 700 l 1
 395 797 l 1
 391 797 l 1
 257 699 l 1
EndSplineSet
EndChar

StartChar: Wdieresis
Encoding: 7812 7812 237
Width: 600
Flags: MW
HStem: 0 67<54 123 119 123 119 154> 0 71<342 401 395 401 395 438> 391 83<313 318 313 313> 715 95<285.5 303 471 489>
VStem: 249 90<755 769.5> 333 62 435 90<755 769.5>
LayerCount: 2
Fore
SplineSet
54 0 m 1x76
 94 657 l 1
 168 657 l 1
 134 204 l 2
 129 144 122 86 119 67 c 1
 123 67 l 1xba
 130 87 170 187 179 206 c 2
 298 474 l 1
 364 474 l 1
 383 250 l 2
 387 204 394 116 395 71 c 1
 401 71 l 1
 405 90 428 189 434 209 c 2
 568 657 l 1
 642 657 l 1
 438 0 l 1
 342 0 l 1
 324 266 l 2
 321 305 318 360 318 391 c 1
 313 391 l 1
 303 359 285 305 268 266 c 2
 154 0 l 1
 54 0 l 1x76
289 715 m 0
 266 715 249 730 249 755 c 0
 249 784 272 810 299 810 c 0
 322 810 339 795 339 769 c 0
 339 741 317 715 289 715 c 0
475 715 m 0
 451 715 435 730 435 755 c 0
 435 784 457 810 485 810 c 0
 508 810 525 795 525 769 c 0
 525 741 503 715 475 715 c 0
EndSplineSet
EndChar

StartChar: Ygrave
Encoding: 7922 7922 238
Width: 600
Flags: MW
HStem: 0 21G<199 199 199 276>
VStem: 109 517<657 657>
LayerCount: 2
Fore
SplineSet
199 0 m 1
 246 229 l 1
 109 657 l 1
 189 657 l 1
 250 455 l 2
 266 401 284 338 295 292 c 1
 299 292 l 1
 325 335 367 401 404 455 c 2
 544 657 l 1
 626 657 l 1
 321 221 l 1
 276 0 l 1
 199 0 l 1
388 693 m 1
 254 820 l 1
 309 870 l 1
 431 730 l 1
 388 693 l 1
EndSplineSet
EndChar

StartChar: Yacute
Encoding: 221 221 239
Width: 600
Flags: MW
HStem: 0 21G<199 199 199 276>
VStem: 109 517<657 657>
LayerCount: 2
Fore
SplineSet
199 0 m 1
 246 229 l 1
 109 657 l 1
 189 657 l 1
 250 455 l 2
 266 401 284 338 295 292 c 1
 299 292 l 1
 325 335 367 401 404 455 c 2
 544 657 l 1
 626 657 l 1
 321 221 l 1
 276 0 l 1
 199 0 l 1
344 703 m 1
 314 747 l 1
 479 863 l 1
 516 803 l 1
 344 703 l 1
EndSplineSet
EndChar

StartChar: Ycircumflex
Encoding: 374 374 240
Width: 600
Flags: MW
HStem: 0 21G<199 199 199 276> 797 49<382 386 382 382>
VStem: 109 517<657 657>
LayerCount: 2
Fore
SplineSet
199 0 m 1
 246 229 l 1
 109 657 l 1
 189 657 l 1
 250 455 l 2
 266 401 284 338 295 292 c 1
 299 292 l 1
 325 335 367 401 404 455 c 2
 544 657 l 1
 626 657 l 1
 321 221 l 1
 276 0 l 1
 199 0 l 1
248 699 m 1
 215 727 l 1
 345 846 l 1
 432 846 l 1
 520 725 l 1
 482 700 l 1
 386 797 l 1
 382 797 l 1
 248 699 l 1
EndSplineSet
EndChar

StartChar: Ydieresis
Encoding: 376 376 241
Width: 600
Flags: MW
HStem: 0 21G<199 199 199 276> 715 95<276.5 294 462 480>
VStem: 240 90<755 769.5> 426 90<755 769.5>
LayerCount: 2
Fore
SplineSet
199 0 m 1
 246 229 l 1
 109 657 l 1
 189 657 l 1
 250 455 l 2
 266 401 284 338 295 292 c 1
 299 292 l 1
 325 335 367 401 404 455 c 2
 544 657 l 1
 626 657 l 1
 321 221 l 1
 276 0 l 1
 199 0 l 1
280 715 m 0
 257 715 240 730 240 755 c 0
 240 784 263 810 290 810 c 0
 313 810 330 795 330 769 c 0
 330 741 308 715 280 715 c 0
466 715 m 0
 442 715 426 730 426 755 c 0
 426 784 448 810 476 810 c 0
 499 810 516 795 516 769 c 0
 516 741 494 715 466 715 c 0
EndSplineSet
EndChar

StartChar: uni1E8E
Encoding: 7822 7822 242
Width: 600
Flags: MW
HStem: 0 21G<199 199 199 276> 716 103<367.5 389.5>
VStem: 325 107<756.5 777>
LayerCount: 2
Fore
SplineSet
199 0 m 1
 246 229 l 1
 109 657 l 1
 189 657 l 1
 250 455 l 2
 266 401 284 338 295 292 c 1
 299 292 l 1
 325 335 367 401 404 455 c 2
 544 657 l 1
 626 657 l 1
 321 221 l 1
 276 0 l 1
 199 0 l 1
374 716 m 0
 348 716 325 732 325 761 c 0
 325 793 352 819 383 819 c 0
 409 819 432 802 432 773 c 0
 432 740 405 716 374 716 c 0
EndSplineSet
EndChar

StartChar: uni1EF4
Encoding: 7924 7924 243
Width: 600
Flags: MW
HStem: -236 122<192.5 218> 0 21G<199 199 199 276>
VStem: 142 127<-186.5 -164>
LayerCount: 2
Fore
SplineSet
199 0 m 1
 246 229 l 1
 109 657 l 1
 189 657 l 1
 250 455 l 2
 266 401 284 338 295 292 c 1
 299 292 l 1
 325 335 367 401 404 455 c 2
 544 657 l 1
 626 657 l 1
 321 221 l 1
 276 0 l 1
 199 0 l 1
199 -236 m 0
 167 -236 142 -217 142 -183 c 0
 142 -145 174 -114 211 -114 c 0
 246 -114 269 -133 269 -167 c 0
 269 -206 237 -236 199 -236 c 0
EndSplineSet
EndChar

StartChar: uni1EF6
Encoding: 7926 7926 244
Width: 600
Flags: MW
HStem: 0 21G<199 199 199 276> 824 48<304 322>
VStem: 109 517<657 657>
LayerCount: 2
Fore
SplineSet
199 0 m 1
 246 229 l 1
 109 657 l 1
 189 657 l 1
 250 455 l 2
 266 401 284 338 295 292 c 1
 299 292 l 1
 325 335 367 401 404 455 c 2
 544 657 l 1
 626 657 l 1
 321 221 l 1
 276 0 l 1
 199 0 l 1
317 698 m 1
 315 736 l 1
 348 745 375 757 379 782 c 0
 384 808 358 822 304 824 c 1
 322 872 l 1
 409 869 454 842 445 791 c 0
 434 733 376 708 317 698 c 1
EndSplineSet
EndChar

StartChar: uni1EF8
Encoding: 7928 7928 245
Width: 600
Flags: MW
HStem: 0 21G<199 199 199 276> 698 20G<196 196> 709 60<427.5 463 427.5 471> 781 60<297.5 332.5>
VStem: 109 517<657 657>
LayerCount: 2
Fore
SplineSet
199 0 m 1xd8
 246 229 l 1
 109 657 l 1
 189 657 l 1
 250 455 l 2
 266 401 284 338 295 292 c 1
 299 292 l 1
 325 335 367 401 404 455 c 2
 544 657 l 1
 626 657 l 1
 321 221 l 1
 276 0 l 1
 199 0 l 1xd8
441 709 m 0xb8
 373 709 355 781 310 781 c 0
 285 781 263 757 250 714 c 1
 196 718 l 1xd8
 212 796 259 841 319 841 c 0
 388 841 405 769 450 769 c 0
 476 769 497 792 510 836 c 1
 564 832 l 1
 548 753 501 709 441 709 c 0xb8
EndSplineSet
EndChar

StartChar: Zacute
Encoding: 377 377 246
Width: 600
Flags: MW
HStem: 0 65<133 484> 592 65<140 469 127 586>
VStem: 17 569
LayerCount: 2
Fore
SplineSet
484 0 m 1
 17 0 l 1
 26 46 l 1
 469 592 l 1
 127 592 l 1
 140 657 l 1
 586 657 l 1
 576 610 l 1
 133 65 l 1
 498 65 l 1
 484 0 l 1
344 703 m 1
 314 747 l 1
 479 863 l 1
 516 803 l 1
 344 703 l 1
EndSplineSet
EndChar

StartChar: Zcaron
Encoding: 381 381 247
Width: 600
Flags: MW
HStem: 0 65<133 484> 592 65<140 469 127 586> 706 50<328 378 374 378 374 415>
VStem: 17 569
LayerCount: 2
Fore
SplineSet
484 0 m 1
 17 0 l 1
 26 46 l 1
 469 592 l 1
 127 592 l 1
 140 657 l 1
 586 657 l 1
 576 610 l 1
 133 65 l 1
 498 65 l 1
 484 0 l 1
328 706 m 1
 240 827 l 1
 278 852 l 1
 374 756 l 1
 378 756 l 1
 512 853 l 1
 545 825 l 1
 415 706 l 1
 328 706 l 1
EndSplineSet
EndChar

StartChar: Zdotaccent
Encoding: 379 379 248
Width: 600
Flags: MW
HStem: 0 65<133 484> 592 65<140 469 127 586> 716 103<367.5 389.5>
VStem: 325 107<756.5 777>
LayerCount: 2
Fore
SplineSet
484 0 m 1
 17 0 l 1
 26 46 l 1
 469 592 l 1
 127 592 l 1
 140 657 l 1
 586 657 l 1
 576 610 l 1
 133 65 l 1
 498 65 l 1
 484 0 l 1
374 716 m 0
 348 716 325 732 325 761 c 0
 325 793 352 819 383 819 c 0
 409 819 432 802 432 773 c 0
 432 740 405 716 374 716 c 0
EndSplineSet
EndChar

StartChar: uni1E90
Encoding: 7824 7824 249
Width: 600
Flags: MW
HStem: 0 65<133 484> 592 65<140 469 127 586> 797 49<382 386 382 382>
VStem: 17 569
LayerCount: 2
Fore
SplineSet
484 0 m 1
 17 0 l 1
 26 46 l 1
 469 592 l 1
 127 592 l 1
 140 657 l 1
 586 657 l 1
 576 610 l 1
 133 65 l 1
 498 65 l 1
 484 0 l 1
248 699 m 1
 215 727 l 1
 345 846 l 1
 432 846 l 1
 520 725 l 1
 482 700 l 1
 386 797 l 1
 382 797 l 1
 248 699 l 1
EndSplineSet
EndChar

StartChar: uni1E92
Encoding: 7826 7826 250
Width: 600
Flags: MW
HStem: -236 122<224.5 250> 0 65<133 484> 592 65<140 469 127 586>
VStem: 174 127<-186.5 -164>
LayerCount: 2
Fore
SplineSet
484 0 m 1
 17 0 l 1
 26 46 l 1
 469 592 l 1
 127 592 l 1
 140 657 l 1
 586 657 l 1
 576 610 l 1
 133 65 l 1
 498 65 l 1
 484 0 l 1
231 -236 m 0
 199 -236 174 -217 174 -183 c 0
 174 -145 206 -114 243 -114 c 0
 278 -114 301 -133 301 -167 c 0
 301 -206 269 -236 231 -236 c 0
EndSplineSet
EndChar

StartChar: uni1E94
Encoding: 7828 7828 251
Width: 600
Flags: MW
HStem: -187 54<106 371 116 361> 0 65<133 484> 592 65<140 469 127 586>
VStem: 17 569
LayerCount: 2
Fore
SplineSet
484 0 m 1
 17 0 l 1
 26 46 l 1
 469 592 l 1
 127 592 l 1
 140 657 l 1
 586 657 l 1
 576 610 l 1
 133 65 l 1
 498 65 l 1
 484 0 l 1
106 -187 m 1
 116 -133 l 1
 371 -133 l 1
 361 -187 l 1
 106 -187 l 1
EndSplineSet
EndChar

StartChar: Eth
Encoding: 208 208 252
Width: 600
GlyphClass: 2
Flags: MW
HStem: 0 64<127 214 127 214> 318 56<24 112 189 320> 593 63<233 296 233 233>
VStem: 492 80<294 458>
AnchorPoint: "Anchor-3" 224 -20 basechar 0
AnchorPoint: "Anchor-0" 364 676 basechar 0
LayerCount: 2
Fore
SplineSet
37 0 m 1
 101 318 l 1
 24 318 l 1
 38 370 l 1
 112 374 l 1
 168 656 l 1
 299 656 l 2
 477 656 572 563 572 400 c 0
 572 162 439 0 214 0 c 2
 37 0 l 1
127 64 m 1
 214 64 l 2
 387 64 492 193 492 395 c 0
 492 521 424 593 296 593 c 2
 233 593 l 1
 189 374 l 1
 334 374 l 1
 320 318 l 1
 178 318 l 1
 127 64 l 1
EndSplineSet
EndChar

StartChar: Thorn
Encoding: 222 222 253
Width: 600
Flags: MW
HStem: 0 21G<44 44 44 122> 150 63<165 264 151 267> 480 63<231 330 217 353>
VStem: 475 77<319.5 410>
LayerCount: 2
Fore
SplineSet
44 0 m 1
 175 656 l 1
 253 656 l 1
 231 543 l 1
 353 543 l 2
 472 543 552 496 552 382 c 0
 552 221 431 150 264 150 c 2
 151 150 l 1
 122 0 l 1
 44 0 l 1
165 213 m 1
 267 213 l 2
 403 213 475 267 475 372 c 0
 475 448 424 480 330 480 c 2
 217 480 l 1
 165 213 l 1
EndSplineSet
EndChar

StartChar: uni018F
Encoding: 399 399 254
Width: 600
GlyphClass: 2
Flags: MW
HStem: -12 64<197 297.5 197 330> 286 59<135 473 135 135> 604 65<328 400>
VStem: 55 76 488 77<405.5 475>
AnchorPoint: "Anchor-6" 253 0 basechar 0
AnchorPoint: "Anchor-3" 246 -20 basechar 0
AnchorPoint: "Anchor-2" 253 0 basechar 0
AnchorPoint: "Anchor-0" 370 676 basechar 0
LayerCount: 2
Fore
SplineSet
236 -12 m 0
 124 -12 55 63 55 219 c 0
 55 265 63 307 70 345 c 1
 484 345 l 1
 486 368 488 393 488 418 c 0
 488 532 445 604 355 604 c 0
 294 604 235 575 192 540 c 1
 159 593 l 1
 208 633 286 669 370 669 c 0
 499 669 565 578 565 425 c 0
 565 171 424 -12 236 -12 c 0
244 52 m 0
 351 52 439 146 473 286 c 1
 135 286 l 1
 117 144 150 52 244 52 c 0
EndSplineSet
EndChar

StartChar: Eng
Encoding: 330 330 255
Width: 600
GlyphClass: 2
Flags: MW
HStem: -12 21G<307 391> -12 67<307 358.5 305.5 391> 0 21G<19 97 19 19> 601 67<361.5 398>
VStem: 478 79<343 498>
AnchorPoint: "Anchor-3" 244 -20 basechar 0
AnchorPoint: "Anchor-0" 380 676 basechar 0
LayerCount: 2
Fore
SplineSet
321 -12 m 0x58
 293 -12 257 -5 238 6 c 1x98
 269 68 l 1
 282 60 296 55 315 55 c 0x58
 402 55 478 249 478 437 c 0
 478 559 432 601 364 601 c 0
 321 601 254 570 198 511 c 1
 97 0 l 1
 19 0 l 1x38
 150 656 l 1
 225 656 l 1
 210 584 l 1
 259 633 334 668 389 668 c 0
 489 668 557 604 557 445 c 0
 557 206 461 -12 321 -12 c 0x58
EndSplineSet
Substitution2: "'ss05' Style Set 5 lookup 2 subtable" uni014A.a
EndChar

StartChar: IJ
Encoding: 306 306 256
Width: 600
GlyphClass: 5
Flags: MW
HStem: -162 64<273.5 302.5 273.5 330> 0 21G<43 43 43 121> 636 20G<174 252 252 252 488 566 566 566>
VStem: 43 523
LayerCount: 2
Fore
SplineSet
43 0 m 1
 174 656 l 1
 252 656 l 1
 121 0 l 1
 43 0 l 1
288 -162 m 0
 257 -162 235 -155 213 -143 c 1
 238 -84 l 1
 251 -92 263 -98 284 -98 c 0
 321 -98 342 -65 355 -7 c 2
 488 656 l 1
 566 656 l 1
 434 -5 l 2
 415 -97 372 -162 288 -162 c 0
EndSplineSet
EndChar

StartChar: uni004C00B7004C
Encoding: 1114115 -1 257
Width: 600
GlyphClass: 3
Flags: MW
HStem: 0 66<84 234 392 542 84 304>
VStem: 183 153<350.5 374>
LayerCount: 2
Fore
SplineSet
-4 0 m 1
 127 656 l 1
 202 656 l 1
 84 66 l 1
 247 66 l 1
 234 0 l 1
 -4 0 l 1
246 281 m 0
 208 281 183 309 183 349 c 0
 183 399 223 444 273 444 c 0
 312 444 336 415 336 375 c 0
 336 326 297 281 246 281 c 0
304 0 m 1
 435 656 l 1
 510 656 l 1
 392 66 l 1
 555 66 l 1
 542 0 l 1
 304 0 l 1
EndSplineSet
Ligature2: "'ccmp' Glyph Composition/Decomposition lookup 12 subtable" L periodcentered L
EndChar

StartChar: uni01320301
Encoding: 1114116 -1 258
Width: 600
GlyphClass: 3
Flags: MW
HStem: -162 64<273.5 302.5 273.5 330> 0 21G<43 43 43 121>
VStem: 43 643
LayerCount: 2
Fore
SplineSet
43 0 m 1
 174 656 l 1
 252 656 l 1
 121 0 l 1
 43 0 l 1
288 -162 m 0
 257 -162 235 -155 213 -143 c 1
 238 -84 l 1
 251 -92 263 -98 284 -98 c 0
 321 -98 342 -65 355 -7 c 2
 488 656 l 1
 566 656 l 1
 434 -5 l 2
 415 -97 372 -162 288 -162 c 0
202 703 m 1
 172 747 l 1
 337 863 l 1
 374 803 l 1
 202 703 l 1
514 703 m 1
 484 747 l 1
 649 863 l 1
 686 803 l 1
 514 703 l 1
EndSplineSet
Ligature2: "'ccmp' Glyph Composition/Decomposition lookup 12 subtable" IJ uni0301
EndChar

StartChar: agrave
Encoding: 224 224 259
Width: 600
Flags: MW
HStem: -12 64<208 250> 0 21G<393 456 393 393> 434 64<273.5 352> 466 20G<491 553 553 553>
VStem: 52 79<140 251 140 261>
LayerCount: 2
Fore
SplineSet
219 -12 m 0xa8
 118 -12 52 53 52 174 c 0
 52 348 171 498 319 498 c 0
 388 498 441 469 468 425 c 1
 472 425 l 1xa8
 491 486 l 1
 553 486 l 1
 456 0 l 1
 393 0 l 1x58
 401 74 l 1
 397 74 l 1
 346 22 281 -12 219 -12 c 0xa8
242 52 m 0
 295 52 356 85 409 146 c 1
 454 362 l 1
 421 413 375 434 329 434 c 0
 218 434 131 316 131 186 c 0
 131 94 174 52 242 52 c 0
404 570 m 1
 272 734 l 1
 338 783 l 1
 452 606 l 1
 404 570 l 1
EndSplineSet
Substitution2: "'ss02' Style Set 2 lookup 0 subtable" agrave.a
EndChar

StartChar: aacute
Encoding: 225 225 260
Width: 600
GlyphClass: 2
Flags: MW
HStem: -12 64<208 250> 0 21G<393 456 393 393> 434 64<273.5 352> 466 20G<491 553 553 553> 697 20G<523 523>
VStem: 52 79<140 251 140 261>
AnchorPoint: "Anchor-6" 399 0 basechar 0
LayerCount: 2
Fore
SplineSet
219 -12 m 0xac
 118 -12 52 53 52 174 c 0
 52 348 171 498 319 498 c 0
 388 498 441 469 468 425 c 1
 472 425 l 1xac
 491 486 l 1
 553 486 l 1
 456 0 l 1
 393 0 l 1x5c
 401 74 l 1
 397 74 l 1
 346 22 281 -12 219 -12 c 0xac
242 52 m 0
 295 52 356 85 409 146 c 1
 454 362 l 1
 421 413 375 434 329 434 c 0
 218 434 131 316 131 186 c 0
 131 94 174 52 242 52 c 0
343 579 m 1
 308 624 l 1
 476 777 l 1
 523 717 l 1
 343 579 l 1
EndSplineSet
Substitution2: "'ss02' Style Set 2 lookup 0 subtable" aacute.a
EndChar

StartChar: acircumflex
Encoding: 226 226 261
Width: 600
Flags: MW
HStem: -12 64<208 250> 0 21G<393 456 393 393> 434 64<273.5 352> 466 20G<491 553 553 553> 684 56<389 393 389 389>
VStem: 52 79<140 251 140 261>
LayerCount: 2
Fore
SplineSet
219 -12 m 0xac
 118 -12 52 53 52 174 c 0
 52 348 171 498 319 498 c 0
 388 498 441 469 468 425 c 1
 472 425 l 1xac
 491 486 l 1
 553 486 l 1
 456 0 l 1
 393 0 l 1x5c
 401 74 l 1
 397 74 l 1
 346 22 281 -12 219 -12 c 0xac
242 52 m 0
 295 52 356 85 409 146 c 1
 454 362 l 1
 421 413 375 434 329 434 c 0
 218 434 131 316 131 186 c 0
 131 94 174 52 242 52 c 0
247 568 m 1
 216 602 l 1
 354 740 l 1
 437 740 l 1
 526 599 l 1
 487 568 l 1
 393 684 l 1
 389 684 l 1
 247 568 l 1
EndSplineSet
Substitution2: "'ss02' Style Set 2 lookup 0 subtable" acircumflex.a
EndChar

StartChar: atilde
Encoding: 227 227 262
Width: 600
Flags: MW
HStem: -12 64<208 250> 0 21G<393 456 393 393> 434 64<273.5 352> 466 20G<491 553 553 553> 577 59<429.5 470 429.5 482> 662 59<305 346> 692 20G<569 569> 696 20G<514 514>
VStem: 52 79<140 251 140 261>
LayerCount: 2
Fore
SplineSet
219 -12 m 0xa480
 118 -12 52 53 52 174 c 0
 52 348 171 498 319 498 c 0
 388 498 441 469 468 425 c 1
 472 425 l 1xa480
 491 486 l 1
 553 486 l 1
 456 0 l 1
 393 0 l 1x5480
 401 74 l 1
 397 74 l 1
 346 22 281 -12 219 -12 c 0xa480
242 52 m 0
 295 52 356 85 409 146 c 1
 454 362 l 1
 421 413 375 434 329 434 c 0
 218 434 131 316 131 186 c 0
 131 94 174 52 242 52 c 0
449 577 m 0xaa80
 381 577 372 662 320 662 c 0
 290 662 271 630 261 582 c 1
 206 585 l 1xa480
 222 664 260 721 326 721 c 0
 395 721 404 636 455 636 c 0
 485 636 504 669 514 716 c 1xa980
 569 712 l 1
 554 635 515 577 449 577 c 0xaa80
EndSplineSet
Substitution2: "'ss02' Style Set 2 lookup 0 subtable" atilde.a
EndChar

StartChar: adieresis
Encoding: 228 228 263
Width: 600
GlyphClass: 2
Flags: MW
HStem: -12 64<208 250> 0 21G<393 456 393 393> 434 64<273.5 352> 466 20G<491 553 553 553> 589 104<279 298 465 483.5>
VStem: 52 79<140 251 140 261> 239 99<631.5 649.5> 425 99<631.5 649.5>
AnchorPoint: "Anchor-6" 399 0 basechar 0
LayerCount: 2
Fore
SplineSet
219 -12 m 0xac
 118 -12 52 53 52 174 c 0
 52 348 171 498 319 498 c 0
 388 498 441 469 468 425 c 1
 472 425 l 1xac
 491 486 l 1
 553 486 l 1
 456 0 l 1
 393 0 l 1x5c
 401 74 l 1
 397 74 l 1
 346 22 281 -12 219 -12 c 0xac
242 52 m 0
 295 52 356 85 409 146 c 1
 454 362 l 1
 421 413 375 434 329 434 c 0
 218 434 131 316 131 186 c 0
 131 94 174 52 242 52 c 0
282 589 m 0xaf
 257 589 239 605 239 633 c 0
 239 666 263 693 295 693 c 0
 320 693 338 676 338 648 c 0
 338 615 314 589 282 589 c 0xaf
468 589 m 0
 443 589 425 605 425 633 c 0
 425 666 449 693 481 693 c 0
 506 693 524 676 524 648 c 0
 524 615 499 589 468 589 c 0
EndSplineSet
Substitution2: "'ss02' Style Set 2 lookup 0 subtable" adieresis.a
EndChar

StartChar: amacron
Encoding: 257 257 264
Width: 600
Flags: MW
HStem: -12 64<208 250> 0 21G<393 456 393 393> 434 64<273.5 352> 466 20G<491 553 553 553> 601 54<246 511 256 501>
VStem: 52 79<140 251 140 261>
LayerCount: 2
Fore
SplineSet
219 -12 m 0xac
 118 -12 52 53 52 174 c 0
 52 348 171 498 319 498 c 0
 388 498 441 469 468 425 c 1
 472 425 l 1xac
 491 486 l 1
 553 486 l 1
 456 0 l 1
 393 0 l 1x5c
 401 74 l 1
 397 74 l 1
 346 22 281 -12 219 -12 c 0xac
242 52 m 0
 295 52 356 85 409 146 c 1
 454 362 l 1
 421 413 375 434 329 434 c 0
 218 434 131 316 131 186 c 0
 131 94 174 52 242 52 c 0
246 601 m 1
 256 655 l 1
 511 655 l 1
 501 601 l 1
 246 601 l 1
EndSplineSet
Substitution2: "'ss02' Style Set 2 lookup 0 subtable" amacron.a
EndChar

StartChar: abreve
Encoding: 259 259 265
Width: 600
Flags: MW
HStem: -12 64<208 250> 0 21G<393 456 393 393> 434 64<273.5 352> 466 20G<491 553 553 553> 571 55<347.5 412.5 347.5 423> 702 20G<241 241 553 553>
VStem: 52 79<140 251 140 261> 241 53<722 730>
LayerCount: 2
Fore
SplineSet
219 -12 m 0xae
 118 -12 52 53 52 174 c 0
 52 348 171 498 319 498 c 0
 388 498 441 469 468 425 c 1
 472 425 l 1xae
 491 486 l 1
 553 486 l 1
 456 0 l 1
 393 0 l 1x5e
 401 74 l 1
 397 74 l 1
 346 22 281 -12 219 -12 c 0xae
242 52 m 0
 295 52 356 85 409 146 c 1
 454 362 l 1
 421 413 375 434 329 434 c 0
 218 434 131 316 131 186 c 0
 131 94 174 52 242 52 c 0
369 571 m 0xaf
 264 571 234 648 241 722 c 1
 294 730 l 1
 291 679 315 626 380 626 c 0
 445 626 485 679 503 730 c 1
 553 722 l 1
 535 648 477 571 369 571 c 0xaf
EndSplineSet
Substitution2: "'ss02' Style Set 2 lookup 0 subtable" abreve.a
EndChar

StartChar: aring
Encoding: 229 229 266
Width: 600
GlyphClass: 2
Flags: MW
HStem: -12 64<208 250> 0 21G<393 456 393 393> 434 64<273.5 352> 466 20G<491 553 553 553> 556 36<361.5 394 361.5 407> 713 36<373.5 405.5>
VStem: 52 79<140 251 140 261> 277 52<626.5 660.5 626.5 668> 439 52<644.5 678>
AnchorPoint: "Anchor-6" 399 0 basechar 0
LayerCount: 2
Fore
SplineSet
219 -12 m 0xaf80
 118 -12 52 53 52 174 c 0
 52 348 171 498 319 498 c 0
 388 498 441 469 468 425 c 1
 472 425 l 1xaf80
 491 486 l 1
 553 486 l 1
 456 0 l 1
 393 0 l 1x5f80
 401 74 l 1
 397 74 l 1
 346 22 281 -12 219 -12 c 0xaf80
242 52 m 0
 295 52 356 85 409 146 c 1
 454 362 l 1
 421 413 375 434 329 434 c 0
 218 434 131 316 131 186 c 0
 131 94 174 52 242 52 c 0
372 556 m 0
 318 556 277 585 277 638 c 0
 277 698 326 749 395 749 c 0
 450 749 491 720 491 667 c 0
 491 607 442 556 372 556 c 0
377 592 m 0
 411 592 439 625 439 664 c 0
 439 692 421 713 390 713 c 0
 357 713 329 680 329 641 c 0
 329 612 346 592 377 592 c 0
EndSplineSet
Substitution2: "'ss02' Style Set 2 lookup 0 subtable" aring.a
EndChar

StartChar: aringacute
Encoding: 507 507 267
Width: 600
Flags: MW
HStem: -12 64<208 250> 0 21G<393 456 393 393> 434 64<273.5 352> 466 20G<491 553 553 553> 556 36<361.5 394 361.5 407> 713 34<373.5 419>
VStem: 52 79<140 251 140 261> 277 52<626.5 658> 439 52<644.5 678>
LayerCount: 2
Fore
SplineSet
219 -12 m 0xab80
 118 -12 52 53 52 174 c 0
 52 348 171 498 319 498 c 0
 388 498 441 469 468 425 c 1
 472 425 l 1xab80
 491 486 l 1
 553 486 l 1
 456 0 l 1
 393 0 l 1x5b80
 401 74 l 1
 397 74 l 1
 346 22 281 -12 219 -12 c 0xab80
242 52 m 0
 295 52 356 85 409 146 c 1
 454 362 l 1
 421 413 375 434 329 434 c 0
 218 434 131 316 131 186 c 0
 131 94 174 52 242 52 c 0
372 556 m 0
 318 556 277 585 277 638 c 0
 277 678 299 714 334 733 c 1
 333 734 l 1
 474 843 l 1
 509 802 l 1
 419 747 l 1xaf80
 461 740 491 712 491 667 c 0
 491 607 442 556 372 556 c 0
377 592 m 0
 411 592 439 625 439 664 c 0
 439 692 421 713 390 713 c 0xaf80
 357 713 329 680 329 641 c 0
 329 612 346 592 377 592 c 0
EndSplineSet
Substitution2: "'ss02' Style Set 2 lookup 0 subtable" aringacute.a
EndChar

StartChar: uni01CE
Encoding: 462 462 268
Width: 600
Flags: MW
HStem: -12 64<208 250> 0 21G<393 456 393 393> 434 64<273.5 352> 466 20G<491 553 553 553> 575 56<330 378 374 378 374 413> 693 20G<551 551> 696 20G<241 241>
VStem: 52 79<140 251 140 261>
LayerCount: 2
Fore
SplineSet
219 -12 m 0xab
 118 -12 52 53 52 174 c 0
 52 348 171 498 319 498 c 0
 388 498 441 469 468 425 c 1
 472 425 l 1xab
 491 486 l 1
 553 486 l 1
 456 0 l 1
 393 0 l 1x5b
 401 74 l 1
 397 74 l 1
 346 22 281 -12 219 -12 c 0xab
242 52 m 0
 295 52 356 85 409 146 c 1
 454 362 l 1
 421 413 375 434 329 434 c 0
 218 434 131 316 131 186 c 0
 131 94 174 52 242 52 c 0
330 575 m 1
 241 716 l 1
 280 747 l 1xab
 374 631 l 1
 378 631 l 1
 520 747 l 1
 551 713 l 1xad
 413 575 l 1
 330 575 l 1
EndSplineSet
Substitution2: "'ss02' Style Set 2 lookup 0 subtable" uni01CE.a
EndChar

StartChar: aogonek
Encoding: 261 261 269
Width: 600
GlyphClass: 2
Flags: MW
HStem: -225 51<375 385> -12 64<208 250> 434 64<273.5 352> 466 20G<491 553 553 553>
VStem: 52 79<140 251 140 261> 274 60<-142.5 -114>
AnchorPoint: "Anchor-0" 353 507 basechar 0
LayerCount: 2
Fore
SplineSet
366 -225 m 0xec
 317 -225 274 -202 274 -148 c 0
 274 -80 334 -31 393 1 c 1
 401 74 l 1
 397 74 l 1
 346 22 281 -12 219 -12 c 0
 118 -12 52 53 52 174 c 0
 52 348 171 498 319 498 c 0
 388 498 441 469 468 425 c 1
 472 425 l 1xec
 491 486 l 1
 553 486 l 1xdc
 455 -5 l 1
 374 -40 334 -82 334 -126 c 0
 334 -159 359 -174 391 -174 c 0
 410 -174 425 -169 441 -158 c 1
 458 -193 l 1
 435 -212 404 -225 366 -225 c 0xec
242 52 m 0
 295 52 356 85 409 146 c 1
 454 362 l 1
 421 413 375 434 329 434 c 0
 218 434 131 316 131 186 c 0
 131 94 174 52 242 52 c 0
EndSplineSet
Ligature2: "'ccmp' Glyph Composition/Decomposition lookup 12 subtable" a uni0328
Substitution2: "'ss02' Style Set 2 lookup 0 subtable" aogonek.a
EndChar

StartChar: uni1EA1
Encoding: 7841 7841 270
Width: 600
Flags: MW
HStem: -236 122<207.5 233> -12 64<208 250> 0 21G<393 456 393 393> 434 64<273.5 352> 466 20G<491 553 553 553>
VStem: 52 79<140 251 140 261> 157 127<-186.5 -164>
LayerCount: 2
Fore
SplineSet
219 -12 m 0x54
 118 -12 52 53 52 174 c 0
 52 348 171 498 319 498 c 0
 388 498 441 469 468 425 c 1
 472 425 l 1x54
 491 486 l 1
 553 486 l 1
 456 0 l 1
 393 0 l 1x2c
 401 74 l 1
 397 74 l 1
 346 22 281 -12 219 -12 c 0x54
242 52 m 0
 295 52 356 85 409 146 c 1
 454 362 l 1
 421 413 375 434 329 434 c 0
 218 434 131 316 131 186 c 0
 131 94 174 52 242 52 c 0
214 -236 m 0xd6
 182 -236 157 -217 157 -183 c 0
 157 -145 189 -114 226 -114 c 0
 261 -114 284 -133 284 -167 c 0
 284 -206 252 -236 214 -236 c 0xd6
EndSplineSet
Substitution2: "'ss02' Style Set 2 lookup 0 subtable" uni1EA1.a
EndChar

StartChar: uni1EA3
Encoding: 7843 7843 271
Width: 600
Flags: MW
HStem: -12 64<208 250> 0 21G<393 456 393 393> 434 64<273.5 352> 466 20G<491 553 553 553> 706 54<325 340>
VStem: 52 79<140 251 140 261>
LayerCount: 2
Fore
SplineSet
219 -12 m 0xac
 118 -12 52 53 52 174 c 0
 52 348 171 498 319 498 c 0
 388 498 441 469 468 425 c 1
 472 425 l 1xac
 491 486 l 1
 553 486 l 1
 456 0 l 1
 393 0 l 1x5c
 401 74 l 1
 397 74 l 1
 346 22 281 -12 219 -12 c 0xac
242 52 m 0
 295 52 356 85 409 146 c 1
 454 362 l 1
 421 413 375 434 329 434 c 0
 218 434 131 316 131 186 c 0
 131 94 174 52 242 52 c 0
336 572 m 1
 334 612 l 1
 367 620 395 633 399 659 c 0
 404 688 379 703 325 706 c 1
 340 760 l 1
 430 758 476 725 466 666 c 0
 454 608 395 583 336 572 c 1
EndSplineSet
Substitution2: "'ss02' Style Set 2 lookup 0 subtable" uni1EA3.a
EndChar

StartChar: uni1EA5
Encoding: 7845 7845 272
Width: 600
Flags: MW
HStem: -12 64<208 250> 0 21G<393 456 393 393> 434 64<273.5 352> 466 20G<491 553 553 553> 645 51<384 388 384 384>
VStem: 52 79<140 251 140 261>
LayerCount: 2
Fore
SplineSet
219 -12 m 0xac
 118 -12 52 53 52 174 c 0
 52 348 171 498 319 498 c 0
 388 498 441 469 468 425 c 1
 472 425 l 1xac
 491 486 l 1
 553 486 l 1
 456 0 l 1
 393 0 l 1x5c
 401 74 l 1
 397 74 l 1
 346 22 281 -12 219 -12 c 0xac
242 52 m 0
 295 52 356 85 409 146 c 1
 454 362 l 1
 421 413 375 434 329 434 c 0
 218 434 131 316 131 186 c 0
 131 94 174 52 242 52 c 0
264 570 m 1
 239 605 l 1
 355 696 l 1
 423 696 l 1
 507 601 l 1
 474 570 l 1
 388 645 l 1
 384 645 l 1
 264 570 l 1
508 640 m 1
 477 672 l 1
 585 783 l 1
 628 744 l 1
 508 640 l 1
EndSplineSet
Substitution2: "'ss02' Style Set 2 lookup 0 subtable" uni1EA5.a
EndChar

StartChar: uni1EA7
Encoding: 7847 7847 273
Width: 600
Flags: MW
HStem: -12 64<208 250> 0 21G<393 456 393 393> 434 64<273.5 352> 466 20G<491 553 553 553> 645 51<384 388 384 384>
VStem: 52 79<140 251 140 261>
LayerCount: 2
Fore
SplineSet
219 -12 m 0xac
 118 -12 52 53 52 174 c 0
 52 348 171 498 319 498 c 0
 388 498 441 469 468 425 c 1
 472 425 l 1xac
 491 486 l 1
 553 486 l 1
 456 0 l 1
 393 0 l 1x5c
 401 74 l 1
 397 74 l 1
 346 22 281 -12 219 -12 c 0xac
242 52 m 0
 295 52 356 85 409 146 c 1
 454 362 l 1
 421 413 375 434 329 434 c 0
 218 434 131 316 131 186 c 0
 131 94 174 52 242 52 c 0
264 570 m 1
 239 605 l 1
 355 696 l 1
 423 696 l 1
 507 601 l 1
 474 570 l 1
 388 645 l 1
 384 645 l 1
 264 570 l 1
239 639 m 1
 148 755 l 1
 201 786 l 1
 279 665 l 1
 239 639 l 1
EndSplineSet
Substitution2: "'ss02' Style Set 2 lookup 0 subtable" uni1EA7.a
EndChar

StartChar: uni1EA9
Encoding: 7849 7849 274
Width: 600
Flags: MW
HStem: -12 64<208 250> 0 21G<393 456 393 393> 434 64<273.5 352> 466 20G<491 553 553 553> 645 51<384 388 384 384> 750 41<479 493>
VStem: 52 79<140 251 140 261> 541 61
LayerCount: 2
Fore
SplineSet
219 -12 m 0xae
 118 -12 52 53 52 174 c 0
 52 348 171 498 319 498 c 0
 388 498 441 469 468 425 c 1
 472 425 l 1xae
 491 486 l 1
 553 486 l 1
 456 0 l 1
 393 0 l 1x5e
 401 74 l 1
 397 74 l 1
 346 22 281 -12 219 -12 c 0xae
242 52 m 0
 295 52 356 85 409 146 c 1
 454 362 l 1
 421 413 375 434 329 434 c 0
 218 434 131 316 131 186 c 0
 131 94 174 52 242 52 c 0
264 570 m 1
 240 605 l 1
 356 696 l 1
 424 696 l 1
 508 601 l 1
 475 570 l 1
 388 645 l 1
 384 645 l 1
 264 570 l 1
497 635 m 1
 492 670 l 1
 518 677 537 688 541 709 c 0
 546 735 528 748 479 750 c 1
 493 791 l 1
 570 789 610 765 602 718 c 0xaf
 592 665 544 645 497 635 c 1
EndSplineSet
Substitution2: "'ss02' Style Set 2 lookup 0 subtable" uni1EA9.a
EndChar

StartChar: uni1EAB
Encoding: 7851 7851 275
Width: 600
Flags: MW
HStem: -12 64<208 250> 0 21G<393 456 393 393> 434 64<273.5 352> 466 20G<491 553 553 553> 641 51<386 390 386 386> 694 20G<258 258> 710 51<445.5 474.5 445.5 483.5> 752 51<331 360>
VStem: 52 79<140 251 140 261>
LayerCount: 2
Fore
SplineSet
219 -12 m 0xa580
 118 -12 52 53 52 174 c 0
 52 348 171 498 319 498 c 0
 388 498 441 469 468 425 c 1
 472 425 l 1xa580
 491 486 l 1
 553 486 l 1
 456 0 l 1
 393 0 l 1x5580
 401 74 l 1
 397 74 l 1
 346 22 281 -12 219 -12 c 0xa580
242 52 m 0
 295 52 356 85 409 146 c 1
 454 362 l 1
 421 413 375 434 329 434 c 0
 218 434 131 316 131 186 c 0
 131 94 174 52 242 52 c 0
267 570 m 1xa980
 243 605 l 1
 357 692 l 1
 425 692 l 1
 511 601 l 1
 478 570 l 1
 390 641 l 1
 386 641 l 1
 267 570 l 1xa980
460 710 m 0xa280
 402 710 379 752 341 752 c 0
 321 752 311 739 300 710 c 1
 258 714 l 1
 272 766 300 803 347 803 c 0xa580
 405 803 426 761 465 761 c 0
 484 761 495 774 505 803 c 1
 547 799 l 1
 533 748 507 710 460 710 c 0xa280
EndSplineSet
Substitution2: "'ss02' Style Set 2 lookup 0 subtable" uni1EAB.a
EndChar

StartChar: uni1EAD
Encoding: 7853 7853 276
Width: 600
Flags: MW
HStem: -236 122<207.5 233> -12 64<208 250> 0 21G<393 456 393 393> 434 64<273.5 352> 466 20G<491 553 553 553> 684 56<389 393 389 389>
VStem: 52 79<140 251 140 261> 157 127<-186.5 -164>
LayerCount: 2
Fore
SplineSet
219 -12 m 0xd6
 118 -12 52 53 52 174 c 0
 52 348 171 498 319 498 c 0
 388 498 441 469 468 425 c 1
 472 425 l 1xd6
 491 486 l 1
 553 486 l 1
 456 0 l 1
 393 0 l 1xae
 401 74 l 1
 397 74 l 1
 346 22 281 -12 219 -12 c 0xd6
242 52 m 0
 295 52 356 85 409 146 c 1
 454 362 l 1
 421 413 375 434 329 434 c 0
 218 434 131 316 131 186 c 0
 131 94 174 52 242 52 c 0
247 568 m 1
 216 602 l 1
 354 740 l 1
 437 740 l 1
 526 599 l 1
 487 568 l 1
 393 684 l 1
 389 684 l 1
 247 568 l 1
214 -236 m 0xd7
 182 -236 157 -217 157 -183 c 0
 157 -145 189 -114 226 -114 c 0
 261 -114 284 -133 284 -167 c 0
 284 -206 252 -236 214 -236 c 0xd7
EndSplineSet
Substitution2: "'ss02' Style Set 2 lookup 0 subtable" uni1EAD.a
EndChar

StartChar: uni1EAF
Encoding: 7855 7855 277
Width: 600
Flags: MW
HStem: -12 64<208 250> 0 21G<393 456 393 393> 434 64<273.5 352> 466 20G<491 553 553 553> 571 51<345 412 345 422> 702 20G<240 240 553 553>
VStem: 52 79<140 251 140 261> 240 50<722 730>
LayerCount: 2
Fore
SplineSet
219 -12 m 0xae
 118 -12 52 53 52 174 c 0
 52 348 171 498 319 498 c 0
 388 498 441 469 468 425 c 1
 472 425 l 1xae
 491 486 l 1
 553 486 l 1
 456 0 l 1
 393 0 l 1x5e
 401 74 l 1
 397 74 l 1
 346 22 281 -12 219 -12 c 0xae
242 52 m 0
 295 52 356 85 409 146 c 1
 454 362 l 1
 421 413 375 434 329 434 c 0
 218 434 131 316 131 186 c 0
 131 94 174 52 242 52 c 0
368 571 m 0xaf
 263 571 234 648 240 722 c 1
 290 730 l 1
 287 677 311 622 379 622 c 0
 445 622 488 677 506 730 c 1
 553 722 l 1
 535 648 476 571 368 571 c 0xaf
391 705 m 1
 358 736 l 1
 468 845 l 1
 513 801 l 1
 391 705 l 1
EndSplineSet
Substitution2: "'ss02' Style Set 2 lookup 0 subtable" uni1EAF.a
EndChar

StartChar: uni1EB1
Encoding: 7857 7857 278
Width: 600
Flags: MW
HStem: -12 64<208 250> 0 21G<393 456 393 393> 434 64<273.5 352> 466 20G<491 553 553 553> 571 51<345 412 345 422> 702 20G<240 240 553 553>
VStem: 52 79<140 251 140 261> 240 50<722 730>
LayerCount: 2
Fore
SplineSet
219 -12 m 0xae
 118 -12 52 53 52 174 c 0
 52 348 171 498 319 498 c 0
 388 498 441 469 468 425 c 1
 472 425 l 1xae
 491 486 l 1
 553 486 l 1
 456 0 l 1
 393 0 l 1x5e
 401 74 l 1
 397 74 l 1
 346 22 281 -12 219 -12 c 0xae
242 52 m 0
 295 52 356 85 409 146 c 1
 454 362 l 1
 421 413 375 434 329 434 c 0
 218 434 131 316 131 186 c 0
 131 94 174 52 242 52 c 0
368 571 m 0xaf
 263 571 234 648 240 722 c 1
 290 730 l 1
 287 677 311 622 379 622 c 0
 445 622 488 677 506 730 c 1
 553 722 l 1
 535 648 476 571 368 571 c 0xaf
395 699 m 1
 310 813 l 1
 366 848 l 1
 437 723 l 1
 395 699 l 1
EndSplineSet
Substitution2: "'ss02' Style Set 2 lookup 0 subtable" uni1EB1.a
EndChar

StartChar: uni1EB3
Encoding: 7859 7859 279
Width: 600
Flags: MW
HStem: -12 64<208 250> 0 21G<393 456 393 393> 434 64<273.5 352> 466 20G<491 553 553 553> 571 51<345 412 345 422> 698 20G<361 361> 702 20G<241 241 554 554> 798 50<349 366>
VStem: 52 79<140 251 140 261> 241 49<722 730>
LayerCount: 2
Fore
SplineSet
219 -12 m 0xaa80
 118 -12 52 53 52 174 c 0
 52 348 171 498 319 498 c 0
 388 498 441 469 468 425 c 1
 472 425 l 1xaa80
 491 486 l 1
 553 486 l 1
 456 0 l 1
 393 0 l 1x5a80
 401 74 l 1
 397 74 l 1
 346 22 281 -12 219 -12 c 0xaa80
242 52 m 0
 295 52 356 85 409 146 c 1
 454 362 l 1
 421 413 375 434 329 434 c 0
 218 434 131 316 131 186 c 0
 131 94 174 52 242 52 c 0
368 571 m 0xabc0
 263 571 234 648 241 722 c 1
 290 730 l 1
 287 677 311 622 379 622 c 0
 445 622 488 677 507 730 c 1
 554 722 l 1
 535 648 476 571 368 571 c 0xabc0
363 682 m 1
 361 718 l 1xac80
 391 724 414 736 418 757 c 0
 423 783 403 796 349 798 c 1
 366 848 l 1
 447 846 489 819 479 766 c 0
 469 712 415 690 363 682 c 1
EndSplineSet
Substitution2: "'ss02' Style Set 2 lookup 0 subtable" uni1EB3.a
EndChar

StartChar: uni1EB5
Encoding: 7861 7861 280
Width: 600
Flags: MW
HStem: -12 64<208 250> 0 21G<393 456 393 393> 434 64<273.5 352> 466 20G<491 553 553 553> 571 47<346 408 346 417.5> 694 20G<254 254> 710 50<444.5 473.5 444.5 482.5> 752 50<330.5 359>
VStem: 52 79<140 251 140 261> 244 48<678 686>
LayerCount: 2
Fore
SplineSet
219 -12 m 0xad80
 118 -12 52 53 52 174 c 0
 52 348 171 498 319 498 c 0
 388 498 441 469 468 425 c 1
 472 425 l 1xad80
 491 486 l 1
 553 486 l 1
 456 0 l 1
 393 0 l 1x5d80
 401 74 l 1
 397 74 l 1
 346 22 281 -12 219 -12 c 0xad80
242 52 m 0
 295 52 356 85 409 146 c 1
 454 362 l 1
 421 413 375 434 329 434 c 0
 218 434 131 316 131 186 c 0
 131 94 174 52 242 52 c 0
368 571 m 0xaac0
 270 571 240 627 244 678 c 1
 292 686 l 1
 291 653 315 618 377 618 c 0
 439 618 475 653 486 686 c 1
 532 678 l 1
 516 627 467 571 368 571 c 0xaac0
458 710 m 0
 401 710 378 752 340 752 c 0
 321 752 310 738 300 709 c 1
 254 714 l 1
 268 765 297 802 346 802 c 0xad80
 404 802 425 760 464 760 c 0
 483 760 494 774 505 802 c 1
 551 798 l 1
 537 747 507 710 458 710 c 0
EndSplineSet
Substitution2: "'ss02' Style Set 2 lookup 0 subtable" uni1EB5.a
EndChar

StartChar: uni1EB7
Encoding: 7863 7863 281
Width: 600
Flags: MW
HStem: -236 122<207.5 233> -12 64<208 250> 0 21G<393 456 393 393> 434 64<273.5 352> 466 20G<491 553 553 553> 571 55<347.5 412.5 347.5 423> 702 20G<241 241 553 553>
VStem: 52 79<140 251 140 261> 157 127<-186.5 -164> 241 53<722 730>
LayerCount: 2
Fore
SplineSet
219 -12 m 0x57
 118 -12 52 53 52 174 c 0
 52 348 171 498 319 498 c 0
 388 498 441 469 468 425 c 1
 472 425 l 1x57
 491 486 l 1
 553 486 l 1
 456 0 l 1
 393 0 l 1x2f
 401 74 l 1
 397 74 l 1
 346 22 281 -12 219 -12 c 0x57
242 52 m 0
 295 52 356 85 409 146 c 1
 454 362 l 1
 421 413 375 434 329 434 c 0
 218 434 131 316 131 186 c 0
 131 94 174 52 242 52 c 0
369 571 m 0x5740
 264 571 234 648 241 722 c 1
 294 730 l 1
 291 679 315 626 380 626 c 0
 445 626 485 679 503 730 c 1
 553 722 l 1
 535 648 477 571 369 571 c 0x5740
214 -236 m 0xd780
 182 -236 157 -217 157 -183 c 0
 157 -145 189 -114 226 -114 c 0
 261 -114 284 -133 284 -167 c 0
 284 -206 252 -236 214 -236 c 0xd780
EndSplineSet
Substitution2: "'ss02' Style Set 2 lookup 0 subtable" uni1EB7.a
EndChar

StartChar: ae
Encoding: 230 230 282
Width: 600
GlyphClass: 2
Flags: MW
HStem: -12 61<91.5 115.5 373 422> 224 59<326 530 326 578 314 530> 436 62<183 231.5>
VStem: -22 72<91 150.5 91 156.5> 246 64<147 169> 274 53 536 63<333.5 372>
AnchorPoint: "Anchor-3" 256 -20 basechar 0
AnchorPoint: "Anchor-2" 393 0 basechar 0
AnchorPoint: "Anchor-0" 340 507 basechar 0
LayerCount: 2
Fore
SplineSet
88 -12 m 0xf6
 19 -12 -22 29 -22 97 c 0
 -22 216 78 276 268 306 c 1
 286 382 264 436 199 436 c 0
 155 436 111 414 79 392 c 1
 51 440 l 1
 90 468 149 498 217 498 c 0
 277 498 318 461 327 405 c 1xf6
 370 468 427 498 485 498 c 0
 565 498 599 428 599 346 c 0
 599 286 586 246 578 224 c 1
 314 224 l 1
 311 206 310 188 310 169 c 0
 310 98 341 49 405 49 c 0xfa
 445 49 479 62 514 86 c 1
 538 36 l 1
 503 9 448 -12 396 -12 c 0
 325 -12 282 26 261 75 c 1
 204 15 143 -12 88 -12 c 0xf6
109 49 m 0
 149 49 206 78 248 126 c 1
 247 134 246 143 246 151 c 0xfa
 246 187 248 216 255 254 c 1
 121 229 50 189 50 112 c 0
 50 70 74 49 109 49 c 0
470 437 m 0
 406 437 352 372 326 283 c 1
 530 283 l 1
 534 304 536 324 536 343 c 0
 536 401 516 437 470 437 c 0
EndSplineSet
EndChar

StartChar: aeacute
Encoding: 509 509 283
Width: 600
Flags: MW
HStem: -12 61<91.5 115.5 373 422> 224 59<326 530 326 578 314 530> 436 62<183 231.5> 697 20G<509 509>
VStem: -22 72<91 150.5 91 156.5> 246 64<147 169> 274 53 536 63<333.5 372>
LayerCount: 2
Fore
SplineSet
88 -12 m 0xfb
 19 -12 -22 29 -22 97 c 0
 -22 216 78 276 268 306 c 1
 286 382 264 436 199 436 c 0
 155 436 111 414 79 392 c 1
 51 440 l 1
 90 468 149 498 217 498 c 0
 277 498 318 461 327 405 c 1xfb
 370 468 427 498 485 498 c 0
 565 498 599 428 599 346 c 0
 599 286 586 246 578 224 c 1
 314 224 l 1
 311 206 310 188 310 169 c 0
 310 98 341 49 405 49 c 0xfd
 445 49 479 62 514 86 c 1
 538 36 l 1
 503 9 448 -12 396 -12 c 0
 325 -12 282 26 261 75 c 1
 204 15 143 -12 88 -12 c 0xfb
109 49 m 0
 149 49 206 78 248 126 c 1
 247 134 246 143 246 151 c 0xfd
 246 187 248 216 255 254 c 1
 121 229 50 189 50 112 c 0
 50 70 74 49 109 49 c 0
470 437 m 0
 406 437 352 372 326 283 c 1
 530 283 l 1
 534 304 536 324 536 343 c 0
 536 401 516 437 470 437 c 0
329 579 m 1
 294 624 l 1
 462 777 l 1
 509 717 l 1
 329 579 l 1
EndSplineSet
EndChar

StartChar: uni01E3
Encoding: 483 483 284
Width: 600
Flags: MW
HStem: -12 61<91.5 115.5 373 422> 224 59<326 530 326 578 314 530> 436 62<183 231.5> 601 54<232 497 242 487>
VStem: -22 72<91 150.5 91 156.5> 246 64<147 169> 274 53 536 63<333.5 372>
LayerCount: 2
Fore
SplineSet
88 -12 m 0xfb
 19 -12 -22 29 -22 97 c 0
 -22 216 78 276 268 306 c 1
 286 382 264 436 199 436 c 0
 155 436 111 414 79 392 c 1
 51 440 l 1
 90 468 149 498 217 498 c 0
 277 498 318 461 327 405 c 1xfb
 370 468 427 498 485 498 c 0
 565 498 599 428 599 346 c 0
 599 286 586 246 578 224 c 1
 314 224 l 1
 311 206 310 188 310 169 c 0
 310 98 341 49 405 49 c 0xfd
 445 49 479 62 514 86 c 1
 538 36 l 1
 503 9 448 -12 396 -12 c 0
 325 -12 282 26 261 75 c 1
 204 15 143 -12 88 -12 c 0xfb
109 49 m 0
 149 49 206 78 248 126 c 1
 247 134 246 143 246 151 c 0xfd
 246 187 248 216 255 254 c 1
 121 229 50 189 50 112 c 0
 50 70 74 49 109 49 c 0
470 437 m 0
 406 437 352 372 326 283 c 1
 530 283 l 1
 534 304 536 324 536 343 c 0
 536 401 516 437 470 437 c 0
232 601 m 1
 242 655 l 1
 497 655 l 1
 487 601 l 1
 232 601 l 1
EndSplineSet
EndChar

StartChar: uni0180
Encoding: 384 384 285
Width: 600
Flags: MW
HStem: -12 64<238.5 316.5 238.5 344.5> 0 21G<36 100 36 36> 414 64<336.5 378.5> 566 57 566 60<76 161 237 442> 566 146<76 255 76 255 225 225 225 255 178 442>
VStem: 458 79<217 323.5>
LayerCount: 2
Fore
SplineSet
270 -12 m 0xa6
 206 -12 151 18 121 61 c 1
 118 61 l 1xa6
 100 0 l 1
 36 0 l 1
 149 566 l 1
 76 566 l 1x66
 85 620 l 1
 161 626 l 1xb2
 178 712 l 1
 255 712 l 1xa6
 237 626 l 1
 452 626 l 1xaa
 442 566 l 1
 225 566 l 1
 212 502 l 1
 187 395 l 1
 190 395 l 1
 239 441 304 478 369 478 c 0
 472 478 537 411 537 289 c 0
 537 121 419 -12 270 -12 c 0xa6
262 52 m 0
 371 52 458 156 458 278 c 0
 458 369 413 414 344 414 c 0
 293 414 228 379 177 320 c 1
 137 122 l 1
 171 71 215 52 262 52 c 0
EndSplineSet
EndChar

StartChar: uni1E07
Encoding: 7687 7687 286
Width: 600
Flags: MW
HStem: -187 54<93 358 103 348> -12 64<238.5 318 238.5 346> 0 21G<36 100 36 36> 434 64<338.5 379.5> 692 20G<178 255 255 255>
VStem: 458 79<228.5 341>
LayerCount: 2
Fore
SplineSet
270 -12 m 0xdc
 206 -12 151 18 121 61 c 1
 118 61 l 1xdc
 100 0 l 1
 36 0 l 1xbc
 178 712 l 1
 255 712 l 1
 216 522 l 1
 190 415 l 1
 193 415 l 1
 242 460 307 498 370 498 c 0
 473 498 537 429 537 305 c 0
 537 129 422 -12 270 -12 c 0xdc
262 52 m 0
 374 52 458 163 458 294 c 0
 458 388 414 434 345 434 c 0
 296 434 232 399 181 340 c 1
 137 122 l 1
 171 71 215 52 262 52 c 0
93 -187 m 1
 103 -133 l 1
 358 -133 l 1
 348 -187 l 1
 93 -187 l 1
EndSplineSet
EndChar

StartChar: ccedilla
Encoding: 231 231 287
Width: 600
Flags: MW
HStem: -226 39<138 139> -12 64<293 328.5> -8 21G<241 241> 434 64<299.5 381.5>
VStem: 67 77<157.5 273 157.5 290.5> 256 64
LayerCount: 2
Fore
SplineSet
139 -226 m 1xdc
 138 -187 l 1
 218 -184 254 -165 256 -133 c 0
 257 -108 238 -95 187 -90 c 1
 241 -8 l 1xbc
 139 9 67 79 67 202 c 0
 67 379 208 498 360 498 c 0
 445 498 508 457 543 411 c 1
 494 367 l 1
 458 412 413 434 350 434 c 0
 249 434 144 335 144 211 c 0
 144 104 211 52 301 52 c 0
 358 52 411 80 456 119 c 1
 487 67 l 1
 436 20 364 -12 293 -12 c 1
 260 -65 l 1
 308 -77 322 -95 320 -128 c 0
 315 -191 245 -224 139 -226 c 1xdc
EndSplineSet
EndChar

StartChar: cacute
Encoding: 263 263 288
Width: 600
Flags: MW
HStem: -12 64<256 327.5> 434 64<299.5 381.5> 697 20G<533 533>
VStem: 67 77<157.5 273 157.5 290.5>
LayerCount: 2
Fore
SplineSet
291 -12 m 0
 164 -12 67 60 67 202 c 0
 67 379 208 498 360 498 c 0
 445 498 508 457 543 411 c 1
 494 367 l 1
 458 412 413 434 350 434 c 0
 249 434 144 335 144 211 c 0
 144 104 211 52 301 52 c 0
 358 52 411 80 456 119 c 1
 487 67 l 1
 436 20 364 -12 291 -12 c 0
353 579 m 1
 318 624 l 1
 486 777 l 1
 533 717 l 1
 353 579 l 1
EndSplineSet
EndChar

StartChar: ccircumflex
Encoding: 265 265 289
Width: 600
Flags: MW
HStem: -12 64<256 327.5> 434 64<299.5 381.5> 684 56<399 403 399 399>
VStem: 67 77<157.5 273 157.5 290.5>
LayerCount: 2
Fore
SplineSet
291 -12 m 0
 164 -12 67 60 67 202 c 0
 67 379 208 498 360 498 c 0
 445 498 508 457 543 411 c 1
 494 367 l 1
 458 412 413 434 350 434 c 0
 249 434 144 335 144 211 c 0
 144 104 211 52 301 52 c 0
 358 52 411 80 456 119 c 1
 487 67 l 1
 436 20 364 -12 291 -12 c 0
257 568 m 1
 226 602 l 1
 364 740 l 1
 447 740 l 1
 536 599 l 1
 497 568 l 1
 403 684 l 1
 399 684 l 1
 257 568 l 1
EndSplineSet
EndChar

StartChar: ccaron
Encoding: 269 269 290
Width: 600
Flags: MW
HStem: -12 64<256 327.5> 434 64<299.5 381.5> 575 56<340 388 384 388 384 423> 693 20G<561 561> 696 20G<251 251>
VStem: 67 77<157.5 273 157.5 290.5>
LayerCount: 2
Fore
SplineSet
291 -12 m 0xec
 164 -12 67 60 67 202 c 0
 67 379 208 498 360 498 c 0
 445 498 508 457 543 411 c 1
 494 367 l 1
 458 412 413 434 350 434 c 0
 249 434 144 335 144 211 c 0
 144 104 211 52 301 52 c 0
 358 52 411 80 456 119 c 1
 487 67 l 1
 436 20 364 -12 291 -12 c 0xec
340 575 m 1
 251 716 l 1
 290 747 l 1xec
 384 631 l 1
 388 631 l 1
 530 747 l 1
 561 713 l 1xf4
 423 575 l 1
 340 575 l 1
EndSplineSet
EndChar

StartChar: cdotaccent
Encoding: 267 267 291
Width: 600
Flags: MW
HStem: -12 64<256 327.5> 434 64<299.5 381.5> 589 122<379.5 405>
VStem: 67 77<157.5 273 157.5 290.5> 329 127<638.5 661>
LayerCount: 2
Fore
SplineSet
291 -12 m 0
 164 -12 67 60 67 202 c 0
 67 379 208 498 360 498 c 0
 445 498 508 457 543 411 c 1
 494 367 l 1
 458 412 413 434 350 434 c 0
 249 434 144 335 144 211 c 0
 144 104 211 52 301 52 c 0
 358 52 411 80 456 119 c 1
 487 67 l 1
 436 20 364 -12 291 -12 c 0
386 589 m 0
 354 589 329 608 329 642 c 0
 329 680 361 711 398 711 c 0
 433 711 456 692 456 658 c 0
 456 619 424 589 386 589 c 0
EndSplineSet
EndChar

StartChar: dcaron
Encoding: 271 271 292
Width: 600
GlyphClass: 3
Flags: MW
HStem: -12 64<193 223> 0 21G<361 424 361 361> 434 64<255.5 330> 548 164<491 606 491 657>
VStem: 42 78<140 251 140 261>
LayerCount: 2
Fore
SplineSet
193 -12 m 0xb8
 102 -12 42 53 42 174 c 0
 42 348 156 498 302 498 c 0
 361 498 407 472 434 431 c 1
 437 431 l 1
 453 526 l 1
 491 712 l 1
 567 712 l 1
 424 0 l 1
 361 0 l 1x78
 367 66 l 1
 363 66 l 1
 314 17 253 -12 193 -12 c 0xb8
224 52 m 0
 272 52 325 80 375 139 c 1
 422 365 l 1
 391 414 352 434 308 434 c 0
 203 434 120 316 120 186 c 0
 120 94 162 52 224 52 c 0
606 548 m 1
 655 816 l 1
 727 816 l 1
 709 735 l 1
 657 548 l 1
 606 548 l 1
EndSplineSet
Ligature2: "'ccmp' Glyph Composition/Decomposition lookup 12 subtable" d uni030C
EndChar

StartChar: uni1E0D
Encoding: 7693 7693 293
Width: 600
Flags: MW
HStem: -236 122<207.5 233> -12 64<208 249.5> 0 21G<393 456 393 393> 434 64<273.5 352> 692 20G<523 600 600 600>
VStem: 52 79<140.5 251 140.5 261> 157 127<-186.5 -164>
LayerCount: 2
Fore
SplineSet
218 -12 m 0xdc
 118 -12 52 53 52 174 c 0
 52 348 171 498 319 498 c 0
 388 498 438 470 466 427 c 1
 469 427 l 1
 485 522 l 1
 523 712 l 1
 600 712 l 1
 456 0 l 1
 393 0 l 1xbc
 401 74 l 1
 397 74 l 1
 346 22 281 -12 218 -12 c 0xdc
242 52 m 0
 295 52 356 85 409 146 c 1
 453 362 l 1
 420 413 375 434 329 434 c 0
 218 434 131 316 131 186 c 0
 131 95 174 52 242 52 c 0
214 -236 m 0xde
 182 -236 157 -217 157 -183 c 0
 157 -145 189 -114 226 -114 c 0
 261 -114 284 -133 284 -167 c 0
 284 -206 252 -236 214 -236 c 0xde
EndSplineSet
EndChar

StartChar: uni1E0F
Encoding: 7695 7695 294
Width: 600
Flags: MW
HStem: -187 54<89 354 99 344> -12 64<208 249.5> 0 21G<393 456 393 393> 434 64<273.5 352> 692 20G<523 600 600 600>
VStem: 52 79<140.5 251 140.5 261>
LayerCount: 2
Fore
SplineSet
218 -12 m 0xdc
 118 -12 52 53 52 174 c 0
 52 348 171 498 319 498 c 0
 388 498 438 470 466 427 c 1
 469 427 l 1
 485 522 l 1
 523 712 l 1
 600 712 l 1
 456 0 l 1
 393 0 l 1xbc
 401 74 l 1
 397 74 l 1
 346 22 281 -12 218 -12 c 0xdc
242 52 m 0
 295 52 356 85 409 146 c 1
 453 362 l 1
 420 413 375 434 329 434 c 0
 218 434 131 316 131 186 c 0
 131 95 174 52 242 52 c 0
89 -187 m 1
 99 -133 l 1
 354 -133 l 1
 344 -187 l 1
 89 -187 l 1
EndSplineSet
EndChar

StartChar: uni1E11
Encoding: 7697 7697 295
Width: 600
Flags: MW
HStem: -226 39<99 100> -11 63<200 268.5> 0 21G<393 456 393 393> 434 64<273.5 352> 692 20G<523 600 600 600>
VStem: 52 79<140.5 251 140.5 261> 217 64
LayerCount: 2
Fore
SplineSet
242 52 m 0xde
 295 52 356 85 409 146 c 1
 453 362 l 1
 420 413 375 434 329 434 c 0
 218 434 131 316 131 186 c 0
 131 95 174 52 242 52 c 0xde
100 -226 m 1
 99 -187 l 1
 179 -184 215 -165 217 -133 c 0
 218 -108 199 -95 148 -90 c 1
 200 -11 l 1xde
 110 -4 52 60 52 174 c 0
 52 348 171 498 319 498 c 0
 388 498 438 470 466 427 c 1
 469 427 l 1
 485 522 l 1
 523 712 l 1
 600 712 l 1
 456 0 l 1
 393 0 l 1
 401 74 l 1
 397 74 l 1
 356 33 307 3 257 -8 c 1
 221 -65 l 1xbe
 269 -77 283 -95 281 -128 c 0
 276 -191 206 -224 100 -226 c 1
EndSplineSet
EndChar

